<?xml version="1.0" encoding="UTF-8" standalone="no"?><!DOCTYPE svg PUBLIC "-//W3C//DTD SVG 1.1//EN" "http://www.w3.org/Graphics/SVG/1.1/DTD/svg11.dtd"><svg width="100%" height="100%" viewBox="0 0 400 400" version="1.1" xmlns="http://www.w3.org/2000/svg" xmlns:xlink="http://www.w3.org/1999/xlink" xml:space="preserve" style="fill-rule:evenodd;clip-rule:evenodd;stroke-linejoin:round;stroke-miterlimit:1.41421;"><path d="M351.757,298.029l-301.756,0c-19.346,0 -35.18,-15.831 -35.18,-35.18l0,-178.38c0,-19.349 15.834,-35.18 35.18,-35.18l301.756,0c19.35,0 35.18,15.831 35.18,35.18l0,178.38c0,19.349 -15.83,35.18 -35.18,35.18Z" style="fill:#62a69d;fill-rule:nonzero;"/><path d="M359.131,250.032l0,-146.296c0,-13.427 -11.029,-24.412 -24.506,-24.412l-266.732,0c-13.477,0 -24.503,10.985 -24.503,24.412l0,144.414l315.741,1.882Z" style="fill:#fff;fill-rule:nonzero;"/><path d="M352.051,40.77l0.294,0.002l0.293,0.005l0.293,0.007l0.292,0.008l0.293,0.01l0.291,0.012l0.292,0.014l0.29,0.016l0.291,0.018l0.29,0.019l0.29,0.022l0.289,0.023l0.289,0.025l0.288,0.026l0.288,0.029l0.287,0.03l0.287,0.032l0.287,0.034l0.285,0.036l0.286,0.038l0.285,0.039l0.284,0.041l0.284,0.043l0.283,0.044l0.283,0.046l0.282,0.048l0.282,0.05l0.281,0.052l0.281,0.053l0.28,0.055l0.279,0.056l0.279,0.059l0.278,0.06l0.277,0.062l0.277,0.063l0.277,0.065l0.275,0.067l0.275,0.068l0.275,0.07l0.273,0.072l0.273,0.074l0.273,0.075l0.272,0.076l0.271,0.079l0.27,0.08l0.27,0.081l0.269,0.084l0.268,0.084l0.267,0.087l0.267,0.088l0.266,0.089l0.266,0.092l0.264,0.092l0.264,0.095l0.263,0.096l0.263,0.097l0.261,0.099l0.261,0.101l0.26,0.102l0.259,0.103l0.259,0.105l0.258,0.107l0.256,0.108l0.256,0.11l0.255,0.111l0.255,0.113l0.254,0.114l0.252,0.116l0.252,0.117l0.251,0.119l0.25,0.12l0.25,0.121l0.249,0.123l0.247,0.125l0.247,0.126l0.245,0.127l0.246,0.129l0.244,0.13l0.243,0.132l0.242,0.133l0.242,0.134l0.24,0.136l0.24,0.137l0.239,0.139l0.237,0.14l0.237,0.141l0.236,0.143l0.235,0.144l0.234,0.145l0.233,0.147l0.232,0.148l0.231,0.15l0.23,0.151l0.23,0.152l0.228,0.153l0.227,0.155l0.226,0.157l0.225,0.157l0.224,0.158l0.224,0.161l0.222,0.161l0.221,0.163l0.22,0.164l0.219,0.165l0.218,0.166l0.218,0.168l0.216,0.169l0.215,0.17l0.214,0.172l0.213,0.172l0.211,0.174l0.211,0.175l0.21,0.177l0.208,0.178l0.208,0.178l0.206,0.18l0.206,0.182l0.204,0.182l0.203,0.183l0.202,0.186l0.201,0.186l0.2,0.187l0.199,0.188l0.197,0.19l0.197,0.191l0.195,0.191l0.194,0.193l0.193,0.194l0.192,0.196l0.191,0.196l0.19,0.198l0.188,0.199l0.187,0.199l0.186,0.201l0.185,0.202l0.183,0.203l0.183,0.205l0.181,0.205l0.18,0.206l0.179,0.208l0.178,0.209l0.176,0.209l0.175,0.211l0.174,0.212l0.173,0.213l0.171,0.214l0.171,0.215l0.169,0.216l0.167,0.217l0.167,0.218l0.165,0.22l0.164,0.22l0.162,0.22l0.162,0.223l0.16,0.223l0.159,0.224l0.157,0.225l0.156,0.227l0.155,0.227l0.153,0.228l0.153,0.23l0.151,0.23l0.149,0.23l0.148,0.232l0.147,0.234l0.145,0.233l0.145,0.236l0.143,0.236l0.141,0.236l0.139,0.237l0.14,0.24l0.137,0.24l0.135,0.239l0.135,0.242l0.133,0.243l0.131,0.242l0.131,0.245l0.129,0.245l0.127,0.246l0.126,0.247l0.124,0.247l0.123,0.249l0.122,0.249l0.12,0.25l0.118,0.251l0.118,0.252l0.115,0.253l0.115,0.254l0.112,0.254l0.111,0.255l0.11,0.256l0.108,0.257l0.107,0.257l0.105,0.259l0.104,0.26l0.102,0.259l0.1,0.261l0.099,0.262l0.098,0.262l0.096,0.263l0.094,0.264l0.093,0.265l0.091,0.265l0.09,0.266l0.088,0.267l0.086,0.268l0.085,0.268l0.083,0.268l0.082,0.27l0.08,0.271l0.078,0.271l0.077,0.271l0.075,0.273l0.073,0.274l0.072,0.272l0.07,0.275l0.069,0.275l0.066,0.276l0.065,0.276l0.064,0.277l0.062,0.277l0.06,0.279l0.058,0.278l0.057,0.28l0.055,0.28l0.053,0.28l0.051,0.281l0.05,0.282l0.048,0.282l0.046,0.283l0.045,0.284l0.043,0.283l0.041,0.284l0.039,0.286l0.037,0.285l0.036,0.286l0.034,0.286l0.032,0.287l0.03,0.287l0.029,0.289l0.027,0.288l0.025,0.289l0.023,0.289l0.021,0.289l0.019,0.291l0.018,0.29l0.016,0.291l0.014,0.291l0.012,0.292l0.01,0.292l0.009,0.293l0.006,0.292l0.005,0.293l0.003,0.295l0.001,0.277l0,178.413l-0.001,0.277l-0.003,0.294l-0.005,0.293l-0.006,0.292l-0.009,0.293l-0.01,0.293l-0.012,0.291l-0.014,0.292l-0.016,0.29l-0.018,0.291l-0.019,0.291l-0.021,0.289l-0.023,0.289l-0.025,0.288l-0.027,0.289l-0.029,0.288l-0.03,0.287l-0.032,0.287l-0.034,0.287l-0.036,0.285l-0.037,0.286l-0.039,0.285l-0.041,0.284l-0.043,0.284l-0.045,0.283l-0.046,0.283l-0.048,0.283l-0.05,0.281l-0.051,0.281l-0.053,0.28l-0.055,0.281l-0.057,0.279l-0.058,0.278l-0.06,0.279l-0.062,0.277l-0.063,0.277l-0.066,0.277l-0.067,0.275l-0.068,0.275l-0.07,0.275l-0.072,0.273l-0.073,0.273l-0.075,0.273l-0.077,0.271l-0.078,0.271l-0.08,0.271l-0.082,0.27l-0.083,0.268l-0.085,0.268l-0.086,0.269l-0.088,0.266l-0.09,0.266l-0.091,0.266l-0.093,0.264l-0.094,0.264l-0.096,0.263l-0.098,0.262l-0.099,0.262l-0.1,0.261l-0.102,0.259l-0.104,0.26l-0.105,0.259l-0.107,0.258l-0.108,0.256l-0.109,0.256l-0.112,0.255l-0.112,0.255l-0.115,0.254l-0.116,0.252l-0.117,0.252l-0.118,0.251l-0.12,0.25l-0.122,0.25l-0.123,0.248l-0.124,0.247l-0.126,0.247l-0.128,0.246l-0.128,0.245l-0.131,0.245l-0.131,0.243l-0.133,0.242l-0.135,0.242l-0.135,0.24l-0.138,0.24l-0.138,0.239l-0.14,0.237l-0.142,0.237l-0.142,0.236l-0.144,0.235l-0.146,0.234l-0.147,0.233l-0.148,0.232l-0.149,0.231l-0.151,0.23l-0.153,0.23l-0.153,0.227l-0.155,0.228l-0.156,0.226l-0.157,0.225l-0.159,0.224l-0.16,0.224l-0.162,0.222l-0.162,0.22l-0.164,0.221l-0.166,0.22l-0.166,0.218l-0.167,0.216l-0.169,0.216l-0.171,0.215l-0.171,0.214l-0.173,0.214l-0.174,0.212l-0.175,0.21l-0.176,0.209l-0.178,0.209l-0.179,0.208l-0.18,0.206l-0.181,0.206l-0.183,0.204l-0.183,0.203l-0.185,0.202l-0.186,0.201l-0.187,0.2l-0.188,0.198l-0.19,0.198l-0.191,0.197l-0.192,0.195l-0.193,0.194l-0.194,0.193l-0.195,0.192l-0.197,0.191l-0.197,0.189l-0.199,0.189l-0.2,0.187l-0.201,0.186l-0.202,0.185l-0.203,0.183l-0.204,0.183l-0.206,0.181l-0.206,0.18l-0.208,0.179l-0.208,0.177l-0.21,0.177l-0.21,0.175l-0.212,0.174l-0.214,0.173l-0.213,0.171l-0.215,0.171l-0.216,0.169l-0.217,0.167l-0.219,0.167l-0.219,0.165l-0.22,0.164l-0.221,0.162l-0.223,0.162l-0.223,0.16l-0.223,0.158l-0.226,0.158l-0.226,0.156l-0.227,0.155l-0.229,0.153l-0.229,0.153l-0.23,0.15l-0.231,0.15l-0.233,0.149l-0.232,0.146l-0.234,0.145l-0.235,0.144l-0.236,0.143l-0.237,0.142l-0.238,0.14l-0.238,0.138l-0.24,0.137l-0.241,0.137l-0.241,0.134l-0.241,0.132l-0.244,0.133l-0.244,0.13l-0.245,0.128l-0.247,0.128l-0.246,0.126l-0.247,0.124l-0.249,0.123l-0.25,0.122l-0.25,0.12l-0.251,0.118l-0.252,0.118l-0.252,0.115l-0.254,0.114l-0.255,0.113l-0.255,0.111l-0.256,0.11l-0.256,0.108l-0.258,0.107l-0.259,0.105l-0.259,0.104l-0.26,0.102l-0.261,0.1l-0.262,0.099l-0.261,0.098l-0.264,0.096l-0.264,0.094l-0.264,0.093l-0.266,0.091l-0.266,0.09l-0.266,0.088l-0.268,0.086l-0.268,0.085l-0.27,0.083l-0.269,0.082l-0.27,0.08l-0.271,0.078l-0.272,0.077l-0.272,0.075l-0.273,0.073l-0.275,0.072l-0.274,0.07l-0.275,0.068l-0.275,0.067l-0.276,0.065l-0.278,0.064l-0.278,0.062l-0.277,0.059l-0.279,0.059l-0.279,0.057l-0.28,0.054l-0.281,0.054l-0.281,0.051l-0.282,0.05l-0.282,0.048l-0.282,0.046l-0.284,0.045l-0.284,0.043l-0.284,0.041l-0.285,0.039l-0.285,0.037l-0.286,0.036l-0.287,0.034l-0.287,0.032l-0.288,0.03l-0.287,0.029l-0.288,0.027l-0.289,0.025l-0.289,0.023l-0.289,0.021l-0.291,0.019l-0.291,0.018l-0.29,0.016l-0.292,0.014l-0.291,0.012l-0.293,0.01l-0.292,0.009l-0.293,0.006l-0.293,0.005l-0.294,0.003l-0.277,0.001l-301.79,0l-0.277,-0.001l-0.294,-0.003l-0.293,-0.005l-0.292,-0.006l-0.293,-0.009l-0.293,-0.01l-0.291,-0.012l-0.292,-0.014l-0.29,-0.016l-0.29,-0.018l-0.291,-0.019l-0.289,-0.021l-0.289,-0.023l-0.29,-0.025l-0.287,-0.027l-0.288,-0.029l-0.288,-0.03l-0.287,-0.032l-0.286,-0.034l-0.286,-0.036l-0.285,-0.037l-0.285,-0.04l-0.284,-0.04l-0.285,-0.043l-0.283,-0.045l-0.282,-0.046l-0.282,-0.048l-0.282,-0.05l-0.281,-0.051l-0.281,-0.054l-0.28,-0.055l-0.279,-0.056l-0.279,-0.059l-0.278,-0.059l-0.277,-0.062l-0.278,-0.064l-0.276,-0.065l-0.275,-0.067l-0.275,-0.068l-0.274,-0.07l-0.275,-0.072l-0.273,-0.073l-0.272,-0.075l-0.272,-0.077l-0.271,-0.078l-0.27,-0.08l-0.269,-0.082l-0.27,-0.083l-0.268,-0.085l-0.268,-0.087l-0.266,-0.088l-0.266,-0.089l-0.266,-0.091l-0.264,-0.093l-0.264,-0.094l-0.263,-0.096l-0.262,-0.098l-0.262,-0.099l-0.261,-0.1l-0.259,-0.102l-0.26,-0.104l-0.259,-0.105l-0.257,-0.107l-0.257,-0.108l-0.256,-0.11l-0.255,-0.111l-0.254,-0.113l-0.254,-0.114l-0.253,-0.116l-0.252,-0.117l-0.251,-0.118l-0.25,-0.12l-0.249,-0.122l-0.249,-0.123l-0.247,-0.124l-0.247,-0.126l-0.247,-0.128l-0.244,-0.128l-0.244,-0.131l-0.244,-0.131l-0.242,-0.133l-0.241,-0.135l-0.241,-0.136l-0.24,-0.137l-0.238,-0.138l-0.237,-0.14l-0.238,-0.142l-0.236,-0.143l-0.235,-0.144l-0.233,-0.145l-0.233,-0.147l-0.232,-0.148l-0.232,-0.15l-0.23,-0.15l-0.229,-0.152l-0.228,-0.154l-0.227,-0.155l-0.226,-0.156l-0.226,-0.158l-0.224,-0.158l-0.223,-0.16l-0.222,-0.161l-0.222,-0.163l-0.22,-0.164l-0.219,-0.165l-0.218,-0.167l-0.217,-0.167l-0.216,-0.169l-0.215,-0.171l-0.214,-0.171l-0.213,-0.173l-0.212,-0.174l-0.211,-0.175l-0.209,-0.176l-0.209,-0.178l-0.208,-0.179l-0.206,-0.18l-0.205,-0.181l-0.204,-0.183l-0.203,-0.183l-0.203,-0.185l-0.201,-0.186l-0.199,-0.187l-0.199,-0.189l-0.198,-0.189l-0.196,-0.191l-0.196,-0.192l-0.194,-0.193l-0.193,-0.194l-0.192,-0.195l-0.19,-0.196l-0.19,-0.198l-0.188,-0.199l-0.187,-0.2l-0.187,-0.201l-0.184,-0.202l-0.184,-0.203l-0.182,-0.204l-0.182,-0.206l-0.18,-0.206l-0.179,-0.207l-0.177,-0.209l-0.177,-0.21l-0.175,-0.21l-0.174,-0.212l-0.173,-0.214l-0.171,-0.213l-0.17,-0.215l-0.169,-0.216l-0.168,-0.217l-0.166,-0.218l-0.166,-0.219l-0.164,-0.221l-0.162,-0.221l-0.162,-0.222l-0.16,-0.223l-0.158,-0.224l-0.158,-0.226l-0.156,-0.226l-0.155,-0.227l-0.153,-0.228l-0.153,-0.23l-0.15,-0.23l-0.15,-0.23l-0.148,-0.233l-0.147,-0.233l-0.146,-0.234l-0.144,-0.235l-0.142,-0.235l-0.142,-0.238l-0.14,-0.237l-0.138,-0.239l-0.138,-0.239l-0.135,-0.241l-0.135,-0.241l-0.133,-0.243l-0.132,-0.243l-0.13,-0.244l-0.128,-0.245l-0.128,-0.246l-0.126,-0.247l-0.124,-0.247l-0.123,-0.249l-0.122,-0.249l-0.12,-0.25l-0.119,-0.252l-0.117,-0.251l-0.115,-0.253l-0.115,-0.254l-0.112,-0.254l-0.112,-0.256l-0.109,-0.255l-0.109,-0.257l-0.106,-0.258l-0.105,-0.259l-0.104,-0.259l-0.102,-0.26l-0.101,-0.26l-0.099,-0.262l-0.097,-0.263l-0.096,-0.262l-0.094,-0.264l-0.093,-0.265l-0.091,-0.265l-0.09,-0.267l-0.088,-0.266l-0.087,-0.268l-0.084,-0.268l-0.084,-0.269l-0.081,-0.27l-0.08,-0.27l-0.079,-0.271l-0.076,-0.272l-0.075,-0.272l-0.074,-0.273l-0.072,-0.274l-0.07,-0.275l-0.068,-0.274l-0.067,-0.276l-0.065,-0.277l-0.064,-0.276l-0.061,-0.278l-0.06,-0.278l-0.059,-0.279l-0.056,-0.279l-0.055,-0.28l-0.053,-0.281l-0.052,-0.281l-0.05,-0.281l-0.048,-0.283l-0.046,-0.282l-0.045,-0.284l-0.042,-0.284l-0.041,-0.284l-0.04,-0.285l-0.037,-0.285l-0.036,-0.286l-0.034,-0.287l-0.032,-0.287l-0.03,-0.287l-0.029,-0.288l-0.027,-0.288l-0.024,-0.289l-0.024,-0.289l-0.021,-0.29l-0.019,-0.29l-0.018,-0.29l-0.016,-0.291l-0.014,-0.292l-0.012,-0.291l-0.01,-0.293l-0.009,-0.292l-0.006,-0.293l-0.005,-0.293l-0.003,-0.294l-0.001,-0.277l0,-178.414l0.001,-0.277l0.003,-0.294l0.005,-0.293l0.006,-0.293l0.009,-0.292l0.01,-0.292l0.012,-0.292l0.014,-0.291l0.016,-0.291l0.018,-0.291l0.019,-0.29l0.021,-0.29l0.024,-0.289l0.024,-0.288l0.027,-0.289l0.029,-0.288l0.03,-0.287l0.032,-0.287l0.034,-0.286l0.036,-0.286l0.037,-0.286l0.04,-0.285l0.041,-0.284l0.042,-0.284l0.045,-0.283l0.046,-0.283l0.048,-0.282l0.05,-0.282l0.052,-0.281l0.053,-0.281l0.055,-0.279l0.056,-0.28l0.059,-0.279l0.06,-0.278l0.061,-0.277l0.064,-0.277l0.065,-0.277l0.067,-0.275l0.068,-0.275l0.07,-0.275l0.072,-0.273l0.074,-0.273l0.075,-0.273l0.076,-0.272l0.079,-0.271l0.08,-0.27l0.081,-0.27l0.084,-0.269l0.084,-0.268l0.087,-0.267l0.088,-0.267l0.09,-0.266l0.091,-0.266l0.092,-0.264l0.095,-0.264l0.096,-0.263l0.097,-0.263l0.099,-0.261l0.101,-0.261l0.102,-0.26l0.104,-0.259l0.105,-0.259l0.106,-0.257l0.109,-0.257l0.109,-0.256l0.112,-0.256l0.112,-0.254l0.115,-0.253l0.115,-0.253l0.117,-0.252l0.119,-0.251l0.12,-0.25l0.122,-0.25l0.123,-0.248l0.124,-0.248l0.126,-0.247l0.127,-0.246l0.129,-0.245l0.13,-0.244l0.132,-0.243l0.133,-0.242l0.135,-0.242l0.135,-0.24l0.138,-0.24l0.138,-0.239l0.14,-0.237l0.142,-0.237l0.142,-0.236l0.145,-0.235l0.145,-0.234l0.147,-0.233l0.148,-0.232l0.15,-0.231l0.15,-0.23l0.153,-0.229l0.153,-0.229l0.155,-0.227l0.156,-0.226l0.158,-0.225l0.158,-0.224l0.16,-0.224l0.162,-0.222l0.162,-0.221l0.164,-0.22l0.165,-0.219l0.167,-0.218l0.168,-0.218l0.169,-0.216l0.17,-0.214l0.171,-0.214l0.173,-0.213l0.174,-0.212l0.175,-0.211l0.177,-0.21l0.177,-0.208l0.179,-0.208l0.18,-0.206l0.182,-0.206l0.182,-0.204l0.184,-0.203l0.184,-0.202l0.187,-0.201l0.187,-0.2l0.188,-0.198l0.19,-0.198l0.19,-0.196l0.192,-0.196l0.193,-0.194l0.194,-0.193l0.196,-0.192l0.196,-0.19l0.198,-0.19l0.199,-0.188l0.199,-0.188l0.201,-0.186l0.202,-0.185l0.204,-0.183l0.204,-0.183l0.205,-0.181l0.207,-0.18l0.207,-0.179l0.209,-0.177l0.209,-0.177l0.211,-0.175l0.212,-0.174l0.213,-0.173l0.214,-0.171l0.215,-0.17l0.216,-0.169l0.217,-0.168l0.218,-0.166l0.219,-0.166l0.22,-0.163l0.222,-0.163l0.222,-0.161l0.223,-0.16l0.224,-0.159l0.226,-0.158l0.226,-0.156l0.227,-0.155l0.228,-0.153l0.229,-0.152l0.23,-0.151l0.232,-0.15l0.232,-0.148l0.233,-0.147l0.234,-0.145l0.234,-0.144l0.236,-0.143l0.237,-0.141l0.238,-0.14l0.239,-0.139l0.239,-0.137l0.241,-0.136l0.241,-0.134l0.242,-0.133l0.244,-0.132l0.244,-0.13l0.245,-0.129l0.246,-0.127l0.246,-0.126l0.248,-0.125l0.249,-0.123l0.249,-0.121l0.25,-0.12l0.251,-0.119l0.252,-0.117l0.253,-0.116l0.253,-0.114l0.255,-0.113l0.255,-0.111l0.256,-0.11l0.257,-0.108l0.258,-0.107l0.258,-0.105l0.259,-0.103l0.26,-0.102l0.261,-0.101l0.262,-0.099l0.262,-0.097l0.263,-0.096l0.264,-0.095l0.265,-0.092l0.265,-0.092l0.266,-0.089l0.267,-0.088l0.267,-0.087l0.268,-0.084l0.269,-0.084l0.27,-0.081l0.27,-0.08l0.271,-0.079l0.272,-0.076l0.273,-0.075l0.273,-0.074l0.273,-0.072l0.275,-0.07l0.275,-0.068l0.275,-0.067l0.277,-0.065l0.276,-0.063l0.278,-0.062l0.278,-0.06l0.279,-0.059l0.279,-0.056l0.28,-0.055l0.281,-0.053l0.281,-0.052l0.281,-0.05l0.283,-0.048l0.282,-0.046l0.284,-0.044l0.283,-0.043l0.285,-0.041l0.285,-0.039l0.285,-0.038l0.286,-0.036l0.286,-0.034l0.287,-0.032l0.288,-0.03l0.287,-0.029l0.289,-0.026l0.288,-0.025l0.29,-0.023l0.289,-0.022l0.29,-0.019l0.291,-0.018l0.291,-0.016l0.291,-0.014l0.292,-0.012l0.292,-0.01l0.292,-0.008l0.293,-0.007l0.293,-0.005l0.294,-0.002l0.277,-0.001l301.79,0l0.277,0.001Zm-302.033,21.067l-0.177,0.001l-0.158,0.001l-0.159,0.003l-0.158,0.003l-0.158,0.005l-0.158,0.005l-0.157,0.007l-0.157,0.007l-0.157,0.009l-0.156,0.009l-0.157,0.011l-0.156,0.011l-0.155,0.013l-0.155,0.013l-0.155,0.015l-0.155,0.015l-0.154,0.016l-0.154,0.017l-0.153,0.019l-0.154,0.019l-0.153,0.02l-0.152,0.021l-0.153,0.022l-0.152,0.023l-0.152,0.024l-0.151,0.024l-0.151,0.026l-0.151,0.027l-0.15,0.027l-0.15,0.029l-0.15,0.029l-0.15,0.03l-0.149,0.032l-0.149,0.032l-0.148,0.033l-0.148,0.034l-0.148,0.035l-0.147,0.035l-0.148,0.037l-0.146,0.037l-0.147,0.039l-0.146,0.039l-0.146,0.04l-0.145,0.041l-0.145,0.042l-0.145,0.043l-0.144,0.044l-0.144,0.044l-0.144,0.046l-0.143,0.046l-0.143,0.047l-0.143,0.048l-0.142,0.049l-0.141,0.05l-0.142,0.05l-0.141,0.052l-0.141,0.052l-0.14,0.053l-0.14,0.054l-0.139,0.055l-0.14,0.055l-0.138,0.057l-0.139,0.057l-0.138,0.058l-0.137,0.059l-0.137,0.06l-0.137,0.061l-0.137,0.061l-0.136,0.062l-0.135,0.063l-0.135,0.064l-0.135,0.065l-0.134,0.065l-0.134,0.067l-0.133,0.067l-0.133,0.067l-0.133,0.069l-0.132,0.07l-0.132,0.07l-0.131,0.071l-0.131,0.072l-0.13,0.072l-0.13,0.073l-0.129,0.075l-0.129,0.074l-0.129,0.076l-0.128,0.077l-0.127,0.077l-0.127,0.078l-0.127,0.078l-0.126,0.08l-0.126,0.08l-0.125,0.081l-0.124,0.082l-0.125,0.082l-0.123,0.083l-0.123,0.084l-0.123,0.085l-0.122,0.085l-0.122,0.086l-0.121,0.087l-0.12,0.088l-0.12,0.088l-0.12,0.089l-0.119,0.089l-0.118,0.091l-0.118,0.091l-0.117,0.092l-0.117,0.092l-0.116,0.093l-0.116,0.094l-0.115,0.095l-0.115,0.095l-0.114,0.096l-0.113,0.096l-0.113,0.097l-0.112,0.098l-0.112,0.099l-0.111,0.099l-0.11,0.1l-0.11,0.1l-0.11,0.102l-0.108,0.101l-0.108,0.103l-0.108,0.103l-0.107,0.104l-0.106,0.104l-0.106,0.105l-0.105,0.106l-0.104,0.106l-0.104,0.107l-0.103,0.107l-0.102,0.108l-0.102,0.109l-0.101,0.109l-0.101,0.11l-0.1,0.111l-0.099,0.111l-0.098,0.111l-0.098,0.113l-0.097,0.112l-0.097,0.114l-0.096,0.114l-0.095,0.114l-0.095,0.115l-0.093,0.116l-0.094,0.116l-0.092,0.117l-0.092,0.117l-0.091,0.118l-0.09,0.119l-0.09,0.119l-0.089,0.119l-0.088,0.12l-0.088,0.121l-0.087,0.121l-0.086,0.121l-0.085,0.122l-0.085,0.123l-0.084,0.123l-0.083,0.124l-0.082,0.124l-0.082,0.125l-0.081,0.125l-0.08,0.125l-0.079,0.126l-0.079,0.127l-0.078,0.127l-0.077,0.128l-0.077,0.128l-0.075,0.128l-0.075,0.129l-0.074,0.129l-0.074,0.13l-0.072,0.131l-0.072,0.13l-0.071,0.132l-0.07,0.131l-0.07,0.132l-0.068,0.133l-0.068,0.133l-0.067,0.133l-0.067,0.134l-0.065,0.134l-0.065,0.135l-0.064,0.135l-0.063,0.136l-0.062,0.136l-0.061,0.136l-0.061,0.137l-0.06,0.137l-0.059,0.138l-0.058,0.138l-0.057,0.138l-0.057,0.139l-0.055,0.139l-0.055,0.139l-0.054,0.14l-0.053,0.141l-0.052,0.14l-0.052,0.141l-0.05,0.142l-0.05,0.142l-0.049,0.142l-0.048,0.142l-0.047,0.143l-0.046,0.144l-0.046,0.143l-0.044,0.144l-0.044,0.145l-0.043,0.144l-0.042,0.145l-0.041,0.146l-0.04,0.146l-0.039,0.146l-0.039,0.146l-0.037,0.147l-0.037,0.147l-0.036,0.148l-0.034,0.147l-0.034,0.148l-0.033,0.149l-0.032,0.149l-0.032,0.149l-0.03,0.149l-0.029,0.15l-0.029,0.15l-0.027,0.151l-0.027,0.151l-0.026,0.151l-0.025,0.151l-0.023,0.152l-0.023,0.152l-0.022,0.152l-0.021,0.153l-0.02,0.153l-0.02,0.153l-0.018,0.154l-0.017,0.154l-0.016,0.154l-0.016,0.155l-0.014,0.155l-0.013,0.155l-0.013,0.155l-0.011,0.156l-0.011,0.156l-0.009,0.157l-0.009,0.157l-0.007,0.157l-0.007,0.157l-0.005,0.158l-0.005,0.158l-0.004,0.158l-0.002,0.159l-0.002,0.159l0,0.176l0,178.347l0,0.176l0.002,0.159l0.002,0.158l0.004,0.158l0.005,0.159l0.005,0.157l0.007,0.158l0.007,0.157l0.009,0.156l0.009,0.157l0.011,0.156l0.011,0.156l0.013,0.155l0.013,0.156l0.014,0.155l0.016,0.154l0.016,0.154l0.017,0.154l0.018,0.154l0.02,0.153l0.02,0.153l0.021,0.153l0.022,0.152l0.023,0.152l0.023,0.152l0.025,0.152l0.026,0.151l0.027,0.15l0.027,0.151l0.029,0.15l0.029,0.15l0.03,0.149l0.032,0.149l0.032,0.149l0.033,0.149l0.034,0.148l0.034,0.148l0.036,0.147l0.037,0.147l0.037,0.147l0.039,0.147l0.039,0.146l0.04,0.145l0.041,0.146l0.042,0.145l0.043,0.145l0.044,0.144l0.044,0.144l0.046,0.144l0.046,0.143l0.047,0.143l0.048,0.142l0.049,0.143l0.05,0.141l0.05,0.142l0.052,0.141l0.052,0.141l0.053,0.14l0.054,0.14l0.055,0.139l0.056,0.14l0.056,0.138l0.057,0.139l0.058,0.138l0.059,0.137l0.06,0.137l0.061,0.137l0.061,0.136l0.062,0.136l0.063,0.136l0.064,0.135l0.065,0.135l0.065,0.134l0.067,0.134l0.067,0.134l0.067,0.132l0.069,0.133l0.07,0.132l0.07,0.132l0.071,0.131l0.072,0.131l0.072,0.13l0.074,0.13l0.074,0.129l0.075,0.129l0.075,0.129l0.077,0.128l0.077,0.127l0.078,0.128l0.079,0.126l0.079,0.126l0.08,0.125l0.081,0.126l0.082,0.124l0.082,0.124l0.084,0.124l0.083,0.123l0.085,0.123l0.085,0.122l0.086,0.121l0.087,0.122l0.088,0.12l0.088,0.121l0.089,0.119l0.089,0.118l0.091,0.119l0.091,0.118l0.092,0.117l0.092,0.117l0.094,0.117l0.093,0.115l0.095,0.115l0.095,0.114l0.096,0.115l0.096,0.113l0.098,0.113l0.098,0.112l0.098,0.112l0.099,0.11l0.1,0.111l0.101,0.11l0.101,0.109l0.102,0.109l0.102,0.108l0.103,0.107l0.104,0.107l0.104,0.107l0.105,0.105l0.106,0.105l0.106,0.104l0.107,0.104l0.108,0.104l0.108,0.102l0.109,0.102l0.109,0.101l0.109,0.1l0.111,0.1l0.111,0.099l0.112,0.099l0.112,0.098l0.113,0.097l0.113,0.097l0.114,0.096l0.115,0.095l0.115,0.094l0.115,0.094l0.117,0.093l0.116,0.093l0.118,0.091l0.118,0.092l0.118,0.09l0.119,0.09l0.12,0.089l0.12,0.088l0.12,0.087l0.121,0.087l0.122,0.086l0.122,0.085l0.123,0.085l0.123,0.084l0.123,0.083l0.125,0.083l0.124,0.081l0.125,0.081l0.125,0.08l0.127,0.08l0.127,0.079l0.127,0.078l0.127,0.077l0.128,0.076l0.129,0.076l0.129,0.075l0.129,0.074l0.13,0.073l0.13,0.073l0.131,0.072l0.131,0.07l0.132,0.071l0.132,0.069l0.132,0.069l0.133,0.068l0.134,0.067l0.134,0.066l0.134,0.066l0.135,0.064l0.135,0.064l0.135,0.063l0.137,0.062l0.136,0.062l0.136,0.06l0.138,0.06l0.137,0.059l0.139,0.058l0.138,0.058l0.138,0.056l0.139,0.055l0.14,0.055l0.14,0.054l0.14,0.053l0.141,0.053l0.141,0.051l0.141,0.05l0.142,0.05l0.142,0.049l0.143,0.048l0.143,0.047l0.143,0.047l0.144,0.045l0.143,0.044l0.145,0.044l0.145,0.043l0.145,0.042l0.146,0.041l0.145,0.04l0.146,0.04l0.146,0.038l0.147,0.037l0.148,0.037l0.147,0.036l0.148,0.035l0.147,0.033l0.149,0.033l0.15,0.033l0.149,0.031l0.149,0.03l0.15,0.03l0.15,0.028l0.15,0.028l0.151,0.026l0.151,0.026l0.152,0.025l0.151,0.024l0.152,0.022l0.153,0.022l0.152,0.021l0.153,0.021l0.154,0.019l0.153,0.018l0.154,0.017l0.154,0.016l0.155,0.016l0.155,0.014l0.155,0.014l0.155,0.012l0.157,0.011l0.155,0.011l0.157,0.009l0.157,0.009l0.157,0.007l0.157,0.007l0.158,0.006l0.157,0.004l0.159,0.004l0.159,0.002l0.158,0.002l0.176,0l301.724,0l0.176,0l0.158,-0.002l0.159,-0.002l0.159,-0.004l0.158,-0.004l0.157,-0.006l0.158,-0.007l0.156,-0.007l0.158,-0.009l0.156,-0.009l0.156,-0.011l0.156,-0.011l0.156,-0.012l0.154,-0.014l0.156,-0.014l0.155,-0.016l0.154,-0.016l0.154,-0.017l0.153,-0.018l0.154,-0.019l0.153,-0.021l0.152,-0.021l0.153,-0.022l0.151,-0.022l0.152,-0.024l0.152,-0.025l0.151,-0.026l0.151,-0.027l0.151,-0.027l0.149,-0.028l0.15,-0.03l0.15,-0.03l0.148,-0.031l0.15,-0.033l0.149,-0.033l0.147,-0.033l0.148,-0.035l0.148,-0.036l0.147,-0.037l0.147,-0.037l0.146,-0.039l0.146,-0.039l0.146,-0.04l0.145,-0.041l0.146,-0.042l0.144,-0.043l0.145,-0.044l0.143,-0.044l0.144,-0.045l0.143,-0.047l0.143,-0.047l0.143,-0.048l0.142,-0.049l0.142,-0.05l0.141,-0.05l0.141,-0.051l0.141,-0.053l0.14,-0.053l0.14,-0.054l0.14,-0.055l0.139,-0.055l0.139,-0.057l0.138,-0.057l0.138,-0.058l0.138,-0.059l0.137,-0.06l0.137,-0.06l0.136,-0.062l0.136,-0.062l0.135,-0.063l0.135,-0.064l0.136,-0.065l0.134,-0.065l0.133,-0.066l0.134,-0.067l0.133,-0.068l0.132,-0.069l0.133,-0.069l0.131,-0.071l0.131,-0.07l0.131,-0.072l0.131,-0.073l0.129,-0.073l0.13,-0.074l0.129,-0.075l0.129,-0.076l0.127,-0.076l0.127,-0.077l0.128,-0.078l0.126,-0.079l0.127,-0.08l0.125,-0.08l0.125,-0.081l0.125,-0.081l0.124,-0.083l0.124,-0.083l0.123,-0.084l0.123,-0.085l0.121,-0.085l0.122,-0.086l0.121,-0.087l0.121,-0.087l0.119,-0.088l0.12,-0.089l0.119,-0.09l0.118,-0.09l0.118,-0.091l0.118,-0.092l0.116,-0.093l0.117,-0.093l0.115,-0.093l0.115,-0.095l0.115,-0.096l0.114,-0.095l0.113,-0.097l0.113,-0.097l0.112,-0.098l0.112,-0.098l0.111,-0.1l0.111,-0.1l0.109,-0.1l0.109,-0.101l0.11,-0.102l0.107,-0.102l0.108,-0.103l0.107,-0.104l0.106,-0.105l0.106,-0.105l0.105,-0.105l0.104,-0.107l0.104,-0.106l0.102,-0.107l0.103,-0.109l0.102,-0.109l0.101,-0.109l0.101,-0.11l0.1,-0.11l0.099,-0.111l0.098,-0.111l0.098,-0.113l0.097,-0.113l0.097,-0.113l0.096,-0.114l0.095,-0.115l0.095,-0.115l0.093,-0.115l0.093,-0.117l0.093,-0.116l0.091,-0.117l0.092,-0.119l0.09,-0.118l0.089,-0.119l0.089,-0.119l0.089,-0.121l0.088,-0.12l0.086,-0.121l0.086,-0.121l0.086,-0.123l0.084,-0.122l0.084,-0.124l0.084,-0.124l0.081,-0.123l0.082,-0.124l0.082,-0.127l0.08,-0.125l0.079,-0.126l0.079,-0.126l0.078,-0.127l0.077,-0.128l0.076,-0.128l0.076,-0.129l0.075,-0.128l0.074,-0.129l0.073,-0.131l0.073,-0.13l0.071,-0.13l0.072,-0.132l0.07,-0.131l0.069,-0.132l0.069,-0.133l0.068,-0.133l0.067,-0.134l0.066,-0.134l0.066,-0.134l0.064,-0.135l0.064,-0.134l0.063,-0.136l0.062,-0.136l0.062,-0.136l0.06,-0.137l0.06,-0.137l0.059,-0.138l0.058,-0.138l0.057,-0.139l0.057,-0.138l0.055,-0.139l0.055,-0.14l0.054,-0.14l0.053,-0.14l0.053,-0.141l0.051,-0.141l0.05,-0.141l0.05,-0.142l0.049,-0.142l0.048,-0.143l0.047,-0.143l0.046,-0.142l0.046,-0.144l0.045,-0.145l0.043,-0.144l0.043,-0.145l0.042,-0.145l0.041,-0.146l0.04,-0.145l0.039,-0.145l0.039,-0.148l0.037,-0.146l0.037,-0.147l0.036,-0.148l0.034,-0.147l0.035,-0.149l0.033,-0.149l0.032,-0.148l0.031,-0.149l0.03,-0.15l0.029,-0.149l0.029,-0.151l0.028,-0.151l0.026,-0.15l0.026,-0.151l0.025,-0.151l0.023,-0.152l0.023,-0.152l0.022,-0.153l0.021,-0.152l0.021,-0.153l0.019,-0.154l0.018,-0.153l0.017,-0.154l0.016,-0.155l0.016,-0.154l0.014,-0.155l0.014,-0.155l0.012,-0.156l0.011,-0.156l0.011,-0.156l0.009,-0.156l0.009,-0.157l0.007,-0.157l0.007,-0.158l0.006,-0.157l0.004,-0.158l0.004,-0.159l0.002,-0.159l0.002,-0.158l0,-0.176l0,-178.348l0,-0.176l-0.002,-0.158l-0.002,-0.159l-0.004,-0.159l-0.004,-0.157l-0.006,-0.158l-0.007,-0.157l-0.007,-0.157l-0.009,-0.157l-0.009,-0.157l-0.011,-0.155l-0.011,-0.157l-0.012,-0.156l-0.014,-0.155l-0.014,-0.155l-0.016,-0.154l-0.016,-0.154l-0.017,-0.154l-0.018,-0.154l-0.019,-0.153l-0.021,-0.153l-0.021,-0.153l-0.022,-0.153l-0.023,-0.152l-0.023,-0.151l-0.025,-0.152l-0.026,-0.15l-0.026,-0.151l-0.028,-0.151l-0.029,-0.151l-0.029,-0.149l-0.03,-0.149l-0.031,-0.15l-0.032,-0.148l-0.033,-0.149l-0.035,-0.148l-0.034,-0.148l-0.036,-0.147l-0.037,-0.147l-0.037,-0.147l-0.039,-0.147l-0.039,-0.146l-0.04,-0.145l-0.041,-0.146l-0.042,-0.145l-0.043,-0.145l-0.043,-0.144l-0.045,-0.145l-0.046,-0.143l-0.046,-0.143l-0.047,-0.143l-0.048,-0.143l-0.049,-0.142l-0.05,-0.142l-0.05,-0.141l-0.051,-0.141l-0.053,-0.141l-0.053,-0.14l-0.054,-0.14l-0.055,-0.14l-0.055,-0.139l-0.056,-0.138l-0.058,-0.138l-0.058,-0.139l-0.059,-0.138l-0.06,-0.137l-0.06,-0.136l-0.062,-0.137l-0.062,-0.136l-0.063,-0.135l-0.064,-0.135l-0.064,-0.135l-0.066,-0.134l-0.066,-0.134l-0.067,-0.134l-0.068,-0.133l-0.069,-0.132l-0.069,-0.132l-0.07,-0.131l-0.072,-0.132l-0.071,-0.131l-0.073,-0.13l-0.073,-0.13l-0.074,-0.13l-0.075,-0.128l-0.076,-0.129l-0.076,-0.128l-0.077,-0.128l-0.078,-0.126l-0.079,-0.127l-0.079,-0.126l-0.08,-0.125l-0.082,-0.126l-0.081,-0.125l-0.082,-0.123l-0.084,-0.124l-0.084,-0.123l-0.084,-0.123l-0.086,-0.122l-0.086,-0.122l-0.086,-0.121l-0.088,-0.12l-0.089,-0.121l-0.089,-0.119l-0.089,-0.119l-0.09,-0.118l-0.091,-0.118l-0.092,-0.117l-0.093,-0.117l-0.093,-0.116l-0.093,-0.116l-0.095,-0.115l-0.095,-0.114l-0.096,-0.115l-0.097,-0.113l-0.097,-0.113l-0.098,-0.112l-0.098,-0.112l-0.099,-0.111l-0.101,-0.11l-0.1,-0.11l-0.101,-0.109l-0.102,-0.109l-0.103,-0.108l-0.103,-0.108l-0.103,-0.106l-0.104,-0.106l-0.105,-0.106l-0.106,-0.105l-0.107,-0.105l-0.106,-0.103l-0.108,-0.103l-0.108,-0.103l-0.108,-0.102l-0.11,-0.101l-0.109,-0.1l-0.111,-0.1l-0.111,-0.099l-0.112,-0.099l-0.112,-0.098l-0.113,-0.097l-0.113,-0.097l-0.114,-0.095l-0.115,-0.096l-0.115,-0.094l-0.115,-0.094l-0.117,-0.093l-0.117,-0.093l-0.117,-0.091l-0.117,-0.091l-0.119,-0.091l-0.119,-0.089l-0.119,-0.089l-0.121,-0.089l-0.12,-0.087l-0.121,-0.087l-0.122,-0.086l-0.122,-0.085l-0.122,-0.085l-0.123,-0.084l-0.124,-0.083l-0.124,-0.082l-0.125,-0.082l-0.125,-0.081l-0.125,-0.08l-0.127,-0.08l-0.126,-0.078l-0.127,-0.078l-0.128,-0.077l-0.128,-0.077l-0.128,-0.076l-0.129,-0.074l-0.13,-0.075l-0.129,-0.073l-0.131,-0.073l-0.131,-0.071l-0.131,-0.071l-0.131,-0.07l-0.132,-0.07l-0.133,-0.068l-0.133,-0.068l-0.134,-0.068l-0.133,-0.066l-0.134,-0.065l-0.135,-0.065l-0.136,-0.064l-0.135,-0.063l-0.136,-0.062l-0.136,-0.061l-0.137,-0.061l-0.137,-0.06l-0.138,-0.059l-0.138,-0.058l-0.138,-0.057l-0.139,-0.056l-0.139,-0.056l-0.14,-0.055l-0.14,-0.054l-0.14,-0.053l-0.141,-0.052l-0.141,-0.052l-0.141,-0.05l-0.142,-0.05l-0.142,-0.049l-0.143,-0.048l-0.143,-0.047l-0.143,-0.046l-0.144,-0.046l-0.143,-0.044l-0.145,-0.044l-0.145,-0.043l-0.145,-0.042l-0.145,-0.041l-0.146,-0.04l-0.146,-0.039l-0.146,-0.039l-0.147,-0.037l-0.147,-0.037l-0.148,-0.035l-0.148,-0.035l-0.148,-0.034l-0.148,-0.033l-0.149,-0.032l-0.149,-0.032l-0.15,-0.03l-0.149,-0.029l-0.151,-0.029l-0.15,-0.027l-0.151,-0.027l-0.151,-0.026l-0.151,-0.024l-0.152,-0.024l-0.152,-0.023l-0.153,-0.022l-0.152,-0.021l-0.153,-0.02l-0.154,-0.019l-0.153,-0.019l-0.154,-0.017l-0.155,-0.016l-0.154,-0.015l-0.155,-0.015l-0.155,-0.013l-0.156,-0.013l-0.156,-0.011l-0.156,-0.011l-0.156,-0.009l-0.157,-0.009l-0.157,-0.007l-0.158,-0.007l-0.157,-0.005l-0.158,-0.005l-0.159,-0.003l-0.158,-0.003l-0.159,-0.001l-0.176,-0.001l-301.723,0Z" style="fill:#424651;"/><path d="M334.841,70.105l0.217,0.002l0.215,0.004l0.216,0.004l0.216,0.007l0.215,0.007l0.215,0.009l0.215,0.01l0.214,0.012l0.214,0.013l0.214,0.014l0.213,0.016l0.214,0.017l0.212,0.018l0.213,0.02l0.212,0.021l0.212,0.022l0.211,0.023l0.212,0.025l0.211,0.027l0.21,0.027l0.21,0.029l0.21,0.03l0.209,0.032l0.209,0.032l0.208,0.034l0.208,0.035l0.208,0.037l0.207,0.038l0.207,0.039l0.206,0.04l0.207,0.042l0.205,0.043l0.205,0.044l0.205,0.045l0.204,0.047l0.204,0.048l0.203,0.049l0.203,0.05l0.202,0.051l0.202,0.053l0.202,0.054l0.201,0.055l0.2,0.057l0.2,0.057l0.199,0.059l0.199,0.06l0.198,0.061l0.198,0.062l0.198,0.064l0.196,0.064l0.196,0.066l0.196,0.067l0.195,0.068l0.195,0.07l0.194,0.07l0.193,0.072l0.193,0.073l0.193,0.073l0.191,0.075l0.192,0.077l0.19,0.077l0.19,0.078l0.19,0.08l0.188,0.08l0.189,0.082l0.187,0.083l0.187,0.084l0.187,0.085l0.185,0.086l0.186,0.087l0.184,0.088l0.184,0.089l0.184,0.091l0.182,0.091l0.182,0.093l0.181,0.093l0.181,0.095l0.18,0.095l0.179,0.097l0.179,0.098l0.178,0.099l0.177,0.099l0.177,0.101l0.176,0.102l0.175,0.103l0.175,0.104l0.174,0.105l0.173,0.105l0.173,0.107l0.172,0.108l0.171,0.109l0.17,0.11l0.17,0.111l0.168,0.111l0.169,0.113l0.168,0.114l0.166,0.115l0.166,0.115l0.166,0.117l0.165,0.118l0.163,0.118l0.164,0.12l0.162,0.12l0.162,0.121l0.161,0.123l0.159,0.123l0.16,0.124l0.159,0.125l0.157,0.126l0.157,0.127l0.156,0.127l0.156,0.129l0.155,0.13l0.154,0.131l0.153,0.131l0.152,0.132l0.151,0.133l0.151,0.134l0.15,0.135l0.149,0.136l0.148,0.137l0.148,0.138l0.146,0.138l0.146,0.139l0.145,0.14l0.144,0.141l0.143,0.142l0.142,0.143l0.142,0.143l0.14,0.144l0.141,0.146l0.138,0.146l0.138,0.146l0.138,0.148l0.136,0.149l0.136,0.149l0.134,0.15l0.134,0.151l0.133,0.152l0.132,0.153l0.131,0.153l0.13,0.154l0.129,0.155l0.128,0.155l0.128,0.157l0.127,0.158l0.125,0.157l0.125,0.16l0.124,0.159l0.123,0.16l0.122,0.162l0.121,0.161l0.119,0.163l0.12,0.164l0.118,0.163l0.117,0.165l0.117,0.166l0.115,0.167l0.114,0.166l0.113,0.168l0.113,0.169l0.111,0.169l0.11,0.17l0.11,0.171l0.108,0.171l0.108,0.172l0.106,0.173l0.106,0.174l0.104,0.174l0.104,0.175l0.102,0.176l0.102,0.176l0.1,0.177l0.099,0.177l0.098,0.179l0.097,0.179l0.096,0.179l0.096,0.181l0.094,0.181l0.093,0.182l0.092,0.182l0.091,0.182l0.09,0.184l0.088,0.185l0.088,0.184l0.087,0.186l0.085,0.186l0.085,0.187l0.083,0.187l0.082,0.187l0.081,0.189l0.08,0.189l0.079,0.19l0.078,0.191l0.076,0.19l0.076,0.192l0.074,0.192l0.073,0.192l0.072,0.193l0.071,0.194l0.07,0.195l0.069,0.195l0.067,0.195l0.066,0.196l0.065,0.197l0.064,0.197l0.063,0.197l0.061,0.198l0.061,0.199l0.059,0.198l0.058,0.201l0.057,0.2l0.055,0.2l0.054,0.202l0.053,0.201l0.052,0.202l0.051,0.203l0.049,0.203l0.048,0.204l0.048,0.205l0.045,0.204l0.044,0.204l0.044,0.205l0.042,0.207l0.04,0.205l0.039,0.207l0.039,0.207l0.036,0.208l0.036,0.208l0.034,0.209l0.033,0.208l0.032,0.209l0.03,0.21l0.029,0.21l0.028,0.209l0.026,0.211l0.025,0.212l0.024,0.211l0.022,0.211l0.022,0.212l0.019,0.213l0.019,0.213l0.017,0.213l0.016,0.213l0.014,0.213l0.013,0.215l0.012,0.214l0.01,0.214l0.009,0.216l0.008,0.215l0.006,0.215l0.005,0.215l0.003,0.216l0.002,0.217l0.001,0.201l0,155.53l-0.055,0.055l-334.125,-1.992l0,-153.593l0.001,-0.201l0.002,-0.217l0.004,-0.215l0.005,-0.216l0.006,-0.216l0.007,-0.215l0.009,-0.214l0.011,-0.215l0.011,-0.214l0.013,-0.214l0.015,-0.214l0.015,-0.213l0.018,-0.213l0.018,-0.213l0.02,-0.212l0.021,-0.212l0.022,-0.212l0.024,-0.211l0.025,-0.211l0.026,-0.211l0.028,-0.21l0.029,-0.21l0.031,-0.21l0.031,-0.209l0.033,-0.208l0.034,-0.209l0.036,-0.208l0.037,-0.207l0.038,-0.207l0.039,-0.207l0.041,-0.206l0.042,-0.206l0.043,-0.205l0.044,-0.205l0.046,-0.205l0.047,-0.204l0.048,-0.203l0.049,-0.203l0.051,-0.203l0.052,-0.202l0.053,-0.202l0.054,-0.201l0.055,-0.201l0.057,-0.2l0.058,-0.199l0.059,-0.199l0.061,-0.199l0.061,-0.198l0.063,-0.198l0.064,-0.197l0.065,-0.196l0.066,-0.196l0.067,-0.196l0.069,-0.195l0.07,-0.194l0.071,-0.194l0.072,-0.193l0.073,-0.193l0.074,-0.192l0.075,-0.191l0.077,-0.191l0.078,-0.19l0.079,-0.19l0.08,-0.189l0.081,-0.189l0.082,-0.188l0.083,-0.187l0.084,-0.187l0.086,-0.186l0.087,-0.185l0.087,-0.185l0.089,-0.184l0.09,-0.184l0.091,-0.183l0.092,-0.182l0.093,-0.182l0.094,-0.18l0.095,-0.181l0.096,-0.18l0.097,-0.178l0.098,-0.179l0.1,-0.177l0.1,-0.177l0.101,-0.177l0.103,-0.175l0.103,-0.175l0.104,-0.174l0.106,-0.174l0.106,-0.173l0.108,-0.172l0.108,-0.171l0.11,-0.171l0.11,-0.17l0.111,-0.169l0.113,-0.169l0.113,-0.168l0.114,-0.167l0.115,-0.166l0.117,-0.166l0.117,-0.165l0.118,-0.164l0.119,-0.163l0.12,-0.163l0.121,-0.162l0.122,-0.161l0.123,-0.16l0.124,-0.16l0.124,-0.159l0.126,-0.158l0.126,-0.157l0.128,-0.157l0.128,-0.155l0.13,-0.155l0.13,-0.155l0.131,-0.153l0.132,-0.152l0.133,-0.152l0.133,-0.151l0.135,-0.15l0.135,-0.15l0.137,-0.148l0.137,-0.148l0.138,-0.147l0.139,-0.146l0.14,-0.145l0.141,-0.144l0.141,-0.144l0.142,-0.143l0.144,-0.141l0.144,-0.141l0.145,-0.141l0.145,-0.139l0.147,-0.138l0.147,-0.138l0.149,-0.137l0.149,-0.135l0.149,-0.135l0.151,-0.134l0.151,-0.133l0.153,-0.133l0.153,-0.131l0.154,-0.131l0.154,-0.129l0.156,-0.129l0.156,-0.128l0.157,-0.127l0.158,-0.126l0.158,-0.125l0.159,-0.124l0.161,-0.123l0.16,-0.122l0.162,-0.122l0.162,-0.12l0.164,-0.12l0.163,-0.118l0.165,-0.118l0.165,-0.116l0.166,-0.116l0.167,-0.115l0.168,-0.114l0.168,-0.112l0.169,-0.112l0.17,-0.111l0.17,-0.11l0.171,-0.109l0.172,-0.107l0.173,-0.107l0.173,-0.106l0.174,-0.105l0.174,-0.104l0.176,-0.103l0.176,-0.102l0.176,-0.1l0.178,-0.1l0.178,-0.099l0.179,-0.098l0.179,-0.096l0.18,-0.096l0.181,-0.095l0.181,-0.093l0.182,-0.093l0.182,-0.091l0.184,-0.091l0.184,-0.089l0.184,-0.088l0.185,-0.087l0.186,-0.086l0.186,-0.085l0.187,-0.084l0.188,-0.083l0.188,-0.082l0.189,-0.08l0.189,-0.08l0.191,-0.078l0.19,-0.077l0.191,-0.076l0.192,-0.076l0.192,-0.073l0.193,-0.073l0.194,-0.072l0.194,-0.07l0.194,-0.069l0.195,-0.069l0.196,-0.067l0.196,-0.065l0.197,-0.065l0.197,-0.064l0.198,-0.062l0.199,-0.061l0.199,-0.06l0.199,-0.059l0.2,-0.057l0.2,-0.057l0.201,-0.055l0.201,-0.054l0.202,-0.053l0.203,-0.051l0.202,-0.05l0.204,-0.049l0.203,-0.048l0.205,-0.047l0.204,-0.045l0.205,-0.044l0.206,-0.043l0.206,-0.042l0.206,-0.04l0.207,-0.039l0.207,-0.038l0.208,-0.037l0.208,-0.035l0.209,-0.034l0.208,-0.032l0.21,-0.032l0.21,-0.03l0.21,-0.029l0.21,-0.027l0.211,-0.027l0.211,-0.024l0.211,-0.024l0.212,-0.022l0.212,-0.021l0.213,-0.02l0.213,-0.018l0.213,-0.017l0.214,-0.016l0.213,-0.014l0.214,-0.013l0.215,-0.012l0.214,-0.01l0.215,-0.009l0.216,-0.007l0.215,-0.007l0.216,-0.004l0.216,-0.004l0.216,-0.002l0.202,-0.001l266.761,0l0.202,0.001Zm-266.934,18.438l-0.113,0l-0.099,0.001l-0.099,0.002l-0.099,0.002l-0.098,0.003l-0.098,0.003l-0.098,0.004l-0.097,0.005l-0.098,0.005l-0.097,0.006l-0.097,0.007l-0.097,0.007l-0.096,0.008l-0.097,0.008l-0.096,0.009l-0.096,0.009l-0.096,0.01l-0.096,0.011l-0.095,0.011l-0.095,0.012l-0.095,0.012l-0.095,0.013l-0.094,0.014l-0.095,0.014l-0.094,0.015l-0.094,0.015l-0.093,0.016l-0.094,0.017l-0.093,0.017l-0.093,0.017l-0.093,0.018l-0.093,0.019l-0.092,0.019l-0.093,0.02l-0.092,0.021l-0.092,0.021l-0.091,0.021l-0.092,0.022l-0.091,0.023l-0.091,0.023l-0.091,0.024l-0.09,0.024l-0.091,0.025l-0.09,0.025l-0.09,0.026l-0.09,0.027l-0.089,0.026l-0.089,0.028l-0.089,0.028l-0.089,0.029l-0.089,0.029l-0.088,0.029l-0.088,0.031l-0.088,0.03l-0.088,0.032l-0.088,0.031l-0.087,0.033l-0.087,0.032l-0.087,0.034l-0.086,0.034l-0.087,0.034l-0.086,0.035l-0.085,0.035l-0.086,0.036l-0.085,0.037l-0.085,0.037l-0.085,0.037l-0.085,0.038l-0.084,0.038l-0.084,0.039l-0.084,0.04l-0.084,0.04l-0.083,0.04l-0.083,0.041l-0.083,0.042l-0.083,0.042l-0.082,0.042l-0.082,0.043l-0.082,0.043l-0.081,0.044l-0.081,0.045l-0.081,0.045l-0.08,0.045l-0.081,0.046l-0.08,0.046l-0.08,0.047l-0.079,0.047l-0.079,0.048l-0.079,0.048l-0.079,0.049l-0.078,0.049l-0.078,0.05l-0.078,0.05l-0.077,0.05l-0.077,0.051l-0.077,0.052l-0.076,0.051l-0.077,0.053l-0.076,0.053l-0.075,0.053l-0.075,0.054l-0.075,0.054l-0.075,0.054l-0.074,0.055l-0.074,0.056l-0.073,0.056l-0.073,0.056l-0.073,0.057l-0.073,0.057l-0.072,0.058l-0.072,0.058l-0.071,0.058l-0.072,0.059l-0.07,0.06l-0.071,0.059l-0.07,0.061l-0.069,0.06l-0.07,0.061l-0.069,0.061l-0.068,0.062l-0.069,0.062l-0.067,0.063l-0.068,0.063l-0.067,0.063l-0.067,0.064l-0.066,0.064l-0.066,0.065l-0.066,0.065l-0.065,0.065l-0.065,0.066l-0.064,0.066l-0.064,0.066l-0.064,0.067l-0.063,0.067l-0.063,0.068l-0.062,0.068l-0.062,0.068l-0.062,0.069l-0.061,0.069l-0.06,0.069l-0.061,0.07l-0.06,0.07l-0.059,0.071l-0.059,0.07l-0.059,0.072l-0.058,0.071l-0.058,0.072l-0.057,0.072l-0.057,0.072l-0.056,0.073l-0.056,0.073l-0.056,0.074l-0.055,0.074l-0.055,0.074l-0.054,0.074l-0.054,0.075l-0.053,0.075l-0.053,0.075l-0.053,0.076l-0.052,0.076l-0.051,0.076l-0.051,0.077l-0.051,0.077l-0.05,0.077l-0.05,0.078l-0.049,0.077l-0.048,0.078l-0.049,0.079l-0.047,0.078l-0.048,0.079l-0.047,0.08l-0.046,0.079l-0.046,0.08l-0.045,0.08l-0.045,0.08l-0.044,0.081l-0.044,0.081l-0.044,0.081l-0.043,0.081l-0.042,0.082l-0.042,0.082l-0.042,0.082l-0.04,0.082l-0.041,0.083l-0.04,0.083l-0.039,0.083l-0.039,0.083l-0.039,0.084l-0.038,0.084l-0.037,0.084l-0.037,0.084l-0.036,0.085l-0.036,0.085l-0.036,0.085l-0.034,0.085l-0.035,0.086l-0.034,0.086l-0.033,0.086l-0.033,0.086l-0.032,0.086l-0.032,0.087l-0.031,0.087l-0.03,0.087l-0.031,0.088l-0.029,0.087l-0.029,0.088l-0.029,0.088l-0.028,0.088l-0.027,0.089l-0.027,0.088l-0.026,0.089l-0.026,0.089l-0.026,0.09l-0.024,0.089l-0.025,0.09l-0.023,0.09l-0.023,0.09l-0.023,0.09l-0.022,0.091l-0.021,0.091l-0.021,0.09l-0.021,0.092l-0.02,0.091l-0.019,0.092l-0.018,0.091l-0.019,0.092l-0.017,0.092l-0.017,0.093l-0.017,0.093l-0.015,0.092l-0.016,0.093l-0.014,0.094l-0.014,0.093l-0.014,0.093l-0.013,0.094l-0.012,0.094l-0.012,0.094l-0.011,0.095l-0.011,0.094l-0.01,0.095l-0.009,0.095l-0.009,0.095l-0.009,0.096l-0.007,0.095l-0.007,0.096l-0.007,0.096l-0.006,0.097l-0.005,0.096l-0.005,0.097l-0.004,0.096l-0.003,0.097l-0.003,0.098l-0.002,0.097l-0.002,0.098l-0.001,0.098l0,0.113l0,135.234l297.302,1.773l0,-137.007l0,-0.113l-0.001,-0.098l-0.002,-0.097l-0.002,-0.098l-0.003,-0.098l-0.003,-0.097l-0.004,-0.096l-0.005,-0.097l-0.005,-0.097l-0.006,-0.095l-0.006,-0.096l-0.007,-0.097l-0.008,-0.095l-0.008,-0.095l-0.009,-0.095l-0.01,-0.096l-0.01,-0.094l-0.01,-0.095l-0.012,-0.094l-0.011,-0.094l-0.013,-0.095l-0.013,-0.093l-0.013,-0.094l-0.014,-0.093l-0.015,-0.094l-0.015,-0.093l-0.016,-0.092l-0.017,-0.093l-0.016,-0.092l-0.018,-0.092l-0.018,-0.093l-0.019,-0.09l-0.019,-0.092l-0.02,-0.092l-0.02,-0.092l-0.021,-0.09l-0.022,-0.09l-0.022,-0.092l-0.022,-0.089l-0.023,-0.091l-0.024,-0.09l-0.024,-0.089l-0.025,-0.09l-0.025,-0.089l-0.026,-0.088l-0.027,-0.09l-0.027,-0.089l-0.027,-0.088l-0.028,-0.088l-0.029,-0.089l-0.029,-0.087l-0.029,-0.088l-0.031,-0.088l-0.03,-0.086l-0.031,-0.087l-0.032,-0.086l-0.032,-0.087l-0.033,-0.087l-0.033,-0.086l-0.034,-0.085l-0.035,-0.086l-0.034,-0.085l-0.036,-0.085l-0.036,-0.085l-0.036,-0.084l-0.037,-0.086l-0.037,-0.084l-0.038,-0.083l-0.039,-0.084l-0.038,-0.083l-0.04,-0.084l-0.04,-0.083l-0.04,-0.082l-0.041,-0.083l-0.042,-0.082l-0.042,-0.082l-0.042,-0.081l-0.043,-0.081l-0.044,-0.082l-0.044,-0.081l-0.044,-0.08l-0.045,-0.081l-0.045,-0.08l-0.046,-0.079l-0.046,-0.08l-0.047,-0.079l-0.047,-0.079l-0.048,-0.078l-0.049,-0.079l-0.048,-0.078l-0.049,-0.078l-0.05,-0.077l-0.05,-0.077l-0.051,-0.078l-0.051,-0.076l-0.051,-0.076l-0.053,-0.077l-0.052,-0.075l-0.053,-0.075l-0.053,-0.075l-0.054,-0.076l-0.054,-0.073l-0.055,-0.075l-0.055,-0.074l-0.055,-0.073l-0.057,-0.073l-0.056,-0.073l-0.057,-0.072l-0.058,-0.073l-0.057,-0.072l-0.058,-0.07l-0.059,-0.072l-0.059,-0.071l-0.06,-0.07l-0.06,-0.07l-0.06,-0.07l-0.061,-0.069l-0.06,-0.069l-0.063,-0.069l-0.062,-0.069l-0.062,-0.067l-0.062,-0.068l-0.064,-0.067l-0.064,-0.067l-0.063,-0.066l-0.065,-0.067l-0.065,-0.065l-0.065,-0.066l-0.065,-0.065l-0.066,-0.064l-0.067,-0.064l-0.066,-0.064l-0.068,-0.064l-0.068,-0.063l-0.067,-0.062l-0.068,-0.062l-0.069,-0.062l-0.069,-0.062l-0.069,-0.061l-0.07,-0.06l-0.07,-0.06l-0.071,-0.06l-0.07,-0.059l-0.071,-0.059l-0.072,-0.059l-0.072,-0.058l-0.072,-0.058l-0.073,-0.057l-0.072,-0.056l-0.074,-0.057l-0.073,-0.056l-0.074,-0.055l-0.075,-0.055l-0.074,-0.055l-0.075,-0.054l-0.075,-0.054l-0.075,-0.053l-0.076,-0.053l-0.077,-0.052l-0.076,-0.052l-0.076,-0.051l-0.078,-0.052l-0.078,-0.05l-0.077,-0.05l-0.078,-0.05l-0.078,-0.049l-0.079,-0.048l-0.079,-0.049l-0.079,-0.048l-0.079,-0.047l-0.081,-0.047l-0.079,-0.046l-0.081,-0.046l-0.081,-0.045l-0.081,-0.045l-0.08,-0.044l-0.082,-0.044l-0.082,-0.044l-0.082,-0.043l-0.082,-0.042l-0.083,-0.042l-0.083,-0.042l-0.082,-0.041l-0.084,-0.04l-0.084,-0.04l-0.083,-0.04l-0.084,-0.038l-0.085,-0.039l-0.084,-0.038l-0.085,-0.037l-0.085,-0.037l-0.086,-0.037l-0.085,-0.036l-0.086,-0.035l-0.086,-0.035l-0.087,-0.034l-0.086,-0.034l-0.087,-0.034l-0.087,-0.032l-0.087,-0.033l-0.088,-0.031l-0.088,-0.032l-0.088,-0.03l-0.087,-0.03l-0.089,-0.03l-0.089,-0.029l-0.089,-0.029l-0.089,-0.028l-0.089,-0.027l-0.089,-0.027l-0.09,-0.027l-0.09,-0.026l-0.091,-0.025l-0.09,-0.025l-0.09,-0.024l-0.091,-0.024l-0.091,-0.023l-0.091,-0.023l-0.092,-0.022l-0.092,-0.021l-0.092,-0.021l-0.092,-0.021l-0.092,-0.02l-0.092,-0.019l-0.093,-0.019l-0.093,-0.018l-0.093,-0.017l-0.094,-0.017l-0.093,-0.017l-0.093,-0.016l-0.095,-0.015l-0.094,-0.015l-0.094,-0.014l-0.095,-0.014l-0.094,-0.013l-0.096,-0.012l-0.095,-0.012l-0.095,-0.011l-0.096,-0.011l-0.096,-0.01l-0.095,-0.009l-0.097,-0.009l-0.096,-0.008l-0.097,-0.008l-0.096,-0.007l-0.097,-0.007l-0.098,-0.006l-0.097,-0.005l-0.098,-0.005l-0.098,-0.004l-0.098,-0.003l-0.098,-0.003l-0.098,-0.002l-0.099,-0.002l-0.099,-0.001l-0.114,0l-266.703,0Z" style="fill:#424651;"/><path d="M317.976,215.465l-231.837,0c-14.816,0 -26.936,-12.12 -26.936,-26.933l0,-54.269c0,-14.816 12.12,-26.936 26.936,-26.936l231.837,0c14.814,0 26.933,12.12 26.933,26.936l0,54.269c0,14.813 -12.119,26.933 -26.933,26.933Z" style="fill:#f9cf67;fill-rule:nonzero;"/><path d="M131.117,255.322l-41.996,51.398l-15.374,-12.562l41.996,-51.398l15.374,12.562Z" style="fill:#424651;"/><path d="M340.834,296.279l-15.156,12.824l-45.397,-53.65l15.156,-12.824l45.397,53.65Z" style="fill:#424651;"/><path d="M263.054,274.74c0,6.555 -5.479,11.87 -12.24,11.87c-6.757,0 -12.237,-5.315 -12.237,-11.87c0,-6.558 5.48,-11.873 12.237,-11.873c6.761,0 12.24,5.315 12.24,11.873Z" style="fill:#424651;fill-rule:nonzero;"/><path d="M290.028,280.337c0,3.465 -2.893,6.273 -6.467,6.273c-3.571,0 -6.473,-2.808 -6.473,-6.273c0,-3.465 2.902,-6.274 6.473,-6.274c3.574,0 6.467,2.809 6.467,6.274Z" style="fill:#424651;fill-rule:nonzero;"/><path d="M151.68,274.74c0,6.555 5.479,11.87 12.24,11.87c6.757,0 12.239,-5.315 12.239,-11.87c0,-6.558 -5.482,-11.873 -12.239,-11.873c-6.761,0 -12.24,5.315 -12.24,11.873Z" style="fill:#424651;fill-rule:nonzero;"/><path d="M123.43,278.279c0,3.462 2.897,6.273 6.467,6.273c3.574,0 6.468,-2.811 6.468,-6.273c0,-3.466 -2.894,-6.277 -6.468,-6.277c-3.57,0 -6.467,2.811 -6.467,6.277Z" style="fill:#424651;fill-rule:nonzero;"/><path d="M115.279,113.3l0.318,0.003l0.317,0.005l0.318,0.007l0.316,0.008l0.316,0.011l0.316,0.013l0.316,0.014l0.315,0.017l0.314,0.018l0.314,0.02l0.314,0.023l0.313,0.024l0.312,0.026l0.312,0.027l0.312,0.03l0.311,0.032l0.31,0.033l0.31,0.036l0.309,0.037l0.309,0.039l0.308,0.041l0.308,0.042l0.307,0.045l0.307,0.046l0.306,0.049l0.305,0.05l0.305,0.051l0.304,0.054l0.304,0.056l0.302,0.057l0.303,0.059l0.301,0.061l0.301,0.062l0.301,0.065l0.299,0.066l0.299,0.068l0.299,0.069l0.297,0.072l0.297,0.073l0.296,0.075l0.296,0.076l0.295,0.079l0.294,0.08l0.294,0.082l0.292,0.083l0.292,0.085l0.291,0.087l0.291,0.089l0.29,0.09l0.288,0.092l0.289,0.094l0.287,0.095l0.287,0.097l0.285,0.099l0.285,0.1l0.285,0.102l0.283,0.103l0.283,0.106l0.281,0.106l0.281,0.109l0.28,0.11l0.28,0.111l0.278,0.114l0.278,0.115l0.276,0.116l0.276,0.118l0.275,0.12l0.274,0.121l0.273,0.123l0.273,0.124l0.271,0.126l0.271,0.127l0.269,0.129l0.269,0.131l0.268,0.132l0.266,0.133l0.266,0.135l0.265,0.137l0.264,0.138l0.263,0.14l0.262,0.141l0.261,0.142l0.261,0.144l0.259,0.146l0.258,0.147l0.257,0.149l0.256,0.15l0.256,0.151l0.254,0.153l0.253,0.154l0.252,0.156l0.251,0.157l0.25,0.159l0.249,0.16l0.248,0.161l0.247,0.163l0.246,0.165l0.245,0.165l0.244,0.167l0.243,0.169l0.241,0.17l0.241,0.171l0.239,0.173l0.239,0.174l0.237,0.175l0.236,0.177l0.235,0.178l0.234,0.179l0.233,0.181l0.232,0.182l0.23,0.184l0.23,0.184l0.228,0.186l0.227,0.188l0.226,0.189l0.225,0.19l0.223,0.191l0.223,0.192l0.221,0.194l0.22,0.196l0.219,0.196l0.218,0.198l0.216,0.199l0.215,0.2l0.214,0.201l0.213,0.203l0.212,0.204l0.21,0.205l0.209,0.207l0.208,0.207l0.206,0.21l0.206,0.21l0.204,0.211l0.203,0.213l0.201,0.213l0.2,0.215l0.199,0.216l0.198,0.218l0.196,0.218l0.195,0.22l0.194,0.221l0.192,0.222l0.191,0.223l0.19,0.225l0.188,0.225l0.187,0.226l0.186,0.228l0.184,0.229l0.183,0.23l0.182,0.231l0.18,0.233l0.179,0.233l0.177,0.234l0.176,0.236l0.175,0.237l0.173,0.238l0.172,0.238l0.17,0.24l0.169,0.241l0.168,0.242l0.166,0.243l0.164,0.245l0.164,0.245l0.161,0.246l0.16,0.247l0.159,0.249l0.158,0.249l0.155,0.25l0.154,0.252l0.153,0.253l0.152,0.253l0.149,0.254l0.149,0.256l0.146,0.256l0.146,0.257l0.143,0.259l0.142,0.259l0.141,0.26l0.139,0.262l0.137,0.262l0.136,0.263l0.134,0.264l0.133,0.265l0.131,0.266l0.13,0.267l0.127,0.268l0.127,0.269l0.124,0.269l0.123,0.271l0.122,0.271l0.12,0.272l0.118,0.274l0.116,0.273l0.115,0.276l0.113,0.275l0.111,0.277l0.11,0.277l0.108,0.279l0.107,0.279l0.104,0.28l0.103,0.281l0.102,0.281l0.099,0.282l0.098,0.284l0.096,0.284l0.094,0.285l0.093,0.285l0.091,0.286l0.089,0.287l0.087,0.288l0.085,0.289l0.084,0.289l0.082,0.29l0.08,0.291l0.078,0.292l0.077,0.292l0.075,0.292l0.073,0.294l0.071,0.295l0.069,0.294l0.067,0.296l0.066,0.296l0.063,0.298l0.062,0.297l0.06,0.298l0.058,0.299l0.056,0.3l0.054,0.3l0.053,0.301l0.05,0.301l0.049,0.302l0.047,0.303l0.044,0.303l0.043,0.304l0.041,0.304l0.039,0.305l0.037,0.305l0.035,0.306l0.033,0.307l0.031,0.306l0.029,0.308l0.028,0.308l0.025,0.309l0.023,0.309l0.021,0.309l0.019,0.31l0.018,0.31l0.015,0.311l0.013,0.312l0.011,0.311l0.01,0.313l0.007,0.312l0.005,0.313l0.003,0.314l0.001,0.313l-0.001,0.314l-0.003,0.313l-0.005,0.313l-0.007,0.313l-0.01,0.312l-0.011,0.312l-0.013,0.311l-0.015,0.311l-0.018,0.31l-0.019,0.31l-0.021,0.31l-0.023,0.309l-0.025,0.308l-0.028,0.308l-0.029,0.308l-0.031,0.306l-0.033,0.307l-0.035,0.306l-0.037,0.305l-0.039,0.305l-0.041,0.304l-0.043,0.304l-0.044,0.303l-0.047,0.303l-0.049,0.302l-0.05,0.301l-0.053,0.301l-0.054,0.3l-0.056,0.3l-0.058,0.299l-0.06,0.298l-0.062,0.298l-0.063,0.297l-0.066,0.296l-0.067,0.296l-0.069,0.295l-0.071,0.294l-0.073,0.294l-0.075,0.292l-0.077,0.293l-0.078,0.291l-0.08,0.291l-0.082,0.29l-0.084,0.289l-0.085,0.289l-0.087,0.288l-0.089,0.287l-0.091,0.286l-0.093,0.285l-0.094,0.285l-0.096,0.284l-0.098,0.284l-0.099,0.282l-0.102,0.281l-0.103,0.281l-0.104,0.28l-0.107,0.279l-0.108,0.279l-0.11,0.277l-0.111,0.277l-0.113,0.275l-0.115,0.275l-0.116,0.274l-0.118,0.273l-0.12,0.273l-0.122,0.271l-0.123,0.271l-0.124,0.269l-0.127,0.269l-0.128,0.268l-0.129,0.267l-0.131,0.265l-0.133,0.265l-0.134,0.265l-0.136,0.263l-0.137,0.262l-0.139,0.261l-0.141,0.26l-0.142,0.26l-0.144,0.258l-0.145,0.258l-0.147,0.256l-0.148,0.255l-0.149,0.255l-0.152,0.253l-0.153,0.253l-0.154,0.251l-0.156,0.25l-0.157,0.25l-0.159,0.248l-0.16,0.247l-0.162,0.247l-0.163,0.245l-0.164,0.244l-0.167,0.243l-0.167,0.242l-0.169,0.241l-0.17,0.24l-0.172,0.239l-0.173,0.238l-0.175,0.236l-0.176,0.236l-0.178,0.234l-0.178,0.234l-0.18,0.232l-0.182,0.231l-0.183,0.23l-0.184,0.229l-0.186,0.228l-0.187,0.226l-0.188,0.226l-0.19,0.224l-0.191,0.223l-0.193,0.222l-0.193,0.221l-0.195,0.22l-0.196,0.218l-0.198,0.218l-0.199,0.216l-0.2,0.215l-0.202,0.213l-0.203,0.213l-0.204,0.211l-0.205,0.21l-0.207,0.209l-0.207,0.208l-0.209,0.207l-0.211,0.205l-0.211,0.204l-0.213,0.202l-0.214,0.202l-0.215,0.2l-0.217,0.199l-0.217,0.198l-0.219,0.196l-0.22,0.195l-0.222,0.194l-0.222,0.193l-0.224,0.191l-0.225,0.19l-0.225,0.189l-0.228,0.187l-0.228,0.186l-0.229,0.185l-0.231,0.183l-0.231,0.182l-0.233,0.181l-0.234,0.18l-0.235,0.178l-0.236,0.176l-0.238,0.176l-0.238,0.174l-0.239,0.172l-0.241,0.172l-0.242,0.17l-0.242,0.168l-0.244,0.167l-0.245,0.166l-0.246,0.164l-0.247,0.163l-0.248,0.161l-0.249,0.161l-0.25,0.158l-0.251,0.157l-0.252,0.156l-0.254,0.154l-0.254,0.153l-0.255,0.152l-0.256,0.15l-0.258,0.148l-0.258,0.147l-0.259,0.146l-0.26,0.144l-0.261,0.142l-0.262,0.141l-0.263,0.14l-0.264,0.138l-0.265,0.137l-0.266,0.135l-0.267,0.133l-0.268,0.132l-0.268,0.131l-0.27,0.129l-0.27,0.127l-0.272,0.126l-0.272,0.124l-0.273,0.123l-0.275,0.121l-0.274,0.12l-0.276,0.118l-0.277,0.116l-0.277,0.115l-0.279,0.113l-0.279,0.112l-0.28,0.11l-0.281,0.108l-0.282,0.107l-0.282,0.105l-0.284,0.104l-0.284,0.102l-0.285,0.1l-0.286,0.098l-0.286,0.097l-0.288,0.096l-0.288,0.093l-0.289,0.092l-0.29,0.091l-0.29,0.088l-0.291,0.087l-0.292,0.085l-0.293,0.084l-0.293,0.081l-0.294,0.081l-0.295,0.078l-0.296,0.076l-0.296,0.075l-0.297,0.074l-0.298,0.071l-0.298,0.07l-0.299,0.067l-0.3,0.067l-0.3,0.064l-0.301,0.063l-0.302,0.06l-0.302,0.059l-0.303,0.058l-0.303,0.055l-0.304,0.054l-0.305,0.052l-0.306,0.05l-0.305,0.048l-0.307,0.046l-0.307,0.045l-0.308,0.042l-0.308,0.041l-0.309,0.039l-0.309,0.038l-0.31,0.035l-0.311,0.033l-0.31,0.032l-0.312,0.03l-0.312,0.028l-0.313,0.025l-0.313,0.025l-0.313,0.022l-0.314,0.02l-0.314,0.018l-0.315,0.017l-0.316,0.014l-0.316,0.013l-0.316,0.011l-0.316,0.008l-0.318,0.007l-0.317,0.005l-0.318,0.003l-0.318,0.001l-0.319,-0.001l-0.318,-0.003l-0.317,-0.005l-0.317,-0.007l-0.317,-0.008l-0.316,-0.011l-0.316,-0.013l-0.316,-0.014l-0.314,-0.017l-0.315,-0.018l-0.314,-0.02l-0.313,-0.022l-0.313,-0.025l-0.313,-0.025l-0.312,-0.028l-0.311,-0.03l-0.311,-0.032l-0.31,-0.033l-0.31,-0.035l-0.31,-0.038l-0.309,-0.039l-0.308,-0.041l-0.308,-0.042l-0.307,-0.045l-0.306,-0.046l-0.306,-0.048l-0.305,-0.05l-0.305,-0.052l-0.305,-0.054l-0.303,-0.055l-0.303,-0.058l-0.302,-0.059l-0.302,-0.06l-0.301,-0.063l-0.3,-0.064l-0.3,-0.067l-0.299,-0.067l-0.298,-0.07l-0.298,-0.071l-0.297,-0.074l-0.296,-0.075l-0.295,-0.076l-0.295,-0.078l-0.295,-0.081l-0.293,-0.081l-0.293,-0.084l-0.291,-0.085l-0.292,-0.087l-0.29,-0.088l-0.29,-0.091l-0.289,-0.092l-0.288,-0.093l-0.287,-0.096l-0.287,-0.097l-0.286,-0.098l-0.285,-0.1l-0.284,-0.102l-0.283,-0.104l-0.283,-0.105l-0.282,-0.107l-0.281,-0.108l-0.28,-0.11l-0.279,-0.112l-0.279,-0.113l-0.277,-0.115l-0.277,-0.116l-0.276,-0.118l-0.274,-0.12l-0.275,-0.121l-0.273,-0.123l-0.272,-0.124l-0.271,-0.126l-0.271,-0.127l-0.27,-0.129l-0.268,-0.131l-0.268,-0.132l-0.267,-0.133l-0.266,-0.135l-0.264,-0.137l-0.264,-0.138l-0.264,-0.14l-0.262,-0.141l-0.261,-0.142l-0.26,-0.144l-0.259,-0.146l-0.258,-0.147l-0.257,-0.148l-0.257,-0.15l-0.255,-0.152l-0.254,-0.153l-0.253,-0.154l-0.252,-0.156l-0.251,-0.157l-0.251,-0.159l-0.249,-0.16l-0.248,-0.161l-0.247,-0.163l-0.246,-0.164l-0.245,-0.166l-0.243,-0.167l-0.243,-0.168l-0.242,-0.17l-0.24,-0.172l-0.24,-0.172l-0.238,-0.174l-0.237,-0.175l-0.237,-0.177l-0.235,-0.178l-0.234,-0.18l-0.232,-0.181l-0.232,-0.182l-0.231,-0.183l-0.229,-0.185l-0.228,-0.186l-0.227,-0.187l-0.226,-0.189l-0.225,-0.19l-0.224,-0.191l-0.222,-0.193l-0.221,-0.194l-0.221,-0.195l-0.218,-0.196l-0.218,-0.198l-0.216,-0.199l-0.216,-0.2l-0.214,-0.202l-0.213,-0.202l-0.211,-0.204l-0.21,-0.205l-0.209,-0.207l-0.208,-0.208l-0.207,-0.209l-0.205,-0.21l-0.204,-0.211l-0.203,-0.212l-0.201,-0.214l-0.201,-0.215l-0.199,-0.216l-0.197,-0.218l-0.197,-0.218l-0.195,-0.22l-0.193,-0.221l-0.193,-0.222l-0.191,-0.223l-0.189,-0.224l-0.189,-0.226l-0.187,-0.226l-0.186,-0.228l-0.184,-0.229l-0.183,-0.23l-0.181,-0.231l-0.181,-0.232l-0.178,-0.234l-0.178,-0.234l-0.176,-0.236l-0.174,-0.236l-0.174,-0.238l-0.171,-0.239l-0.171,-0.24l-0.169,-0.241l-0.167,-0.242l-0.166,-0.243l-0.165,-0.244l-0.163,-0.245l-0.162,-0.247l-0.16,-0.247l-0.159,-0.248l-0.157,-0.25l-0.156,-0.25l-0.154,-0.251l-0.153,-0.253l-0.151,-0.253l-0.15,-0.255l-0.148,-0.255l-0.147,-0.256l-0.145,-0.258l-0.144,-0.258l-0.142,-0.259l-0.141,-0.261l-0.139,-0.261l-0.137,-0.262l-0.136,-0.263l-0.134,-0.264l-0.133,-0.266l-0.131,-0.265l-0.129,-0.267l-0.128,-0.268l-0.127,-0.269l-0.124,-0.269l-0.123,-0.271l-0.122,-0.271l-0.119,-0.273l-0.118,-0.273l-0.117,-0.274l-0.115,-0.275l-0.113,-0.275l-0.111,-0.277l-0.11,-0.277l-0.108,-0.279l-0.106,-0.279l-0.105,-0.28l-0.103,-0.281l-0.101,-0.281l-0.1,-0.282l-0.098,-0.284l-0.096,-0.284l-0.094,-0.284l-0.092,-0.286l-0.091,-0.286l-0.089,-0.287l-0.088,-0.288l-0.085,-0.289l-0.084,-0.289l-0.082,-0.29l-0.08,-0.291l-0.078,-0.291l-0.077,-0.292l-0.074,-0.293l-0.073,-0.294l-0.071,-0.294l-0.07,-0.295l-0.067,-0.296l-0.065,-0.296l-0.064,-0.297l-0.062,-0.298l-0.06,-0.298l-0.058,-0.299l-0.056,-0.3l-0.054,-0.3l-0.053,-0.301l-0.05,-0.301l-0.049,-0.302l-0.046,-0.303l-0.045,-0.303l-0.043,-0.303l-0.041,-0.305l-0.039,-0.305l-0.037,-0.305l-0.035,-0.306l-0.033,-0.307l-0.031,-0.306l-0.029,-0.308l-0.027,-0.308l-0.026,-0.308l-0.023,-0.309l-0.021,-0.31l-0.019,-0.31l-0.017,-0.31l-0.016,-0.311l-0.013,-0.311l-0.011,-0.312l-0.009,-0.312l-0.007,-0.313l-0.006,-0.313l-0.003,-0.313l-0.001,-0.314l0.001,-0.314l0.003,-0.313l0.006,-0.313l0.007,-0.312l0.009,-0.313l0.011,-0.311l0.013,-0.312l0.016,-0.311l0.017,-0.31l0.019,-0.31l0.021,-0.309l0.023,-0.309l0.026,-0.309l0.027,-0.308l0.029,-0.307l0.031,-0.307l0.033,-0.307l0.035,-0.306l0.037,-0.305l0.039,-0.305l0.041,-0.304l0.043,-0.304l0.045,-0.303l0.046,-0.303l0.049,-0.302l0.05,-0.301l0.053,-0.301l0.054,-0.3l0.056,-0.3l0.058,-0.299l0.06,-0.298l0.062,-0.297l0.064,-0.298l0.065,-0.296l0.067,-0.295l0.07,-0.296l0.071,-0.294l0.073,-0.293l0.074,-0.293l0.077,-0.292l0.078,-0.292l0.08,-0.291l0.082,-0.29l0.084,-0.289l0.085,-0.289l0.088,-0.288l0.089,-0.287l0.09,-0.286l0.093,-0.286l0.094,-0.284l0.096,-0.284l0.098,-0.284l0.1,-0.282l0.101,-0.281l0.103,-0.281l0.105,-0.28l0.106,-0.279l0.108,-0.279l0.11,-0.277l0.111,-0.277l0.113,-0.276l0.115,-0.274l0.117,-0.274l0.118,-0.274l0.119,-0.272l0.122,-0.271l0.123,-0.271l0.124,-0.269l0.127,-0.269l0.128,-0.268l0.129,-0.267l0.131,-0.266l0.133,-0.265l0.134,-0.264l0.136,-0.263l0.137,-0.262l0.139,-0.261l0.141,-0.261l0.142,-0.259l0.144,-0.259l0.145,-0.257l0.147,-0.256l0.148,-0.256l0.15,-0.254l0.151,-0.253l0.153,-0.253l0.154,-0.252l0.156,-0.25l0.157,-0.249l0.159,-0.249l0.16,-0.247l0.162,-0.246l0.163,-0.245l0.165,-0.245l0.166,-0.243l0.167,-0.242l0.169,-0.241l0.17,-0.24l0.172,-0.238l0.173,-0.238l0.175,-0.237l0.176,-0.235l0.177,-0.235l0.179,-0.234l0.181,-0.232l0.181,-0.231l0.183,-0.23l0.184,-0.229l0.186,-0.228l0.187,-0.226l0.188,-0.226l0.19,-0.224l0.191,-0.223l0.192,-0.222l0.194,-0.221l0.195,-0.22l0.196,-0.218l0.198,-0.218l0.199,-0.216l0.2,-0.215l0.202,-0.213l0.202,-0.213l0.204,-0.211l0.206,-0.21l0.207,-0.21l0.207,-0.207l0.209,-0.207l0.211,-0.205l0.211,-0.204l0.213,-0.203l0.214,-0.201l0.215,-0.2l0.217,-0.199l0.217,-0.198l0.219,-0.196l0.22,-0.196l0.221,-0.194l0.223,-0.192l0.224,-0.191l0.224,-0.19l0.226,-0.189l0.227,-0.188l0.229,-0.186l0.229,-0.184l0.231,-0.184l0.231,-0.182l0.233,-0.181l0.234,-0.179l0.235,-0.178l0.236,-0.177l0.238,-0.175l0.238,-0.174l0.239,-0.173l0.241,-0.171l0.242,-0.17l0.242,-0.169l0.244,-0.167l0.245,-0.165l0.246,-0.165l0.247,-0.163l0.248,-0.161l0.249,-0.16l0.25,-0.159l0.251,-0.157l0.252,-0.156l0.254,-0.154l0.254,-0.153l0.255,-0.152l0.256,-0.149l0.257,-0.149l0.259,-0.147l0.259,-0.146l0.26,-0.144l0.261,-0.142l0.262,-0.141l0.263,-0.14l0.264,-0.138l0.265,-0.137l0.266,-0.135l0.267,-0.133l0.267,-0.132l0.269,-0.131l0.27,-0.129l0.27,-0.127l0.271,-0.126l0.273,-0.124l0.273,-0.123l0.274,-0.121l0.275,-0.12l0.276,-0.118l0.277,-0.116l0.277,-0.115l0.279,-0.114l0.279,-0.111l0.28,-0.11l0.281,-0.109l0.282,-0.106l0.282,-0.106l0.284,-0.103l0.284,-0.102l0.285,-0.1l0.286,-0.099l0.286,-0.097l0.288,-0.095l0.288,-0.094l0.289,-0.092l0.29,-0.09l0.29,-0.089l0.291,-0.087l0.292,-0.085l0.293,-0.083l0.293,-0.082l0.294,-0.08l0.295,-0.079l0.296,-0.076l0.296,-0.075l0.297,-0.073l0.298,-0.072l0.298,-0.069l0.299,-0.068l0.3,-0.066l0.3,-0.065l0.301,-0.062l0.302,-0.061l0.302,-0.059l0.303,-0.057l0.303,-0.056l0.304,-0.054l0.305,-0.051l0.306,-0.05l0.305,-0.049l0.307,-0.046l0.307,-0.045l0.308,-0.042l0.308,-0.041l0.309,-0.039l0.309,-0.037l0.31,-0.036l0.311,-0.033l0.311,-0.032l0.311,-0.03l0.312,-0.027l0.313,-0.026l0.313,-0.024l0.313,-0.023l0.314,-0.02l0.315,-0.018l0.314,-0.017l0.316,-0.014l0.316,-0.013l0.316,-0.011l0.317,-0.008l0.317,-0.007l0.317,-0.005l0.318,-0.003l0.319,-0.001l0.318,0.001Zm-0.53,17.372l-0.211,0.002l-0.211,0.004l-0.21,0.004l-0.211,0.006l-0.209,0.007l-0.209,0.008l-0.209,0.01l-0.209,0.011l-0.208,0.012l-0.207,0.013l-0.208,0.015l-0.206,0.016l-0.207,0.017l-0.206,0.019l-0.205,0.019l-0.205,0.021l-0.205,0.022l-0.204,0.023l-0.204,0.025l-0.203,0.026l-0.203,0.026l-0.203,0.029l-0.202,0.029l-0.201,0.03l-0.202,0.032l-0.2,0.033l-0.201,0.034l-0.199,0.035l-0.2,0.037l-0.199,0.037l-0.198,0.039l-0.198,0.04l-0.197,0.041l-0.197,0.042l-0.197,0.044l-0.196,0.044l-0.195,0.046l-0.196,0.047l-0.194,0.048l-0.194,0.049l-0.194,0.05l-0.193,0.051l-0.193,0.053l-0.192,0.053l-0.191,0.055l-0.192,0.056l-0.19,0.056l-0.19,0.058l-0.19,0.059l-0.189,0.061l-0.188,0.061l-0.188,0.062l-0.188,0.064l-0.186,0.064l-0.187,0.066l-0.186,0.066l-0.185,0.068l-0.184,0.069l-0.185,0.07l-0.183,0.07l-0.183,0.072l-0.183,0.073l-0.182,0.074l-0.181,0.075l-0.181,0.076l-0.18,0.077l-0.179,0.078l-0.179,0.08l-0.179,0.08l-0.177,0.081l-0.178,0.082l-0.176,0.083l-0.176,0.084l-0.176,0.086l-0.174,0.086l-0.174,0.087l-0.174,0.088l-0.173,0.089l-0.172,0.09l-0.172,0.091l-0.171,0.093l-0.17,0.092l-0.17,0.094l-0.169,0.096l-0.168,0.095l-0.168,0.097l-0.167,0.098l-0.166,0.099l-0.166,0.099l-0.165,0.101l-0.164,0.102l-0.164,0.102l-0.163,0.103l-0.162,0.105l-0.162,0.105l-0.161,0.106l-0.16,0.107l-0.159,0.108l-0.159,0.109l-0.158,0.109l-0.158,0.111l-0.156,0.112l-0.156,0.112l-0.155,0.113l-0.155,0.114l-0.153,0.115l-0.153,0.116l-0.152,0.117l-0.152,0.117l-0.15,0.119l-0.15,0.119l-0.149,0.12l-0.149,0.121l-0.147,0.122l-0.147,0.122l-0.146,0.124l-0.145,0.124l-0.144,0.125l-0.144,0.126l-0.143,0.126l-0.142,0.128l-0.141,0.128l-0.14,0.129l-0.14,0.13l-0.139,0.131l-0.137,0.131l-0.138,0.132l-0.136,0.133l-0.135,0.134l-0.135,0.134l-0.133,0.135l-0.133,0.136l-0.132,0.137l-0.131,0.137l-0.131,0.139l-0.129,0.139l-0.129,0.14l-0.127,0.14l-0.127,0.141l-0.126,0.142l-0.125,0.142l-0.124,0.144l-0.123,0.144l-0.123,0.144l-0.121,0.146l-0.121,0.146l-0.119,0.146l-0.119,0.148l-0.118,0.148l-0.117,0.149l-0.116,0.149l-0.114,0.15l-0.114,0.151l-0.114,0.151l-0.112,0.152l-0.111,0.153l-0.11,0.153l-0.11,0.154l-0.108,0.155l-0.108,0.155l-0.106,0.156l-0.106,0.157l-0.104,0.157l-0.104,0.158l-0.102,0.158l-0.102,0.159l-0.101,0.16l-0.099,0.16l-0.099,0.16l-0.097,0.162l-0.097,0.162l-0.096,0.162l-0.094,0.163l-0.094,0.164l-0.093,0.164l-0.091,0.165l-0.091,0.165l-0.09,0.166l-0.088,0.167l-0.088,0.167l-0.086,0.167l-0.086,0.169l-0.084,0.168l-0.083,0.169l-0.083,0.17l-0.081,0.17l-0.08,0.171l-0.08,0.171l-0.078,0.172l-0.077,0.172l-0.076,0.173l-0.075,0.174l-0.074,0.173l-0.072,0.175l-0.072,0.175l-0.071,0.175l-0.069,0.176l-0.069,0.176l-0.067,0.177l-0.066,0.177l-0.066,0.178l-0.064,0.178l-0.063,0.179l-0.062,0.179l-0.06,0.18l-0.06,0.18l-0.059,0.181l-0.057,0.181l-0.056,0.181l-0.055,0.182l-0.054,0.182l-0.053,0.183l-0.052,0.184l-0.051,0.183l-0.049,0.184l-0.049,0.185l-0.047,0.185l-0.046,0.186l-0.045,0.186l-0.043,0.186l-0.043,0.187l-0.041,0.187l-0.041,0.187l-0.039,0.188l-0.037,0.189l-0.037,0.189l-0.036,0.189l-0.034,0.19l-0.033,0.19l-0.032,0.191l-0.031,0.19l-0.029,0.192l-0.028,0.192l-0.028,0.192l-0.025,0.192l-0.025,0.193l-0.023,0.194l-0.023,0.193l-0.021,0.194l-0.019,0.195l-0.019,0.195l-0.017,0.195l-0.016,0.196l-0.015,0.196l-0.013,0.197l-0.013,0.197l-0.011,0.197l-0.009,0.198l-0.009,0.198l-0.007,0.198l-0.006,0.199l-0.004,0.199l-0.003,0.2l-0.002,0.2l-0.001,0.2l0.001,0.2l0.002,0.2l0.003,0.2l0.004,0.199l0.006,0.199l0.007,0.198l0.009,0.199l0.009,0.197l0.011,0.197l0.013,0.198l0.013,0.196l0.015,0.196l0.016,0.196l0.017,0.195l0.019,0.195l0.019,0.195l0.021,0.194l0.023,0.193l0.023,0.194l0.025,0.193l0.025,0.192l0.028,0.193l0.028,0.191l0.029,0.192l0.031,0.191l0.032,0.19l0.033,0.19l0.034,0.19l0.036,0.189l0.037,0.189l0.037,0.189l0.039,0.188l0.041,0.187l0.041,0.187l0.043,0.187l0.043,0.186l0.045,0.186l0.046,0.186l0.047,0.185l0.049,0.185l0.049,0.184l0.051,0.183l0.052,0.184l0.053,0.182l0.054,0.183l0.055,0.182l0.056,0.181l0.057,0.181l0.059,0.181l0.06,0.18l0.06,0.18l0.062,0.179l0.063,0.178l0.064,0.179l0.065,0.177l0.067,0.178l0.067,0.176l0.069,0.177l0.069,0.176l0.071,0.175l0.071,0.175l0.073,0.174l0.074,0.174l0.075,0.173l0.076,0.173l0.077,0.172l0.078,0.172l0.08,0.171l0.08,0.171l0.081,0.17l0.082,0.17l0.084,0.169l0.084,0.169l0.086,0.168l0.086,0.168l0.088,0.167l0.088,0.166l0.09,0.166l0.09,0.165l0.092,0.165l0.093,0.164l0.093,0.164l0.095,0.163l0.096,0.162l0.096,0.162l0.098,0.162l0.099,0.16l0.099,0.161l0.101,0.159l0.102,0.159l0.102,0.158l0.104,0.158l0.104,0.157l0.106,0.157l0.106,0.156l0.108,0.155l0.108,0.154l0.109,0.154l0.111,0.154l0.111,0.152l0.112,0.152l0.113,0.152l0.114,0.151l0.115,0.15l0.116,0.149l0.117,0.149l0.118,0.148l0.119,0.147l0.119,0.147l0.121,0.146l0.121,0.145l0.122,0.145l0.124,0.144l0.124,0.143l0.125,0.143l0.126,0.142l0.126,0.141l0.128,0.14l0.129,0.14l0.129,0.139l0.13,0.138l0.132,0.137l0.132,0.137l0.132,0.136l0.134,0.135l0.135,0.135l0.135,0.133l0.136,0.133l0.137,0.132l0.138,0.132l0.139,0.13l0.139,0.13l0.141,0.129l0.141,0.128l0.142,0.128l0.143,0.126l0.143,0.126l0.145,0.125l0.145,0.125l0.146,0.123l0.147,0.122l0.147,0.122l0.148,0.121l0.149,0.12l0.15,0.119l0.151,0.119l0.152,0.117l0.151,0.117l0.153,0.116l0.154,0.115l0.154,0.114l0.156,0.113l0.155,0.112l0.157,0.112l0.157,0.11l0.158,0.11l0.159,0.109l0.159,0.108l0.161,0.107l0.161,0.106l0.161,0.105l0.163,0.104l0.162,0.104l0.164,0.102l0.165,0.102l0.165,0.1l0.165,0.1l0.167,0.099l0.167,0.097l0.167,0.097l0.169,0.096l0.169,0.095l0.169,0.094l0.171,0.093l0.171,0.092l0.171,0.091l0.173,0.09l0.173,0.089l0.173,0.089l0.174,0.087l0.175,0.086l0.175,0.085l0.176,0.084l0.177,0.083l0.177,0.082l0.178,0.082l0.178,0.08l0.179,0.079l0.18,0.078l0.18,0.077l0.181,0.076l0.181,0.075l0.182,0.074l0.182,0.073l0.184,0.072l0.183,0.071l0.184,0.07l0.185,0.068l0.185,0.068l0.186,0.067l0.186,0.065l0.187,0.065l0.188,0.063l0.187,0.062l0.189,0.062l0.189,0.06l0.19,0.059l0.19,0.058l0.19,0.057l0.191,0.055l0.192,0.055l0.192,0.054l0.193,0.052l0.193,0.051l0.193,0.051l0.194,0.049l0.195,0.048l0.195,0.046l0.196,0.046l0.196,0.045l0.196,0.043l0.197,0.042l0.198,0.041l0.198,0.04l0.198,0.039l0.199,0.037l0.2,0.037l0.199,0.035l0.2,0.034l0.201,0.033l0.201,0.032l0.202,0.03l0.202,0.03l0.203,0.028l0.202,0.027l0.204,0.025l0.204,0.025l0.204,0.023l0.205,0.022l0.205,0.021l0.205,0.02l0.206,0.018l0.206,0.017l0.207,0.016l0.208,0.015l0.207,0.013l0.208,0.012l0.209,0.011l0.209,0.01l0.209,0.008l0.209,0.007l0.21,0.006l0.211,0.004l0.211,0.004l0.211,0.002l0.212,0l0.211,0l0.211,-0.002l0.212,-0.004l0.21,-0.004l0.21,-0.006l0.21,-0.007l0.209,-0.008l0.209,-0.01l0.208,-0.011l0.208,-0.012l0.208,-0.013l0.207,-0.015l0.207,-0.016l0.206,-0.017l0.206,-0.018l0.205,-0.02l0.206,-0.021l0.205,-0.022l0.204,-0.023l0.203,-0.025l0.204,-0.025l0.203,-0.027l0.202,-0.028l0.202,-0.03l0.202,-0.03l0.201,-0.032l0.201,-0.033l0.2,-0.034l0.2,-0.035l0.199,-0.037l0.199,-0.037l0.199,-0.039l0.197,-0.04l0.198,-0.041l0.197,-0.042l0.196,-0.043l0.196,-0.045l0.196,-0.046l0.195,-0.046l0.195,-0.048l0.194,-0.049l0.194,-0.051l0.193,-0.051l0.192,-0.052l0.192,-0.054l0.192,-0.055l0.191,-0.055l0.191,-0.057l0.19,-0.058l0.189,-0.059l0.189,-0.06l0.189,-0.062l0.188,-0.062l0.187,-0.063l0.187,-0.065l0.186,-0.065l0.186,-0.067l0.186,-0.068l0.184,-0.068l0.184,-0.07l0.184,-0.071l0.183,-0.072l0.183,-0.073l0.181,-0.074l0.182,-0.075l0.18,-0.076l0.18,-0.077l0.18,-0.078l0.179,-0.079l0.178,-0.08l0.178,-0.082l0.177,-0.082l0.177,-0.083l0.176,-0.084l0.175,-0.085l0.175,-0.086l0.174,-0.087l0.174,-0.089l0.173,-0.089l0.172,-0.09l0.171,-0.091l0.171,-0.092l0.171,-0.093l0.169,-0.094l0.169,-0.095l0.169,-0.096l0.168,-0.097l0.166,-0.097l0.167,-0.099l0.166,-0.1l0.165,-0.1l0.164,-0.102l0.164,-0.102l0.163,-0.104l0.162,-0.104l0.161,-0.105l0.162,-0.106l0.16,-0.107l0.159,-0.108l0.159,-0.109l0.158,-0.11l0.157,-0.11l0.157,-0.112l0.156,-0.112l0.155,-0.113l0.154,-0.114l0.154,-0.115l0.153,-0.116l0.152,-0.117l0.151,-0.117l0.151,-0.119l0.15,-0.119l0.149,-0.12l0.148,-0.121l0.148,-0.122l0.147,-0.122l0.145,-0.123l0.145,-0.125l0.145,-0.125l0.144,-0.126l0.142,-0.126l0.142,-0.128l0.142,-0.128l0.14,-0.129l0.139,-0.13l0.139,-0.13l0.138,-0.132l0.137,-0.132l0.136,-0.133l0.136,-0.133l0.134,-0.135l0.134,-0.135l0.133,-0.136l0.132,-0.137l0.131,-0.137l0.13,-0.138l0.13,-0.139l0.128,-0.14l0.128,-0.14l0.126,-0.141l0.126,-0.142l0.125,-0.143l0.125,-0.143l0.123,-0.144l0.122,-0.144l0.121,-0.146l0.121,-0.146l0.12,-0.147l0.118,-0.147l0.118,-0.148l0.117,-0.149l0.116,-0.149l0.115,-0.15l0.114,-0.151l0.113,-0.152l0.112,-0.151l0.112,-0.153l0.11,-0.154l0.109,-0.153l0.109,-0.155l0.107,-0.156l0.106,-0.155l0.106,-0.157l0.105,-0.157l0.103,-0.158l0.103,-0.158l0.101,-0.159l0.101,-0.159l0.1,-0.161l0.098,-0.161l0.098,-0.161l0.096,-0.161l0.096,-0.163l0.095,-0.163l0.094,-0.164l0.092,-0.164l0.092,-0.165l0.09,-0.165l0.09,-0.166l0.089,-0.167l0.087,-0.166l0.087,-0.168l0.085,-0.168l0.084,-0.169l0.084,-0.169l0.082,-0.17l0.082,-0.17l0.08,-0.17l0.079,-0.172l0.078,-0.172l0.077,-0.172l0.076,-0.173l0.075,-0.173l0.074,-0.174l0.073,-0.174l0.071,-0.175l0.071,-0.175l0.07,-0.176l0.068,-0.177l0.067,-0.176l0.067,-0.178l0.065,-0.177l0.064,-0.178l0.063,-0.179l0.062,-0.18l0.061,-0.179l0.059,-0.18l0.059,-0.181l0.057,-0.181l0.056,-0.181l0.056,-0.182l0.054,-0.183l0.053,-0.182l0.051,-0.184l0.051,-0.183l0.049,-0.184l0.049,-0.185l0.047,-0.185l0.046,-0.186l0.045,-0.185l0.044,-0.187l0.042,-0.187l0.042,-0.187l0.04,-0.187l0.039,-0.188l0.038,-0.189l0.036,-0.189l0.036,-0.189l0.034,-0.19l0.033,-0.19l0.032,-0.191l0.031,-0.19l0.029,-0.192l0.029,-0.191l0.027,-0.192l0.026,-0.193l0.024,-0.193l0.024,-0.194l0.022,-0.193l0.021,-0.194l0.02,-0.195l0.018,-0.195l0.017,-0.195l0.016,-0.196l0.015,-0.196l0.014,-0.196l0.012,-0.198l0.011,-0.197l0.009,-0.197l0.009,-0.199l0.007,-0.198l0.006,-0.199l0.004,-0.199l0.004,-0.2l0.002,-0.199l0,-0.201l0,-0.2l-0.002,-0.2l-0.004,-0.2l-0.004,-0.199l-0.006,-0.199l-0.007,-0.198l-0.009,-0.198l-0.009,-0.198l-0.011,-0.197l-0.012,-0.197l-0.014,-0.197l-0.015,-0.196l-0.016,-0.196l-0.017,-0.195l-0.018,-0.195l-0.02,-0.195l-0.021,-0.194l-0.022,-0.193l-0.024,-0.194l-0.024,-0.193l-0.026,-0.192l-0.027,-0.192l-0.029,-0.192l-0.029,-0.192l-0.031,-0.19l-0.032,-0.191l-0.033,-0.19l-0.034,-0.19l-0.036,-0.189l-0.036,-0.189l-0.038,-0.189l-0.039,-0.188l-0.04,-0.187l-0.042,-0.188l-0.042,-0.186l-0.044,-0.187l-0.045,-0.185l-0.046,-0.186l-0.047,-0.185l-0.049,-0.185l-0.049,-0.184l-0.051,-0.183l-0.051,-0.184l-0.053,-0.183l-0.054,-0.182l-0.056,-0.182l-0.056,-0.181l-0.057,-0.181l-0.059,-0.181l-0.059,-0.18l-0.061,-0.18l-0.062,-0.179l-0.063,-0.179l-0.064,-0.178l-0.065,-0.178l-0.067,-0.177l-0.067,-0.177l-0.068,-0.176l-0.07,-0.176l-0.071,-0.175l-0.071,-0.175l-0.073,-0.174l-0.074,-0.174l-0.075,-0.174l-0.076,-0.173l-0.077,-0.172l-0.078,-0.172l-0.079,-0.171l-0.081,-0.171l-0.081,-0.17l-0.082,-0.17l-0.084,-0.169l-0.084,-0.169l-0.086,-0.168l-0.086,-0.167l-0.088,-0.167l-0.088,-0.167l-0.09,-0.166l-0.09,-0.165l-0.092,-0.165l-0.093,-0.164l-0.093,-0.164l-0.095,-0.163l-0.096,-0.162l-0.096,-0.162l-0.098,-0.161l-0.099,-0.161l-0.099,-0.161l-0.101,-0.159l-0.101,-0.159l-0.103,-0.159l-0.104,-0.157l-0.104,-0.157l-0.106,-0.157l-0.106,-0.155l-0.108,-0.156l-0.108,-0.155l-0.109,-0.154l-0.111,-0.153l-0.111,-0.153l-0.112,-0.152l-0.113,-0.151l-0.114,-0.151l-0.115,-0.15l-0.116,-0.15l-0.117,-0.148l-0.118,-0.148l-0.119,-0.148l-0.119,-0.146l-0.121,-0.147l-0.121,-0.145l-0.122,-0.144l-0.124,-0.144l-0.124,-0.144l-0.125,-0.142l-0.126,-0.142l-0.127,-0.141l-0.127,-0.141l-0.129,-0.139l-0.129,-0.139l-0.131,-0.139l-0.131,-0.137l-0.132,-0.137l-0.132,-0.136l-0.134,-0.135l-0.135,-0.134l-0.135,-0.134l-0.136,-0.133l-0.137,-0.132l-0.138,-0.132l-0.139,-0.13l-0.139,-0.13l-0.141,-0.129l-0.141,-0.128l-0.142,-0.128l-0.143,-0.126l-0.143,-0.126l-0.145,-0.125l-0.145,-0.124l-0.146,-0.124l-0.147,-0.122l-0.147,-0.122l-0.149,-0.121l-0.149,-0.12l-0.15,-0.119l-0.15,-0.119l-0.151,-0.117l-0.153,-0.117l-0.153,-0.116l-0.153,-0.115l-0.155,-0.114l-0.155,-0.113l-0.156,-0.113l-0.156,-0.111l-0.157,-0.11l-0.159,-0.11l-0.158,-0.109l-0.16,-0.108l-0.16,-0.107l-0.161,-0.106l-0.161,-0.105l-0.163,-0.105l-0.163,-0.103l-0.163,-0.103l-0.165,-0.101l-0.165,-0.101l-0.165,-0.099l-0.167,-0.099l-0.167,-0.098l-0.168,-0.097l-0.168,-0.096l-0.169,-0.094l-0.17,-0.094l-0.17,-0.094l-0.171,-0.092l-0.172,-0.091l-0.172,-0.09l-0.173,-0.089l-0.173,-0.088l-0.174,-0.087l-0.175,-0.086l-0.176,-0.086l-0.176,-0.084l-0.176,-0.083l-0.177,-0.082l-0.178,-0.081l-0.178,-0.08l-0.179,-0.08l-0.18,-0.078l-0.18,-0.077l-0.181,-0.076l-0.181,-0.075l-0.182,-0.074l-0.183,-0.073l-0.182,-0.072l-0.184,-0.07l-0.184,-0.07l-0.185,-0.069l-0.185,-0.068l-0.186,-0.066l-0.186,-0.066l-0.187,-0.064l-0.188,-0.064l-0.188,-0.062l-0.188,-0.061l-0.189,-0.061l-0.19,-0.059l-0.19,-0.058l-0.19,-0.056l-0.191,-0.056l-0.192,-0.055l-0.192,-0.053l-0.193,-0.053l-0.193,-0.051l-0.193,-0.05l-0.194,-0.049l-0.195,-0.048l-0.195,-0.047l-0.196,-0.046l-0.196,-0.044l-0.196,-0.044l-0.197,-0.042l-0.198,-0.041l-0.198,-0.04l-0.198,-0.039l-0.199,-0.037l-0.199,-0.037l-0.2,-0.035l-0.2,-0.034l-0.201,-0.033l-0.201,-0.032l-0.202,-0.03l-0.202,-0.029l-0.202,-0.029l-0.203,-0.026l-0.204,-0.026l-0.203,-0.025l-0.205,-0.023l-0.204,-0.022l-0.206,-0.021l-0.205,-0.019l-0.206,-0.019l-0.206,-0.017l-0.207,-0.016l-0.207,-0.015l-0.208,-0.013l-0.208,-0.012l-0.208,-0.011l-0.209,-0.01l-0.209,-0.008l-0.21,-0.007l-0.21,-0.006l-0.211,-0.004l-0.211,-0.004l-0.211,-0.002l-0.211,0l-0.212,0Z" style="fill:#424651;"/><path d="M287.878,113.3l0.318,0.003l0.318,0.005l0.317,0.007l0.316,0.008l0.316,0.011l0.316,0.013l0.316,0.014l0.315,0.017l0.314,0.018l0.314,0.02l0.314,0.023l0.313,0.024l0.312,0.026l0.312,0.027l0.311,0.03l0.311,0.032l0.311,0.033l0.31,0.036l0.309,0.037l0.309,0.039l0.308,0.041l0.308,0.042l0.307,0.045l0.306,0.046l0.306,0.049l0.305,0.05l0.305,0.051l0.304,0.054l0.304,0.056l0.303,0.057l0.302,0.059l0.302,0.061l0.301,0.062l0.3,0.065l0.3,0.066l0.299,0.068l0.298,0.069l0.297,0.072l0.297,0.073l0.297,0.075l0.295,0.077l0.295,0.078l0.294,0.08l0.294,0.082l0.292,0.083l0.292,0.085l0.291,0.087l0.291,0.089l0.289,0.09l0.289,0.092l0.288,0.094l0.288,0.095l0.286,0.097l0.286,0.099l0.285,0.1l0.285,0.102l0.283,0.103l0.282,0.106l0.282,0.106l0.281,0.109l0.28,0.11l0.279,0.112l0.279,0.113l0.277,0.115l0.277,0.116l0.276,0.118l0.275,0.12l0.274,0.121l0.273,0.123l0.272,0.124l0.272,0.126l0.27,0.127l0.27,0.129l0.268,0.131l0.268,0.132l0.267,0.133l0.266,0.135l0.265,0.137l0.263,0.138l0.264,0.14l0.262,0.141l0.261,0.143l0.26,0.143l0.259,0.146l0.258,0.147l0.257,0.149l0.257,0.15l0.255,0.151l0.254,0.153l0.253,0.154l0.252,0.156l0.251,0.157l0.25,0.159l0.249,0.16l0.249,0.162l0.247,0.163l0.245,0.164l0.245,0.165l0.244,0.168l0.243,0.168l0.241,0.17l0.241,0.171l0.239,0.173l0.239,0.174l0.237,0.175l0.236,0.177l0.235,0.178l0.234,0.179l0.233,0.181l0.232,0.182l0.23,0.184l0.229,0.184l0.229,0.186l0.227,0.188l0.226,0.189l0.225,0.19l0.223,0.191l0.223,0.193l0.221,0.194l0.22,0.195l0.219,0.196l0.217,0.198l0.217,0.199l0.215,0.2l0.214,0.202l0.213,0.202l0.211,0.204l0.211,0.206l0.208,0.206l0.208,0.208l0.207,0.209l0.205,0.21l0.205,0.211l0.202,0.213l0.202,0.213l0.2,0.216l0.199,0.216l0.197,0.217l0.197,0.218l0.195,0.22l0.194,0.221l0.191,0.222l0.192,0.223l0.19,0.225l0.188,0.225l0.187,0.227l0.186,0.228l0.184,0.228l0.183,0.23l0.181,0.231l0.18,0.233l0.179,0.233l0.178,0.235l0.176,0.235l0.174,0.237l0.173,0.238l0.172,0.238l0.171,0.24l0.169,0.242l0.167,0.241l0.166,0.243l0.165,0.245l0.163,0.245l0.162,0.246l0.16,0.247l0.158,0.249l0.158,0.25l0.156,0.25l0.154,0.251l0.153,0.253l0.151,0.253l0.15,0.254l0.148,0.256l0.147,0.256l0.145,0.258l0.144,0.258l0.142,0.259l0.14,0.261l0.139,0.261l0.137,0.262l0.136,0.263l0.135,0.264l0.132,0.265l0.132,0.267l0.129,0.266l0.128,0.268l0.126,0.269l0.125,0.27l0.123,0.27l0.121,0.271l0.12,0.273l0.118,0.273l0.116,0.274l0.115,0.274l0.113,0.276l0.112,0.277l0.11,0.278l0.107,0.278l0.107,0.279l0.105,0.28l0.103,0.281l0.101,0.281l0.099,0.282l0.098,0.284l0.096,0.284l0.094,0.284l0.093,0.286l0.091,0.286l0.089,0.287l0.087,0.288l0.086,0.289l0.083,0.289l0.082,0.29l0.08,0.291l0.079,0.292l0.076,0.292l0.075,0.292l0.073,0.294l0.071,0.295l0.069,0.295l0.067,0.295l0.066,0.296l0.063,0.298l0.062,0.297l0.06,0.299l0.058,0.298l0.056,0.3l0.055,0.3l0.052,0.3l0.051,0.302l0.048,0.302l0.047,0.303l0.044,0.303l0.043,0.303l0.041,0.305l0.039,0.305l0.037,0.305l0.035,0.306l0.033,0.306l0.031,0.307l0.03,0.308l0.027,0.308l0.025,0.309l0.023,0.308l0.021,0.31l0.02,0.31l0.017,0.311l0.015,0.31l0.013,0.312l0.011,0.311l0.01,0.312l0.007,0.313l0.005,0.313l0.003,0.313l0.001,0.314l-0.001,0.314l-0.003,0.313l-0.005,0.313l-0.007,0.313l-0.01,0.312l-0.011,0.312l-0.013,0.311l-0.015,0.311l-0.017,0.31l-0.02,0.31l-0.021,0.31l-0.023,0.308l-0.025,0.309l-0.027,0.308l-0.03,0.308l-0.031,0.307l-0.033,0.306l-0.035,0.306l-0.037,0.305l-0.039,0.305l-0.041,0.305l-0.043,0.303l-0.044,0.303l-0.047,0.303l-0.048,0.302l-0.051,0.302l-0.052,0.3l-0.055,0.3l-0.056,0.3l-0.058,0.298l-0.06,0.299l-0.062,0.298l-0.063,0.297l-0.066,0.296l-0.067,0.295l-0.069,0.296l-0.071,0.294l-0.073,0.294l-0.075,0.292l-0.076,0.293l-0.079,0.291l-0.08,0.291l-0.082,0.29l-0.083,0.289l-0.086,0.289l-0.087,0.288l-0.089,0.287l-0.091,0.286l-0.093,0.286l-0.094,0.284l-0.096,0.284l-0.098,0.284l-0.099,0.282l-0.101,0.281l-0.103,0.281l-0.105,0.28l-0.107,0.279l-0.107,0.278l-0.11,0.278l-0.112,0.277l-0.113,0.276l-0.115,0.274l-0.116,0.274l-0.118,0.273l-0.12,0.273l-0.122,0.271l-0.122,0.27l-0.125,0.27l-0.126,0.269l-0.128,0.267l-0.13,0.267l-0.131,0.266l-0.132,0.265l-0.135,0.265l-0.136,0.263l-0.137,0.262l-0.139,0.261l-0.14,0.26l-0.143,0.26l-0.143,0.258l-0.145,0.258l-0.147,0.256l-0.149,0.256l-0.149,0.254l-0.151,0.253l-0.153,0.253l-0.155,0.251l-0.155,0.25l-0.158,0.25l-0.159,0.248l-0.16,0.247l-0.161,0.247l-0.163,0.245l-0.165,0.244l-0.166,0.243l-0.167,0.242l-0.169,0.241l-0.171,0.24l-0.172,0.239l-0.173,0.238l-0.175,0.236l-0.176,0.236l-0.177,0.234l-0.179,0.234l-0.18,0.232l-0.182,0.231l-0.182,0.23l-0.185,0.229l-0.185,0.228l-0.187,0.226l-0.189,0.226l-0.19,0.224l-0.191,0.223l-0.192,0.222l-0.193,0.221l-0.196,0.22l-0.196,0.218l-0.197,0.217l-0.199,0.217l-0.201,0.215l-0.201,0.213l-0.203,0.213l-0.204,0.211l-0.205,0.21l-0.207,0.209l-0.208,0.208l-0.209,0.206l-0.21,0.206l-0.212,0.204l-0.212,0.202l-0.214,0.202l-0.216,0.2l-0.216,0.199l-0.218,0.198l-0.219,0.196l-0.22,0.195l-0.221,0.194l-0.222,0.193l-0.224,0.191l-0.225,0.19l-0.226,0.189l-0.227,0.187l-0.228,0.186l-0.229,0.185l-0.231,0.183l-0.232,0.182l-0.232,0.181l-0.234,0.179l-0.235,0.179l-0.236,0.176l-0.238,0.176l-0.238,0.174l-0.239,0.172l-0.241,0.172l-0.242,0.169l-0.242,0.169l-0.244,0.167l-0.245,0.166l-0.246,0.164l-0.247,0.163l-0.248,0.161l-0.249,0.16l-0.25,0.159l-0.251,0.157l-0.252,0.156l-0.253,0.154l-0.255,0.153l-0.255,0.151l-0.256,0.151l-0.257,0.148l-0.258,0.147l-0.26,0.146l-0.26,0.144l-0.261,0.142l-0.262,0.141l-0.263,0.14l-0.264,0.138l-0.265,0.136l-0.265,0.135l-0.267,0.134l-0.268,0.132l-0.269,0.131l-0.269,0.129l-0.271,0.127l-0.271,0.126l-0.272,0.124l-0.274,0.123l-0.274,0.121l-0.275,0.12l-0.275,0.118l-0.277,0.116l-0.278,0.115l-0.278,0.113l-0.279,0.112l-0.28,0.11l-0.281,0.108l-0.282,0.107l-0.283,0.105l-0.283,0.104l-0.284,0.102l-0.285,0.1l-0.286,0.098l-0.286,0.097l-0.288,0.096l-0.288,0.093l-0.289,0.092l-0.29,0.09l-0.29,0.089l-0.291,0.087l-0.292,0.085l-0.293,0.084l-0.293,0.081l-0.294,0.08l-0.295,0.079l-0.296,0.076l-0.296,0.075l-0.297,0.074l-0.298,0.071l-0.298,0.069l-0.299,0.068l-0.299,0.067l-0.301,0.064l-0.301,0.063l-0.301,0.06l-0.303,0.059l-0.302,0.058l-0.304,0.055l-0.304,0.054l-0.305,0.052l-0.305,0.05l-0.306,0.048l-0.307,0.046l-0.307,0.045l-0.307,0.042l-0.308,0.041l-0.309,0.039l-0.31,0.038l-0.31,0.035l-0.31,0.033l-0.311,0.032l-0.311,0.03l-0.312,0.027l-0.313,0.026l-0.313,0.025l-0.313,0.022l-0.314,0.02l-0.314,0.018l-0.315,0.017l-0.316,0.014l-0.316,0.013l-0.316,0.011l-0.316,0.008l-0.318,0.007l-0.317,0.005l-0.318,0.003l-0.318,0.001l-0.319,-0.001l-0.318,-0.003l-0.317,-0.005l-0.317,-0.007l-0.317,-0.008l-0.316,-0.011l-0.316,-0.013l-0.316,-0.014l-0.314,-0.017l-0.315,-0.018l-0.314,-0.02l-0.313,-0.022l-0.313,-0.025l-0.313,-0.025l-0.312,-0.028l-0.312,-0.03l-0.31,-0.032l-0.311,-0.033l-0.31,-0.035l-0.309,-0.038l-0.309,-0.039l-0.309,-0.041l-0.307,-0.042l-0.307,-0.045l-0.307,-0.046l-0.306,-0.048l-0.305,-0.05l-0.305,-0.052l-0.304,-0.054l-0.304,-0.055l-0.302,-0.057l-0.303,-0.06l-0.301,-0.06l-0.301,-0.063l-0.301,-0.064l-0.3,-0.067l-0.299,-0.067l-0.298,-0.07l-0.297,-0.071l-0.298,-0.074l-0.296,-0.074l-0.295,-0.077l-0.295,-0.078l-0.294,-0.08l-0.294,-0.082l-0.292,-0.084l-0.292,-0.085l-0.292,-0.087l-0.29,-0.088l-0.29,-0.091l-0.289,-0.092l-0.288,-0.093l-0.287,-0.095l-0.287,-0.097l-0.286,-0.099l-0.285,-0.1l-0.284,-0.102l-0.283,-0.104l-0.283,-0.105l-0.282,-0.107l-0.281,-0.108l-0.28,-0.11l-0.279,-0.112l-0.279,-0.113l-0.277,-0.115l-0.277,-0.116l-0.276,-0.118l-0.275,-0.12l-0.274,-0.121l-0.273,-0.123l-0.272,-0.124l-0.272,-0.126l-0.27,-0.127l-0.27,-0.129l-0.269,-0.131l-0.267,-0.132l-0.268,-0.133l-0.265,-0.135l-0.265,-0.137l-0.264,-0.138l-0.263,-0.139l-0.262,-0.142l-0.261,-0.142l-0.261,-0.144l-0.259,-0.146l-0.258,-0.147l-0.257,-0.148l-0.256,-0.15l-0.256,-0.152l-0.254,-0.153l-0.253,-0.154l-0.252,-0.155l-0.251,-0.158l-0.251,-0.158l-0.249,-0.16l-0.248,-0.162l-0.247,-0.163l-0.245,-0.164l-0.245,-0.166l-0.244,-0.167l-0.243,-0.168l-0.241,-0.17l-0.241,-0.171l-0.24,-0.173l-0.238,-0.174l-0.237,-0.175l-0.237,-0.177l-0.235,-0.178l-0.234,-0.18l-0.232,-0.18l-0.232,-0.182l-0.231,-0.184l-0.229,-0.184l-0.228,-0.187l-0.228,-0.187l-0.225,-0.188l-0.225,-0.191l-0.224,-0.191l-0.222,-0.192l-0.222,-0.194l-0.22,-0.196l-0.218,-0.196l-0.218,-0.198l-0.217,-0.199l-0.215,-0.2l-0.214,-0.201l-0.213,-0.203l-0.211,-0.204l-0.211,-0.205l-0.209,-0.207l-0.208,-0.207l-0.206,-0.209l-0.206,-0.211l-0.204,-0.211l-0.202,-0.212l-0.202,-0.214l-0.2,-0.215l-0.199,-0.216l-0.198,-0.218l-0.196,-0.218l-0.195,-0.22l-0.194,-0.22l-0.192,-0.222l-0.191,-0.223l-0.19,-0.225l-0.188,-0.226l-0.187,-0.226l-0.186,-0.228l-0.184,-0.229l-0.183,-0.23l-0.182,-0.231l-0.18,-0.232l-0.179,-0.234l-0.177,-0.234l-0.176,-0.235l-0.175,-0.237l-0.173,-0.238l-0.172,-0.239l-0.17,-0.24l-0.169,-0.241l-0.168,-0.242l-0.166,-0.243l-0.165,-0.244l-0.163,-0.245l-0.161,-0.246l-0.161,-0.248l-0.158,-0.248l-0.158,-0.25l-0.155,-0.25l-0.155,-0.251l-0.153,-0.253l-0.151,-0.253l-0.15,-0.254l-0.148,-0.256l-0.147,-0.256l-0.145,-0.258l-0.144,-0.258l-0.142,-0.259l-0.14,-0.261l-0.139,-0.261l-0.138,-0.262l-0.135,-0.263l-0.135,-0.264l-0.133,-0.266l-0.131,-0.265l-0.129,-0.267l-0.128,-0.268l-0.126,-0.269l-0.125,-0.269l-0.123,-0.271l-0.121,-0.271l-0.12,-0.272l-0.118,-0.273l-0.117,-0.275l-0.114,-0.275l-0.113,-0.275l-0.112,-0.277l-0.11,-0.277l-0.108,-0.279l-0.106,-0.279l-0.105,-0.28l-0.103,-0.28l-0.101,-0.282l-0.1,-0.282l-0.097,-0.284l-0.096,-0.284l-0.095,-0.284l-0.092,-0.286l-0.091,-0.286l-0.089,-0.287l-0.087,-0.288l-0.086,-0.288l-0.084,-0.29l-0.082,-0.29l-0.08,-0.291l-0.078,-0.291l-0.077,-0.293l-0.074,-0.293l-0.073,-0.293l-0.071,-0.294l-0.069,-0.295l-0.068,-0.296l-0.065,-0.297l-0.064,-0.296l-0.062,-0.298l-0.06,-0.298l-0.058,-0.299l-0.056,-0.3l-0.054,-0.3l-0.052,-0.301l-0.051,-0.301l-0.049,-0.302l-0.046,-0.303l-0.045,-0.303l-0.043,-0.304l-0.041,-0.304l-0.039,-0.305l-0.037,-0.305l-0.035,-0.306l-0.033,-0.307l-0.031,-0.306l-0.029,-0.308l-0.027,-0.308l-0.025,-0.308l-0.024,-0.309l-0.021,-0.31l-0.019,-0.31l-0.017,-0.31l-0.016,-0.311l-0.013,-0.311l-0.011,-0.312l-0.009,-0.312l-0.007,-0.313l-0.005,-0.313l-0.003,-0.313l-0.001,-0.314l0.001,-0.313l0.003,-0.314l0.005,-0.313l0.007,-0.312l0.009,-0.313l0.011,-0.311l0.013,-0.312l0.016,-0.311l0.017,-0.31l0.019,-0.31l0.021,-0.31l0.024,-0.308l0.025,-0.309l0.027,-0.308l0.029,-0.308l0.031,-0.306l0.033,-0.307l0.035,-0.306l0.037,-0.305l0.039,-0.305l0.041,-0.304l0.043,-0.304l0.045,-0.303l0.046,-0.303l0.049,-0.302l0.051,-0.301l0.052,-0.301l0.054,-0.3l0.056,-0.3l0.058,-0.299l0.06,-0.298l0.062,-0.297l0.064,-0.297l0.065,-0.297l0.068,-0.296l0.069,-0.294l0.071,-0.295l0.073,-0.293l0.074,-0.293l0.077,-0.293l0.078,-0.291l0.08,-0.291l0.082,-0.29l0.084,-0.289l0.086,-0.289l0.087,-0.288l0.089,-0.287l0.091,-0.286l0.092,-0.286l0.095,-0.284l0.096,-0.284l0.097,-0.284l0.1,-0.282l0.101,-0.282l0.103,-0.28l0.105,-0.28l0.106,-0.279l0.108,-0.279l0.11,-0.277l0.111,-0.277l0.114,-0.275l0.114,-0.275l0.117,-0.275l0.118,-0.273l0.12,-0.272l0.121,-0.271l0.123,-0.271l0.125,-0.27l0.126,-0.268l0.128,-0.268l0.129,-0.267l0.131,-0.266l0.133,-0.265l0.134,-0.264l0.136,-0.263l0.138,-0.262l0.139,-0.262l0.14,-0.26l0.142,-0.259l0.144,-0.259l0.145,-0.257l0.147,-0.256l0.148,-0.256l0.15,-0.254l0.151,-0.253l0.153,-0.253l0.154,-0.252l0.156,-0.25l0.157,-0.249l0.159,-0.249l0.16,-0.247l0.162,-0.246l0.163,-0.245l0.165,-0.245l0.166,-0.243l0.167,-0.242l0.169,-0.241l0.171,-0.24l0.172,-0.239l0.173,-0.237l0.174,-0.237l0.176,-0.236l0.178,-0.234l0.179,-0.234l0.18,-0.232l0.181,-0.231l0.183,-0.23l0.185,-0.229l0.185,-0.228l0.187,-0.226l0.189,-0.226l0.19,-0.224l0.191,-0.223l0.192,-0.222l0.194,-0.221l0.195,-0.22l0.196,-0.218l0.198,-0.218l0.199,-0.216l0.2,-0.215l0.201,-0.214l0.203,-0.212l0.204,-0.211l0.205,-0.211l0.207,-0.209l0.208,-0.207l0.209,-0.207l0.21,-0.205l0.212,-0.204l0.213,-0.203l0.214,-0.201l0.215,-0.2l0.216,-0.199l0.218,-0.198l0.219,-0.197l0.22,-0.195l0.221,-0.194l0.223,-0.192l0.223,-0.192l0.225,-0.19l0.226,-0.188l0.227,-0.188l0.229,-0.186l0.229,-0.184l0.23,-0.184l0.232,-0.182l0.233,-0.181l0.234,-0.179l0.235,-0.178l0.236,-0.177l0.237,-0.175l0.239,-0.174l0.239,-0.173l0.241,-0.171l0.242,-0.17l0.242,-0.169l0.244,-0.167l0.245,-0.166l0.246,-0.164l0.247,-0.163l0.248,-0.161l0.249,-0.16l0.25,-0.159l0.251,-0.157l0.253,-0.156l0.253,-0.154l0.254,-0.153l0.255,-0.152l0.256,-0.15l0.258,-0.148l0.258,-0.147l0.259,-0.146l0.26,-0.144l0.261,-0.142l0.262,-0.142l0.263,-0.139l0.265,-0.138l0.264,-0.137l0.266,-0.135l0.267,-0.133l0.268,-0.133l0.269,-0.13l0.269,-0.129l0.271,-0.127l0.271,-0.126l0.272,-0.124l0.274,-0.123l0.274,-0.122l0.275,-0.119l0.276,-0.118l0.276,-0.117l0.278,-0.114l0.278,-0.114l0.28,-0.111l0.28,-0.11l0.281,-0.109l0.281,-0.106l0.283,-0.106l0.284,-0.103l0.284,-0.102l0.285,-0.1l0.286,-0.099l0.286,-0.097l0.288,-0.095l0.288,-0.094l0.289,-0.092l0.29,-0.09l0.29,-0.089l0.291,-0.087l0.292,-0.085l0.293,-0.083l0.293,-0.082l0.295,-0.08l0.294,-0.079l0.296,-0.076l0.296,-0.075l0.297,-0.073l0.298,-0.072l0.298,-0.069l0.299,-0.068l0.3,-0.066l0.3,-0.065l0.301,-0.062l0.302,-0.061l0.302,-0.059l0.303,-0.057l0.304,-0.056l0.304,-0.054l0.305,-0.051l0.305,-0.05l0.306,-0.049l0.306,-0.046l0.308,-0.045l0.307,-0.042l0.309,-0.041l0.309,-0.039l0.309,-0.037l0.31,-0.036l0.31,-0.033l0.311,-0.032l0.312,-0.03l0.312,-0.027l0.312,-0.026l0.314,-0.024l0.313,-0.023l0.314,-0.02l0.314,-0.018l0.315,-0.017l0.316,-0.014l0.316,-0.013l0.316,-0.011l0.317,-0.008l0.317,-0.007l0.317,-0.005l0.318,-0.003l0.319,-0.001l0.318,0.001Zm-0.53,17.372l-0.211,0.002l-0.211,0.004l-0.21,0.004l-0.211,0.006l-0.209,0.007l-0.21,0.008l-0.208,0.01l-0.209,0.011l-0.208,0.012l-0.208,0.013l-0.207,0.015l-0.207,0.016l-0.206,0.017l-0.206,0.019l-0.206,0.019l-0.205,0.021l-0.204,0.022l-0.205,0.023l-0.204,0.025l-0.203,0.026l-0.203,0.026l-0.202,0.029l-0.202,0.029l-0.202,0.03l-0.202,0.032l-0.2,0.033l-0.2,0.034l-0.2,0.035l-0.2,0.037l-0.199,0.037l-0.198,0.039l-0.198,0.04l-0.198,0.041l-0.196,0.042l-0.197,0.044l-0.196,0.044l-0.196,0.046l-0.195,0.047l-0.194,0.048l-0.195,0.049l-0.193,0.05l-0.193,0.051l-0.193,0.053l-0.192,0.053l-0.192,0.055l-0.191,0.056l-0.19,0.057l-0.191,0.058l-0.189,0.059l-0.189,0.06l-0.189,0.061l-0.188,0.062l-0.187,0.064l-0.187,0.064l-0.186,0.066l-0.186,0.066l-0.186,0.068l-0.184,0.069l-0.184,0.07l-0.184,0.071l-0.183,0.071l-0.182,0.073l-0.182,0.074l-0.182,0.075l-0.18,0.076l-0.181,0.077l-0.179,0.079l-0.179,0.079l-0.179,0.08l-0.177,0.081l-0.178,0.082l-0.176,0.083l-0.176,0.085l-0.176,0.085l-0.174,0.086l-0.174,0.087l-0.174,0.088l-0.173,0.089l-0.172,0.09l-0.172,0.092l-0.171,0.092l-0.17,0.093l-0.17,0.094l-0.169,0.095l-0.168,0.096l-0.168,0.096l-0.167,0.098l-0.167,0.099l-0.165,0.099l-0.165,0.101l-0.165,0.102l-0.163,0.102l-0.163,0.103l-0.163,0.105l-0.161,0.105l-0.161,0.106l-0.16,0.107l-0.16,0.108l-0.159,0.109l-0.158,0.11l-0.157,0.11l-0.157,0.112l-0.155,0.112l-0.156,0.113l-0.154,0.114l-0.154,0.115l-0.152,0.116l-0.153,0.117l-0.151,0.118l-0.151,0.118l-0.149,0.119l-0.15,0.12l-0.148,0.121l-0.147,0.122l-0.147,0.122l-0.146,0.124l-0.145,0.124l-0.145,0.125l-0.143,0.126l-0.143,0.127l-0.142,0.127l-0.141,0.128l-0.141,0.129l-0.139,0.13l-0.139,0.131l-0.138,0.131l-0.137,0.132l-0.136,0.133l-0.136,0.134l-0.134,0.134l-0.134,0.135l-0.133,0.136l-0.132,0.137l-0.131,0.138l-0.13,0.138l-0.13,0.139l-0.128,0.14l-0.128,0.14l-0.127,0.141l-0.126,0.142l-0.125,0.142l-0.124,0.144l-0.123,0.144l-0.122,0.144l-0.122,0.146l-0.12,0.146l-0.12,0.146l-0.119,0.148l-0.117,0.148l-0.117,0.149l-0.116,0.149l-0.115,0.15l-0.114,0.151l-0.113,0.151l-0.113,0.153l-0.111,0.152l-0.11,0.154l-0.11,0.154l-0.108,0.154l-0.107,0.156l-0.107,0.155l-0.105,0.157l-0.105,0.157l-0.103,0.158l-0.103,0.158l-0.102,0.159l-0.1,0.16l-0.1,0.16l-0.099,0.161l-0.097,0.161l-0.097,0.162l-0.096,0.162l-0.094,0.163l-0.094,0.164l-0.093,0.164l-0.091,0.165l-0.091,0.165l-0.089,0.166l-0.089,0.167l-0.087,0.167l-0.087,0.167l-0.086,0.169l-0.084,0.168l-0.083,0.169l-0.083,0.17l-0.081,0.17l-0.08,0.171l-0.079,0.172l-0.079,0.171l-0.077,0.172l-0.076,0.173l-0.075,0.174l-0.073,0.173l-0.073,0.175l-0.072,0.175l-0.071,0.175l-0.069,0.176l-0.069,0.176l-0.067,0.177l-0.066,0.177l-0.066,0.178l-0.064,0.178l-0.063,0.179l-0.061,0.179l-0.061,0.18l-0.06,0.18l-0.058,0.181l-0.058,0.181l-0.056,0.181l-0.055,0.182l-0.054,0.183l-0.053,0.182l-0.052,0.183l-0.051,0.184l-0.049,0.185l-0.048,0.184l-0.048,0.185l-0.046,0.186l-0.044,0.185l-0.044,0.187l-0.043,0.187l-0.041,0.187l-0.04,0.187l-0.039,0.189l-0.038,0.188l-0.037,0.189l-0.035,0.189l-0.035,0.19l-0.033,0.19l-0.032,0.191l-0.03,0.19l-0.03,0.192l-0.028,0.192l-0.027,0.192l-0.026,0.192l-0.025,0.193l-0.023,0.194l-0.023,0.193l-0.02,0.194l-0.02,0.195l-0.019,0.195l-0.017,0.195l-0.016,0.196l-0.015,0.196l-0.013,0.197l-0.012,0.197l-0.011,0.197l-0.01,0.198l-0.008,0.198l-0.008,0.198l-0.005,0.199l-0.005,0.199l-0.003,0.2l-0.002,0.2l-0.001,0.2l0.001,0.201l0.002,0.199l0.003,0.2l0.005,0.199l0.005,0.199l0.008,0.198l0.008,0.198l0.01,0.198l0.011,0.198l0.012,0.197l0.013,0.196l0.015,0.196l0.016,0.196l0.017,0.195l0.019,0.195l0.02,0.195l0.02,0.194l0.023,0.193l0.023,0.194l0.025,0.193l0.026,0.193l0.027,0.192l0.028,0.191l0.03,0.192l0.03,0.19l0.032,0.191l0.033,0.19l0.035,0.19l0.035,0.189l0.037,0.189l0.038,0.188l0.039,0.189l0.04,0.187l0.041,0.187l0.043,0.187l0.044,0.187l0.044,0.185l0.046,0.186l0.048,0.185l0.048,0.184l0.049,0.185l0.051,0.183l0.052,0.184l0.053,0.182l0.054,0.183l0.055,0.182l0.056,0.181l0.058,0.181l0.058,0.181l0.06,0.18l0.061,0.18l0.061,0.179l0.063,0.178l0.064,0.178l0.066,0.178l0.066,0.178l0.067,0.176l0.069,0.177l0.069,0.176l0.071,0.175l0.072,0.175l0.073,0.174l0.073,0.174l0.075,0.173l0.076,0.173l0.077,0.172l0.078,0.172l0.08,0.171l0.08,0.171l0.081,0.17l0.083,0.17l0.083,0.169l0.084,0.169l0.086,0.168l0.086,0.168l0.088,0.166l0.088,0.167l0.09,0.166l0.091,0.165l0.091,0.165l0.093,0.164l0.094,0.164l0.094,0.163l0.096,0.162l0.097,0.162l0.097,0.161l0.099,0.161l0.1,0.161l0.1,0.159l0.102,0.159l0.102,0.158l0.104,0.158l0.104,0.157l0.106,0.157l0.106,0.155l0.108,0.156l0.108,0.154l0.11,0.154l0.11,0.154l0.111,0.152l0.112,0.152l0.113,0.152l0.115,0.151l0.115,0.15l0.115,0.149l0.117,0.149l0.118,0.148l0.119,0.147l0.119,0.147l0.121,0.146l0.122,0.145l0.122,0.145l0.123,0.144l0.124,0.143l0.125,0.143l0.126,0.142l0.127,0.141l0.128,0.14l0.128,0.14l0.129,0.138l0.131,0.139l0.131,0.137l0.132,0.137l0.133,0.136l0.133,0.135l0.135,0.134l0.135,0.134l0.137,0.133l0.137,0.132l0.138,0.132l0.138,0.13l0.14,0.13l0.14,0.129l0.141,0.128l0.142,0.128l0.143,0.126l0.144,0.126l0.144,0.125l0.145,0.124l0.146,0.124l0.147,0.122l0.148,0.122l0.148,0.121l0.149,0.12l0.15,0.119l0.151,0.119l0.151,0.117l0.152,0.117l0.153,0.116l0.154,0.114l0.154,0.115l0.155,0.113l0.156,0.112l0.156,0.112l0.158,0.11l0.158,0.11l0.159,0.109l0.159,0.108l0.16,0.107l0.161,0.106l0.162,0.105l0.162,0.104l0.163,0.104l0.164,0.102l0.164,0.102l0.165,0.1l0.166,0.1l0.166,0.099l0.168,0.097l0.167,0.097l0.169,0.096l0.169,0.095l0.169,0.094l0.171,0.093l0.171,0.092l0.171,0.091l0.172,0.09l0.173,0.089l0.174,0.089l0.174,0.087l0.175,0.086l0.175,0.085l0.176,0.084l0.177,0.083l0.177,0.082l0.178,0.082l0.178,0.08l0.179,0.079l0.18,0.078l0.18,0.077l0.181,0.076l0.181,0.075l0.182,0.074l0.182,0.073l0.184,0.072l0.183,0.071l0.185,0.07l0.184,0.068l0.185,0.068l0.186,0.067l0.187,0.065l0.187,0.065l0.187,0.063l0.188,0.062l0.189,0.062l0.188,0.06l0.19,0.059l0.19,0.058l0.191,0.057l0.191,0.055l0.192,0.055l0.192,0.054l0.192,0.052l0.193,0.051l0.194,0.051l0.194,0.049l0.195,0.047l0.195,0.047l0.196,0.046l0.196,0.045l0.196,0.043l0.197,0.042l0.198,0.041l0.198,0.04l0.198,0.039l0.199,0.037l0.2,0.037l0.199,0.035l0.201,0.034l0.2,0.033l0.202,0.032l0.201,0.03l0.202,0.03l0.203,0.028l0.203,0.027l0.203,0.025l0.204,0.025l0.204,0.023l0.205,0.022l0.205,0.021l0.206,0.02l0.206,0.018l0.206,0.017l0.207,0.016l0.207,0.015l0.208,0.013l0.208,0.012l0.209,0.011l0.208,0.01l0.21,0.008l0.209,0.007l0.21,0.006l0.211,0.004l0.211,0.004l0.211,0.002l0.212,0l0.211,0l0.212,-0.002l0.211,-0.004l0.21,-0.004l0.21,-0.006l0.21,-0.007l0.209,-0.008l0.208,-0.01l0.209,-0.011l0.208,-0.012l0.208,-0.013l0.207,-0.015l0.206,-0.016l0.207,-0.017l0.206,-0.018l0.205,-0.02l0.205,-0.021l0.205,-0.022l0.204,-0.023l0.204,-0.025l0.203,-0.025l0.203,-0.027l0.203,-0.028l0.202,-0.03l0.201,-0.03l0.201,-0.032l0.201,-0.033l0.2,-0.034l0.2,-0.035l0.199,-0.037l0.199,-0.037l0.199,-0.039l0.197,-0.04l0.198,-0.041l0.197,-0.042l0.196,-0.043l0.196,-0.045l0.196,-0.046l0.195,-0.046l0.195,-0.048l0.194,-0.049l0.193,-0.051l0.193,-0.051l0.193,-0.052l0.192,-0.054l0.192,-0.055l0.191,-0.055l0.19,-0.057l0.19,-0.058l0.19,-0.059l0.189,-0.06l0.188,-0.062l0.188,-0.062l0.187,-0.063l0.187,-0.065l0.187,-0.065l0.185,-0.067l0.186,-0.068l0.185,-0.068l0.183,-0.07l0.184,-0.071l0.183,-0.072l0.183,-0.073l0.181,-0.074l0.182,-0.075l0.18,-0.076l0.18,-0.077l0.18,-0.078l0.179,-0.079l0.178,-0.08l0.178,-0.081l0.177,-0.083l0.177,-0.083l0.176,-0.084l0.175,-0.085l0.175,-0.086l0.174,-0.087l0.174,-0.088l0.173,-0.09l0.172,-0.09l0.171,-0.091l0.171,-0.092l0.171,-0.093l0.169,-0.094l0.169,-0.095l0.169,-0.096l0.168,-0.097l0.166,-0.097l0.167,-0.099l0.165,-0.1l0.165,-0.1l0.165,-0.102l0.164,-0.102l0.162,-0.104l0.163,-0.104l0.161,-0.105l0.161,-0.106l0.16,-0.107l0.16,-0.108l0.158,-0.109l0.159,-0.109l0.157,-0.111l0.156,-0.111l0.156,-0.113l0.156,-0.113l0.154,-0.114l0.153,-0.115l0.153,-0.116l0.152,-0.117l0.152,-0.117l0.15,-0.118l0.15,-0.12l0.149,-0.12l0.149,-0.121l0.147,-0.121l0.147,-0.123l0.146,-0.123l0.145,-0.125l0.144,-0.125l0.144,-0.125l0.143,-0.127l0.142,-0.127l0.141,-0.129l0.14,-0.129l0.14,-0.129l0.138,-0.131l0.138,-0.131l0.137,-0.133l0.137,-0.132l0.135,-0.134l0.135,-0.135l0.133,-0.135l0.133,-0.136l0.132,-0.136l0.131,-0.138l0.131,-0.138l0.129,-0.139l0.128,-0.139l0.128,-0.141l0.127,-0.141l0.126,-0.142l0.125,-0.142l0.124,-0.144l0.123,-0.144l0.122,-0.144l0.122,-0.146l0.12,-0.146l0.12,-0.146l0.119,-0.148l0.117,-0.148l0.117,-0.149l0.116,-0.149l0.115,-0.15l0.114,-0.151l0.114,-0.152l0.111,-0.151l0.112,-0.153l0.11,-0.154l0.109,-0.153l0.109,-0.155l0.107,-0.155l0.107,-0.156l0.105,-0.157l0.105,-0.157l0.103,-0.158l0.103,-0.158l0.102,-0.159l0.1,-0.159l0.1,-0.16l0.099,-0.162l0.097,-0.16l0.097,-0.162l0.096,-0.163l0.094,-0.163l0.094,-0.164l0.092,-0.164l0.092,-0.164l0.091,-0.166l0.089,-0.166l0.089,-0.167l0.087,-0.167l0.087,-0.167l0.085,-0.168l0.085,-0.169l0.083,-0.169l0.082,-0.169l0.082,-0.171l0.08,-0.17l0.079,-0.172l0.078,-0.172l0.077,-0.172l0.076,-0.173l0.075,-0.173l0.074,-0.174l0.073,-0.174l0.072,-0.175l0.07,-0.175l0.07,-0.176l0.068,-0.177l0.068,-0.176l0.066,-0.177l0.065,-0.178l0.064,-0.178l0.063,-0.179l0.062,-0.179l0.061,-0.18l0.06,-0.18l0.058,-0.181l0.057,-0.181l0.057,-0.181l0.055,-0.182l0.054,-0.183l0.053,-0.182l0.052,-0.184l0.05,-0.183l0.05,-0.184l0.048,-0.185l0.047,-0.185l0.046,-0.186l0.045,-0.185l0.044,-0.187l0.042,-0.187l0.042,-0.187l0.04,-0.187l0.039,-0.188l0.038,-0.189l0.036,-0.189l0.036,-0.189l0.034,-0.19l0.034,-0.19l0.031,-0.19l0.031,-0.191l0.03,-0.191l0.028,-0.192l0.027,-0.193l0.026,-0.192l0.024,-0.193l0.024,-0.194l0.022,-0.193l0.021,-0.195l0.02,-0.194l0.018,-0.195l0.017,-0.195l0.016,-0.196l0.015,-0.196l0.014,-0.197l0.012,-0.196l0.011,-0.198l0.01,-0.198l0.008,-0.198l0.007,-0.198l0.006,-0.199l0.005,-0.199l0.003,-0.199l0.002,-0.201l0,-0.2l0,-0.2l-0.002,-0.2l-0.003,-0.2l-0.005,-0.199l-0.006,-0.199l-0.007,-0.198l-0.008,-0.198l-0.01,-0.198l-0.011,-0.198l-0.012,-0.196l-0.014,-0.196l-0.015,-0.197l-0.016,-0.196l-0.017,-0.195l-0.018,-0.195l-0.02,-0.194l-0.021,-0.195l-0.022,-0.193l-0.024,-0.194l-0.024,-0.193l-0.026,-0.192l-0.027,-0.193l-0.028,-0.191l-0.03,-0.192l-0.031,-0.191l-0.032,-0.19l-0.033,-0.19l-0.034,-0.19l-0.036,-0.189l-0.036,-0.189l-0.038,-0.189l-0.039,-0.188l-0.04,-0.187l-0.042,-0.188l-0.042,-0.186l-0.044,-0.187l-0.045,-0.185l-0.046,-0.186l-0.047,-0.185l-0.048,-0.185l-0.05,-0.184l-0.05,-0.184l-0.052,-0.183l-0.053,-0.183l-0.054,-0.182l-0.055,-0.182l-0.057,-0.181l-0.057,-0.181l-0.059,-0.181l-0.059,-0.18l-0.061,-0.18l-0.062,-0.179l-0.063,-0.179l-0.064,-0.178l-0.065,-0.178l-0.066,-0.177l-0.068,-0.177l-0.068,-0.177l-0.07,-0.175l-0.07,-0.175l-0.072,-0.175l-0.073,-0.175l-0.074,-0.174l-0.075,-0.173l-0.076,-0.173l-0.077,-0.172l-0.078,-0.172l-0.079,-0.171l-0.08,-0.171l-0.082,-0.17l-0.082,-0.17l-0.083,-0.169l-0.085,-0.169l-0.085,-0.168l-0.087,-0.167l-0.087,-0.167l-0.089,-0.167l-0.09,-0.166l-0.09,-0.165l-0.092,-0.165l-0.092,-0.164l-0.094,-0.164l-0.095,-0.163l-0.095,-0.162l-0.097,-0.163l-0.098,-0.16l-0.098,-0.161l-0.1,-0.161l-0.101,-0.159l-0.101,-0.159l-0.103,-0.159l-0.103,-0.157l-0.105,-0.157l-0.105,-0.157l-0.107,-0.156l-0.108,-0.155l-0.108,-0.155l-0.109,-0.154l-0.11,-0.153l-0.112,-0.153l-0.112,-0.152l-0.113,-0.151l-0.114,-0.151l-0.115,-0.15l-0.116,-0.15l-0.117,-0.148l-0.118,-0.149l-0.118,-0.147l-0.12,-0.147l-0.12,-0.146l-0.122,-0.145l-0.122,-0.145l-0.123,-0.143l-0.125,-0.144l-0.125,-0.143l-0.125,-0.141l-0.127,-0.141l-0.128,-0.141l-0.128,-0.14l-0.13,-0.138l-0.13,-0.139l-0.131,-0.137l-0.132,-0.137l-0.133,-0.136l-0.134,-0.135l-0.134,-0.134l-0.136,-0.134l-0.136,-0.133l-0.137,-0.132l-0.138,-0.132l-0.139,-0.13l-0.139,-0.13l-0.14,-0.129l-0.142,-0.128l-0.141,-0.128l-0.143,-0.126l-0.144,-0.126l-0.144,-0.125l-0.146,-0.125l-0.146,-0.123l-0.146,-0.123l-0.148,-0.121l-0.148,-0.121l-0.149,-0.12l-0.15,-0.12l-0.15,-0.118l-0.152,-0.117l-0.152,-0.117l-0.153,-0.116l-0.154,-0.115l-0.154,-0.114l-0.155,-0.113l-0.156,-0.113l-0.157,-0.111l-0.157,-0.111l-0.158,-0.109l-0.159,-0.109l-0.159,-0.108l-0.16,-0.107l-0.161,-0.106l-0.162,-0.105l-0.162,-0.105l-0.163,-0.103l-0.163,-0.103l-0.165,-0.101l-0.165,-0.101l-0.166,-0.099l-0.166,-0.099l-0.167,-0.098l-0.168,-0.097l-0.168,-0.096l-0.169,-0.095l-0.17,-0.094l-0.17,-0.093l-0.171,-0.092l-0.172,-0.091l-0.172,-0.09l-0.173,-0.089l-0.174,-0.088l-0.173,-0.087l-0.175,-0.086l-0.175,-0.086l-0.177,-0.084l-0.176,-0.083l-0.177,-0.082l-0.178,-0.081l-0.178,-0.08l-0.179,-0.08l-0.18,-0.078l-0.18,-0.077l-0.181,-0.076l-0.181,-0.075l-0.182,-0.074l-0.182,-0.073l-0.183,-0.072l-0.184,-0.071l-0.184,-0.069l-0.185,-0.069l-0.185,-0.068l-0.186,-0.066l-0.186,-0.066l-0.187,-0.064l-0.187,-0.064l-0.188,-0.062l-0.189,-0.061l-0.189,-0.061l-0.189,-0.059l-0.19,-0.058l-0.191,-0.056l-0.191,-0.056l-0.191,-0.055l-0.192,-0.053l-0.193,-0.053l-0.193,-0.051l-0.194,-0.05l-0.194,-0.049l-0.194,-0.048l-0.195,-0.047l-0.196,-0.046l-0.196,-0.044l-0.196,-0.044l-0.197,-0.042l-0.198,-0.041l-0.198,-0.04l-0.198,-0.039l-0.199,-0.037l-0.199,-0.037l-0.2,-0.035l-0.2,-0.034l-0.201,-0.033l-0.201,-0.032l-0.202,-0.03l-0.202,-0.029l-0.202,-0.029l-0.203,-0.027l-0.203,-0.025l-0.204,-0.025l-0.204,-0.023l-0.205,-0.022l-0.205,-0.021l-0.205,-0.02l-0.206,-0.018l-0.207,-0.017l-0.206,-0.016l-0.207,-0.015l-0.208,-0.013l-0.208,-0.012l-0.209,-0.011l-0.208,-0.01l-0.209,-0.008l-0.21,-0.007l-0.21,-0.006l-0.211,-0.004l-0.21,-0.004l-0.212,-0.002l-0.211,0l-0.212,0Z" style="fill:#424651;"/><rect x="174.157" y="147.113" width="54.204" height="29.24" style="fill:#424651;fill-rule:nonzero;"/><path d="M109.986,122.024c0,5.669 0,11.339 0,17.009c0,6.403 9.95,6.415 9.95,0c0,-5.67 0,-11.34 0,-17.009c0,-6.403 -9.95,-6.415 -9.95,0Z" style="fill:#424651;fill-rule:nonzero;"/><path d="M76.978,147.271c4.907,2.835 9.818,5.67 14.732,8.505c5.555,3.207 10.568,-5.386 5.022,-8.593c-4.911,-2.832 -9.825,-5.67 -14.735,-8.505c-5.553,-3.207 -10.572,5.389 -5.019,8.593Z" style="fill:#424651;fill-rule:nonzero;"/><path d="M82.407,188.467c4.911,-2.832 9.821,-5.67 14.732,-8.505c5.544,-3.201 0.539,-11.803 -5.022,-8.592c-4.911,2.837 -9.821,5.669 -14.732,8.507c-5.543,3.201 -0.539,11.803 5.022,8.59Z" style="fill:#424651;fill-rule:nonzero;"/><path d="M120.754,202.216c0,-5.669 0,-11.339 0,-17.009c0,-6.403 -9.95,-6.412 -9.95,0c0,5.67 0,11.34 0,17.009c0,6.403 9.95,6.415 9.95,0Z" style="fill:#424651;fill-rule:nonzero;"/><path d="M153.764,179.168c-4.913,-2.835 -9.824,-5.67 -14.731,-8.505c-5.559,-3.207 -10.575,5.388 -5.022,8.593c4.907,2.835 9.818,5.669 14.728,8.504c5.559,3.208 10.575,-5.388 5.025,-8.592Z" style="fill:#424651;fill-rule:nonzero;"/><path d="M148.332,137.972c-4.911,2.835 -9.821,5.67 -14.732,8.505c-5.547,3.201 -0.539,11.803 5.022,8.592c4.911,-2.835 9.821,-5.669 14.732,-8.507c5.544,-3.199 0.539,-11.8 -5.022,-8.59Z" style="fill:#424651;fill-rule:nonzero;"/><path d="M281.315,121.648c0,5.67 0,11.343 0,17.013c0,6.403 9.95,6.414 9.95,0c0,-5.67 0,-11.343 0,-17.013c0,-6.399 -9.95,-6.411 -9.95,0Z" style="fill:#424651;fill-rule:nonzero;"/><path d="M248.305,146.899c4.91,2.835 9.824,5.67 14.728,8.505c5.559,3.207 10.578,-5.389 5.022,-8.593c-4.907,-2.835 -9.815,-5.67 -14.728,-8.505c-5.556,-3.207 -10.572,5.389 -5.022,8.593Z" style="fill:#424651;fill-rule:nonzero;"/><path d="M254.485,187.661c4.913,-2.835 9.824,-5.67 14.731,-8.505c5.544,-3.201 0.54,-11.803 -5.019,-8.593c-4.913,2.835 -9.824,5.673 -14.731,8.508c-5.544,3.201 -0.54,11.803 5.019,8.59Z" style="fill:#424651;fill-rule:nonzero;"/><path d="M292.083,201.844c0,-5.67 0,-11.34 0,-17.009c0,-6.403 -9.956,-6.415 -9.956,0c0,5.669 0,11.339 0,17.009c0,6.403 9.956,6.412 9.956,0Z" style="fill:#424651;fill-rule:nonzero;"/><path d="M325.091,178.795c-4.908,-2.835 -9.821,-5.669 -14.732,-8.504c-5.555,-3.208 -10.568,5.388 -5.022,8.589c4.911,2.838 9.822,5.67 14.735,8.508c5.552,3.207 10.569,-5.388 5.019,-8.593Z" style="fill:#424651;fill-rule:nonzero;"/><path d="M319.661,137.599c-4.91,2.836 -9.821,5.67 -14.734,8.505c-5.541,3.199 -0.537,11.803 5.022,8.59c4.913,-2.832 9.824,-5.67 14.734,-8.505c5.544,-3.198 0.537,-11.8 -5.022,-8.59Z" style="fill:#424651;fill-rule:nonzero;"/></svg>