<?xml version="1.0" encoding="UTF-8" standalone="no"?><!DOCTYPE svg PUBLIC "-//W3C//DTD SVG 1.1//EN" "http://www.w3.org/Graphics/SVG/1.1/DTD/svg11.dtd"><svg width="100%" height="100%" viewBox="0 0 400 400" version="1.1" xmlns="http://www.w3.org/2000/svg" xmlns:xlink="http://www.w3.org/1999/xlink" xml:space="preserve" style="fill-rule:evenodd;clip-rule:evenodd;stroke-linejoin:round;stroke-miterlimit:1.41421;"><path d="M64.725,8.406l246.212,3.999l84.417,89.992l0,234.175c0,0 7.387,44.917 -45.375,44.917c-52.759,0 -278.571,0 -278.571,0c0,0 -46.079,5.379 -48.588,-43.863c-2.554,-50.066 -0.6,-266.687 -0.6,-266.687c0,0 -5.333,-63.304 42.505,-62.533Z" style="fill:#ca584a;fill-rule:nonzero;"/><rect x="82.016" y="207.606" width="246.917" height="179.208" style="fill:#f3f4f5;fill-rule:nonzero;"/><path d="M54.792,2.581l0.335,0.002l0.323,0.005l250.874,4.075l90.566,96.547l0,237.658l-0.122,-0.776l0.028,0.188l0.037,0.263l0.04,0.313l0.025,0.199l0.023,0.202l0.025,0.218l0.024,0.232l0.025,0.246l0.025,0.26l0.024,0.275l0.024,0.288l0.024,0.303l0.022,0.316l0.022,0.328l0.02,0.341l0.018,0.355l0.017,0.367l0.015,0.378l0.013,0.391l0.01,0.404l0.007,0.414l0.005,0.425l0.002,0.437l-0.002,0.448l-0.005,0.448l-0.004,0.244l-0.005,0.235l-0.006,0.238l-0.007,0.241l-0.009,0.243l-0.009,0.247l-0.01,0.247l-0.012,0.251l-0.012,0.253l-0.014,0.255l-0.016,0.258l-0.016,0.261l-0.018,0.262l-0.019,0.264l-0.02,0.267l-0.022,0.269l-0.023,0.272l-0.025,0.274l-0.026,0.274l-0.028,0.278l-0.03,0.28l-0.031,0.282l-0.032,0.283l-0.034,0.285l-0.036,0.288l-0.038,0.29l-0.039,0.291l-0.042,0.294l-0.043,0.295l-0.045,0.296l-0.047,0.299l-0.048,0.3l-0.051,0.302l-0.053,0.304l-0.054,0.306l-0.057,0.307l-0.059,0.309l-0.061,0.31l-0.064,0.312l-0.065,0.313l-0.068,0.315l-0.07,0.316l-0.072,0.318l-0.075,0.319l-0.077,0.319l-0.08,0.322l-0.082,0.324l-0.084,0.324l-0.087,0.325l-0.09,0.327l-0.092,0.328l-0.095,0.329l-0.098,0.33l-0.1,0.331l-0.104,0.332l-0.106,0.332l-0.108,0.334l-0.112,0.335l-0.115,0.336l-0.118,0.336l-0.121,0.338l-0.123,0.338l-0.127,0.338l-0.13,0.34l-0.133,0.34l-0.137,0.34l-0.139,0.341l-0.143,0.342l-0.147,0.343l-0.149,0.342l-0.153,0.342l-0.157,0.344l-0.16,0.343l-0.163,0.344l-0.167,0.344l-0.17,0.343l-0.175,0.345l-0.178,0.344l-0.181,0.344l-0.186,0.344l-0.189,0.344l-0.193,0.343l-0.197,0.344l-0.2,0.343l-0.205,0.343l-0.208,0.342l-0.213,0.342l-0.216,0.341l-0.221,0.342l-0.225,0.34l-0.228,0.34l-0.233,0.339l-0.237,0.338l-0.241,0.337l-0.238,0.326l-0.132,0.178l-0.125,0.167l-0.127,0.168l-0.127,0.167l-0.129,0.166l-0.13,0.167l-0.13,0.166l-0.131,0.166l-0.134,0.166l-0.134,0.165l-0.134,0.165l-0.137,0.164l-0.137,0.165l-0.138,0.164l-0.139,0.163l-0.141,0.164l-0.142,0.162l-0.142,0.163l-0.144,0.162l-0.145,0.162l-0.146,0.161l-0.146,0.16l-0.148,0.161l-0.15,0.16l-0.151,0.16l-0.152,0.159l-0.152,0.159l-0.153,0.157l-0.155,0.158l-0.156,0.158l-0.157,0.156l-0.158,0.156l-0.16,0.157l-0.161,0.155l-0.161,0.155l-0.162,0.154l-0.164,0.153l-0.165,0.154l-0.167,0.153l-0.167,0.152l-0.167,0.151l-0.17,0.151l-0.17,0.151l-0.172,0.15l-0.173,0.149l-0.174,0.149l-0.175,0.148l-0.176,0.148l-0.177,0.146l-0.179,0.146l-0.179,0.146l-0.181,0.145l-0.182,0.144l-0.183,0.144l-0.184,0.143l-0.185,0.142l-0.186,0.142l-0.188,0.141l-0.189,0.141l-0.188,0.138l-0.191,0.139l-0.192,0.139l-0.193,0.137l-0.194,0.137l-0.196,0.136l-0.196,0.135l-0.197,0.135l-0.199,0.134l-0.2,0.133l-0.2,0.131l-0.202,0.132l-0.204,0.132l-0.203,0.129l-0.205,0.129l-0.206,0.128l-0.208,0.128l-0.208,0.127l-0.21,0.126l-0.21,0.125l-0.211,0.124l-0.215,0.124l-0.213,0.123l-0.215,0.121l-0.217,0.122l-0.217,0.12l-0.218,0.119l-0.219,0.119l-0.22,0.117l-0.222,0.117l-0.223,0.116l-0.224,0.115l-0.225,0.114l-0.226,0.113l-0.227,0.113l-0.227,0.111l-0.229,0.111l-0.231,0.11l-0.232,0.109l-0.231,0.107l-0.234,0.107l-0.235,0.107l-0.235,0.104l-0.236,0.104l-0.238,0.104l-0.24,0.103l-0.24,0.101l-0.24,0.1l-0.243,0.1l-0.243,0.099l-0.243,0.097l-0.245,0.097l-0.247,0.096l-0.247,0.095l-0.249,0.094l-0.25,0.093l-0.249,0.091l-0.252,0.091l-0.253,0.09l-0.253,0.089l-0.256,0.089l-0.255,0.087l-0.257,0.086l-0.258,0.085l-0.258,0.084l-0.261,0.083l-0.261,0.082l-0.262,0.081l-0.263,0.08l-0.264,0.079l-0.266,0.079l-0.266,0.077l-0.268,0.076l-0.268,0.075l-0.27,0.074l-0.27,0.073l-0.272,0.072l-0.273,0.071l-0.273,0.07l-0.276,0.069l-0.275,0.068l-0.277,0.067l-0.278,0.066l-0.279,0.065l-0.28,0.064l-0.282,0.063l-0.282,0.061l-0.283,0.061l-0.284,0.06l-0.287,0.058l-0.286,0.058l-0.288,0.057l-0.288,0.055l-0.29,0.055l-0.291,0.053l-0.292,0.052l-0.294,0.052l-0.293,0.05l-0.295,0.049l-0.297,0.048l-0.297,0.047l-0.299,0.046l-0.299,0.045l-0.3,0.044l-0.303,0.042l-0.303,0.042l-0.303,0.041l-0.305,0.039l-0.306,0.039l-0.308,0.037l-0.308,0.036l-0.31,0.035l-0.31,0.035l-0.312,0.033l-0.313,0.032l-0.313,0.03l-0.315,0.03l-0.317,0.029l-0.317,0.027l-0.318,0.027l-0.32,0.025l-0.321,0.024l-0.321,0.023l-0.323,0.022l-0.324,0.021l-0.325,0.02l-0.326,0.019l-0.328,0.017l-0.329,0.017l-0.329,0.015l-0.331,0.014l-0.333,0.013l-0.333,0.012l-0.334,0.011l-0.335,0.01l-0.338,0.008l-0.338,0.008l-0.339,0.006l-0.34,0.005l-0.341,0.004l-0.342,0.003l-0.345,0.002l-0.336,0l-277.97,0l0.529,-0.059l-0.19,0.02l-0.259,0.025l-0.325,0.027l-0.373,0.029l-0.229,0.015l-0.233,0.015l-0.247,0.015l-0.261,0.014l-0.276,0.013l-0.289,0.013l-0.304,0.011l-0.317,0.01l-0.331,0.009l-0.344,0.007l-0.357,0.005l-0.369,0.003l-0.381,0.001l-0.395,-0.001l-0.406,-0.004l-0.417,-0.007l-0.43,-0.009l-0.44,-0.013l-0.452,-0.017l-0.462,-0.019l-0.474,-0.024l-0.473,-0.027l-0.256,-0.016l-0.248,-0.017l-0.25,-0.017l-0.254,-0.019l-0.255,-0.02l-0.258,-0.021l-0.26,-0.022l-0.263,-0.023l-0.264,-0.025l-0.268,-0.026l-0.269,-0.027l-0.271,-0.029l-0.275,-0.03l-0.276,-0.032l-0.278,-0.033l-0.28,-0.034l-0.283,-0.036l-0.285,-0.037l-0.286,-0.039l-0.288,-0.04l-0.291,-0.042l-0.292,-0.044l-0.295,-0.045l-0.296,-0.047l-0.298,-0.049l-0.3,-0.05l-0.301,-0.052l-0.304,-0.054l-0.305,-0.056l-0.307,-0.058l-0.309,-0.059l-0.31,-0.062l-0.312,-0.063l-0.313,-0.065l-0.316,-0.068l-0.316,-0.069l-0.318,-0.071l-0.319,-0.074l-0.321,-0.076l-0.323,-0.078l-0.324,-0.08l-0.325,-0.082l-0.326,-0.084l-0.328,-0.087l-0.329,-0.089l-0.33,-0.092l-0.332,-0.094l-0.332,-0.096l-0.334,-0.099l-0.335,-0.101l-0.335,-0.103l-0.337,-0.107l-0.338,-0.109l-0.34,-0.111l-0.339,-0.114l-0.34,-0.117l-0.342,-0.12l-0.342,-0.122l-0.344,-0.125l-0.343,-0.128l-0.345,-0.13l-0.345,-0.134l-0.346,-0.136l-0.347,-0.14l-0.346,-0.142l-0.349,-0.146l-0.348,-0.149l-0.348,-0.151l-0.349,-0.155l-0.349,-0.158l-0.35,-0.161l-0.35,-0.164l-0.35,-0.168l-0.35,-0.171l-0.351,-0.174l-0.35,-0.178l-0.351,-0.181l-0.351,-0.184l-0.351,-0.188l-0.35,-0.191l-0.35,-0.195l-0.351,-0.199l-0.35,-0.202l-0.35,-0.206l-0.349,-0.209l-0.35,-0.213l-0.349,-0.217l-0.348,-0.22l-0.348,-0.224l-0.347,-0.228l-0.347,-0.232l-0.346,-0.236l-0.346,-0.24l-0.344,-0.244l-0.344,-0.247l-0.343,-0.251l-0.342,-0.256l-0.341,-0.26l-0.33,-0.255l-0.179,-0.141l-0.17,-0.134l-0.169,-0.136l-0.169,-0.136l-0.168,-0.138l-0.168,-0.138l-0.168,-0.139l-0.167,-0.141l-0.167,-0.141l-0.167,-0.143l-0.167,-0.144l-0.166,-0.144l-0.165,-0.146l-0.165,-0.146l-0.166,-0.149l-0.165,-0.148l-0.163,-0.15l-0.164,-0.151l-0.164,-0.152l-0.163,-0.153l-0.162,-0.154l-0.163,-0.155l-0.161,-0.156l-0.162,-0.158l-0.16,-0.158l-0.16,-0.159l-0.161,-0.161l-0.159,-0.162l-0.159,-0.162l-0.159,-0.164l-0.158,-0.165l-0.157,-0.165l-0.157,-0.168l-0.157,-0.168l-0.155,-0.169l-0.156,-0.17l-0.155,-0.171l-0.154,-0.173l-0.154,-0.173l-0.153,-0.174l-0.153,-0.176l-0.152,-0.177l-0.152,-0.178l-0.15,-0.178l-0.151,-0.18l-0.15,-0.182l-0.148,-0.181l-0.149,-0.184l-0.148,-0.184l-0.147,-0.185l-0.147,-0.187l-0.146,-0.188l-0.145,-0.188l-0.145,-0.189l-0.144,-0.191l-0.143,-0.192l-0.143,-0.193l-0.142,-0.194l-0.141,-0.195l-0.14,-0.196l-0.141,-0.198l-0.139,-0.198l-0.138,-0.2l-0.138,-0.2l-0.137,-0.202l-0.136,-0.202l-0.136,-0.204l-0.135,-0.205l-0.134,-0.206l-0.133,-0.207l-0.132,-0.208l-0.132,-0.209l-0.131,-0.211l-0.13,-0.211l-0.13,-0.212l-0.128,-0.214l-0.128,-0.214l-0.127,-0.216l-0.126,-0.217l-0.125,-0.217l-0.125,-0.219l-0.123,-0.22l-0.123,-0.221l-0.122,-0.222l-0.121,-0.223l-0.121,-0.224l-0.119,-0.225l-0.119,-0.226l-0.117,-0.228l-0.117,-0.228l-0.116,-0.229l-0.115,-0.231l-0.114,-0.231l-0.114,-0.233l-0.112,-0.233l-0.112,-0.235l-0.11,-0.236l-0.11,-0.236l-0.109,-0.238l-0.108,-0.239l-0.106,-0.24l-0.106,-0.241l-0.105,-0.242l-0.105,-0.243l-0.103,-0.244l-0.102,-0.245l-0.101,-0.247l-0.101,-0.247l-0.099,-0.248l-0.099,-0.249l-0.097,-0.251l-0.097,-0.251l-0.095,-0.252l-0.095,-0.253l-0.093,-0.255l-0.093,-0.255l-0.092,-0.257l-0.09,-0.257l-0.09,-0.259l-0.088,-0.26l-0.088,-0.26l-0.087,-0.262l-0.085,-0.263l-0.085,-0.263l-0.084,-0.265l-0.082,-0.266l-0.082,-0.266l-0.081,-0.268l-0.079,-0.269l-0.079,-0.27l-0.077,-0.271l-0.077,-0.272l-0.075,-0.273l-0.075,-0.273l-0.073,-0.275l-0.072,-0.276l-0.072,-0.277l-0.07,-0.279l-0.069,-0.279l-0.068,-0.28l-0.067,-0.281l-0.066,-0.282l-0.065,-0.283l-0.064,-0.284l-0.063,-0.286l-0.062,-0.286l-0.06,-0.287l-0.06,-0.288l-0.059,-0.29l-0.057,-0.29l-0.057,-0.291l-0.055,-0.293l-0.054,-0.293l-0.053,-0.295l-0.052,-0.295l-0.051,-0.297l-0.05,-0.298l-0.049,-0.298l-0.048,-0.3l-0.046,-0.3l-0.046,-0.302l-0.044,-0.303l-0.044,-0.304l-0.042,-0.305l-0.041,-0.306l-0.04,-0.306l-0.039,-0.308l-0.038,-0.31l-0.036,-0.31l-0.036,-0.311l-0.034,-0.312l-0.033,-0.313l-0.033,-0.314l-0.031,-0.316l-0.03,-0.316l-0.028,-0.318l-0.028,-0.318l-0.026,-0.32l-0.026,-0.321l-0.024,-0.321l-0.023,-0.323l-0.022,-0.324l-0.021,-0.325l-0.02,-0.326l-0.018,-0.327l-0.017,-0.324l-0.031,-0.62l-0.03,-0.63l-0.03,-0.643l-0.03,-0.658l-0.028,-0.671l-0.029,-0.685l-0.028,-0.698l-0.027,-0.713l-0.027,-0.725l-0.027,-0.739l-0.026,-0.752l-0.026,-0.765l-0.025,-0.779l-0.025,-0.791l-0.025,-0.804l-0.024,-0.82l-0.047,-1.669l-0.045,-1.722l-0.044,-1.77l-0.043,-1.818l-0.041,-1.864l-0.039,-1.911l-0.038,-1.955l-0.037,-2l-0.035,-2.041l-0.034,-2.084l-0.033,-2.124l-0.031,-2.164l-0.03,-2.202l-0.029,-2.24l-0.028,-2.277l-0.026,-2.311l-0.025,-2.346l-0.024,-2.38l-0.022,-2.411l-0.022,-2.443l-0.02,-2.472l-0.019,-2.502l-0.019,-2.529l-0.017,-2.557l-0.016,-2.581l-0.015,-2.607l-0.014,-2.63l-0.013,-2.652l-0.011,-2.674l-0.011,-2.694l-0.01,-2.713l-0.01,-2.732l-0.008,-2.748l-0.007,-2.765l-0.006,-2.779l-0.006,-2.792l-0.005,-2.806l-0.004,-2.817l-0.003,-2.828l-0.002,-2.836l-0.001,-2.846l-0.001,-2.853l0,-5.721l0.004,-5.737l0.006,-5.745l0.008,-5.743l0.011,-5.732l0.013,-5.712l0.015,-5.685l0.016,-5.648l0.019,-5.602l0.02,-5.547l0.022,-5.485l0.022,-5.413l0.024,-5.332l0.025,-5.242l0.026,-5.145l0.026,-5.037l0.027,-4.922l0.028,-4.797l0.027,-4.664l0.028,-4.522l0.028,-4.372l0.027,-4.212l0.027,-4.044l0.053,-7.546l0.049,-6.769l0.045,-5.92l0.04,-5.001l0.033,-4.013l0.024,-2.954l0.018,-1.981l0.018,0.241l-0.02,-0.299l-0.024,-0.378l-0.025,-0.452l-0.014,-0.27l-0.013,-0.282l-0.013,-0.301l-0.013,-0.32l-0.012,-0.339l-0.011,-0.357l-0.011,-0.376l-0.009,-0.393l-0.009,-0.411l-0.007,-0.428l-0.005,-0.444l-0.004,-0.461l-0.001,-0.477l0,-0.493l0.003,-0.508l0.005,-0.524l0.008,-0.538l0.01,-0.552l0.014,-0.566l0.017,-0.58l0.02,-0.594l0.023,-0.599l0.014,-0.315l0.014,-0.311l0.016,-0.314l0.016,-0.318l0.017,-0.32l0.018,-0.323l0.02,-0.326l0.02,-0.329l0.022,-0.332l0.023,-0.335l0.024,-0.337l0.025,-0.341l0.026,-0.342l0.028,-0.346l0.029,-0.348l0.03,-0.351l0.032,-0.353l0.033,-0.355l0.034,-0.358l0.036,-0.361l0.037,-0.363l0.038,-0.365l0.04,-0.367l0.042,-0.37l0.043,-0.372l0.045,-0.373l0.046,-0.377l0.048,-0.378l0.049,-0.38l0.051,-0.382l0.053,-0.384l0.054,-0.386l0.057,-0.388l0.058,-0.39l0.059,-0.391l0.062,-0.393l0.063,-0.395l0.066,-0.397l0.067,-0.398l0.069,-0.4l0.071,-0.401l0.073,-0.403l0.076,-0.404l0.077,-0.406l0.079,-0.407l0.081,-0.409l0.084,-0.41l0.085,-0.411l0.088,-0.412l0.09,-0.414l0.093,-0.415l0.094,-0.415l0.097,-0.417l0.1,-0.418l0.101,-0.419l0.104,-0.42l0.107,-0.421l0.109,-0.422l0.112,-0.422l0.114,-0.423l0.116,-0.425l0.12,-0.424l0.122,-0.426l0.124,-0.426l0.128,-0.427l0.13,-0.427l0.133,-0.428l0.135,-0.428l0.139,-0.429l0.141,-0.429l0.145,-0.429l0.147,-0.43l0.151,-0.43l0.153,-0.43l0.157,-0.431l0.16,-0.43l0.162,-0.431l0.167,-0.431l0.169,-0.43l0.173,-0.431l0.176,-0.431l0.179,-0.43l0.183,-0.43l0.186,-0.43l0.19,-0.43l0.193,-0.43l0.197,-0.429l0.2,-0.428l0.205,-0.429l0.203,-0.418l0.11,-0.223l0.106,-0.213l0.107,-0.214l0.109,-0.213l0.109,-0.213l0.11,-0.213l0.111,-0.212l0.112,-0.213l0.113,-0.212l0.114,-0.212l0.115,-0.212l0.116,-0.212l0.117,-0.211l0.119,-0.211l0.119,-0.211l0.12,-0.211l0.121,-0.21l0.122,-0.211l0.124,-0.21l0.124,-0.209l0.125,-0.21l0.127,-0.209l0.127,-0.208l0.129,-0.209l0.129,-0.208l0.131,-0.208l0.132,-0.207l0.133,-0.208l0.134,-0.206l0.135,-0.207l0.136,-0.206l0.137,-0.206l0.139,-0.205l0.139,-0.205l0.141,-0.205l0.142,-0.204l0.143,-0.204l0.144,-0.203l0.145,-0.203l0.147,-0.202l0.147,-0.202l0.149,-0.202l0.15,-0.201l0.151,-0.2l0.152,-0.201l0.154,-0.199l0.155,-0.199l0.155,-0.199l0.158,-0.198l0.158,-0.198l0.159,-0.196l0.161,-0.197l0.162,-0.196l0.163,-0.195l0.165,-0.195l0.165,-0.194l0.167,-0.193l0.168,-0.193l0.17,-0.192l0.17,-0.192l0.172,-0.191l0.173,-0.19l0.174,-0.19l0.176,-0.189l0.177,-0.188l0.178,-0.187l0.18,-0.187l0.18,-0.186l0.182,-0.185l0.184,-0.185l0.184,-0.184l0.186,-0.183l0.187,-0.182l0.189,-0.181l0.19,-0.181l0.191,-0.18l0.192,-0.179l0.194,-0.178l0.195,-0.177l0.196,-0.176l0.198,-0.176l0.199,-0.174l0.2,-0.174l0.201,-0.173l0.203,-0.172l0.204,-0.171l0.206,-0.17l0.206,-0.168l0.209,-0.168l0.209,-0.167l0.211,-0.166l0.212,-0.165l0.213,-0.164l0.215,-0.163l0.216,-0.162l0.217,-0.161l0.218,-0.159l0.22,-0.159l0.222,-0.157l0.222,-0.157l0.224,-0.155l0.225,-0.154l0.226,-0.153l0.228,-0.152l0.229,-0.15l0.23,-0.15l0.232,-0.148l0.233,-0.147l0.234,-0.146l0.235,-0.144l0.237,-0.144l0.238,-0.142l0.239,-0.141l0.241,-0.139l0.242,-0.138l0.243,-0.137l0.244,-0.136l0.246,-0.134l0.247,-0.133l0.248,-0.132l0.249,-0.13l0.251,-0.129l0.252,-0.127l0.253,-0.126l0.254,-0.125l0.256,-0.123l0.256,-0.122l0.258,-0.121l0.259,-0.119l0.261,-0.117l0.261,-0.116l0.263,-0.115l0.264,-0.113l0.265,-0.112l0.266,-0.11l0.268,-0.109l0.268,-0.107l0.27,-0.106l0.271,-0.104l0.272,-0.103l0.273,-0.101l0.275,-0.1l0.275,-0.098l0.277,-0.096l0.277,-0.095l0.279,-0.094l0.28,-0.092l0.281,-0.09l0.282,-0.088l0.284,-0.087l0.284,-0.086l0.285,-0.084l0.287,-0.082l0.287,-0.081l0.289,-0.079l0.29,-0.077l0.291,-0.076l0.291,-0.074l0.293,-0.072l0.294,-0.071l0.295,-0.069l0.296,-0.068l0.297,-0.066l0.298,-0.064l0.299,-0.062l0.3,-0.061l0.301,-0.059l0.302,-0.058l0.303,-0.056l0.304,-0.054l0.306,-0.052l0.306,-0.051l0.307,-0.049l0.308,-0.047l0.309,-0.046l0.31,-0.044l0.311,-0.042l0.312,-0.041l0.312,-0.038l0.314,-0.037l0.315,-0.036l0.316,-0.034l0.317,-0.031l0.317,-0.031l0.319,-0.028l0.32,-0.027l0.32,-0.025l0.322,-0.023l0.322,-0.022l0.323,-0.02l0.325,-0.018l0.325,-0.016l0.326,-0.015l0.327,-0.013l0.328,-0.011l0.329,-0.01l0.33,-0.007l0.331,-0.006l0.332,-0.004l0.333,-0.003l0.333,-0.001l0.335,0.002Zm-0.564,21.946l-0.217,0.001l-0.216,0.003l-0.214,0.004l-0.213,0.005l-0.211,0.006l-0.209,0.007l-0.208,0.008l-0.207,0.009l-0.206,0.011l-0.203,0.011l-0.203,0.013l-0.201,0.013l-0.2,0.015l-0.198,0.015l-0.197,0.017l-0.195,0.017l-0.194,0.019l-0.193,0.019l-0.192,0.02l-0.19,0.022l-0.188,0.022l-0.188,0.023l-0.186,0.025l-0.184,0.025l-0.184,0.026l-0.182,0.026l-0.181,0.028l-0.179,0.029l-0.178,0.029l-0.177,0.031l-0.176,0.031l-0.174,0.032l-0.173,0.033l-0.172,0.034l-0.171,0.035l-0.17,0.035l-0.168,0.036l-0.167,0.037l-0.166,0.038l-0.165,0.039l-0.163,0.039l-0.163,0.04l-0.161,0.041l-0.16,0.042l-0.159,0.043l-0.158,0.043l-0.157,0.044l-0.155,0.044l-0.155,0.046l-0.154,0.046l-0.152,0.047l-0.151,0.047l-0.151,0.049l-0.149,0.049l-0.148,0.049l-0.148,0.051l-0.146,0.051l-0.145,0.051l-0.145,0.053l-0.143,0.053l-0.143,0.054l-0.141,0.054l-0.141,0.055l-0.139,0.056l-0.139,0.056l-0.138,0.057l-0.137,0.058l-0.136,0.059l-0.135,0.059l-0.134,0.059l-0.134,0.06l-0.132,0.061l-0.132,0.062l-0.131,0.062l-0.13,0.063l-0.13,0.063l-0.128,0.064l-0.128,0.065l-0.127,0.066l-0.126,0.065l-0.126,0.067l-0.124,0.067l-0.124,0.068l-0.124,0.068l-0.122,0.069l-0.122,0.07l-0.121,0.07l-0.121,0.071l-0.12,0.072l-0.119,0.072l-0.118,0.073l-0.118,0.073l-0.117,0.074l-0.117,0.075l-0.116,0.075l-0.115,0.076l-0.115,0.076l-0.114,0.077l-0.114,0.078l-0.112,0.078l-0.113,0.079l-0.112,0.08l-0.111,0.08l-0.11,0.081l-0.11,0.081l-0.11,0.082l-0.109,0.083l-0.108,0.083l-0.108,0.084l-0.107,0.085l-0.107,0.085l-0.107,0.086l-0.105,0.086l-0.106,0.087l-0.104,0.088l-0.105,0.088l-0.103,0.089l-0.104,0.09l-0.103,0.09l-0.102,0.091l-0.102,0.091l-0.101,0.092l-0.101,0.093l-0.1,0.094l-0.1,0.094l-0.1,0.094l-0.099,0.096l-0.099,0.096l-0.098,0.096l-0.097,0.098l-0.098,0.098l-0.096,0.098l-0.097,0.099l-0.096,0.1l-0.095,0.101l-0.095,0.101l-0.095,0.101l-0.094,0.103l-0.094,0.103l-0.093,0.104l-0.093,0.104l-0.093,0.105l-0.092,0.106l-0.091,0.106l-0.091,0.107l-0.091,0.107l-0.091,0.108l-0.09,0.109l-0.089,0.11l-0.089,0.11l-0.089,0.11l-0.088,0.112l-0.088,0.112l-0.088,0.112l-0.087,0.113l-0.086,0.114l-0.086,0.115l-0.086,0.115l-0.086,0.115l-0.085,0.117l-0.084,0.117l-0.084,0.117l-0.084,0.118l-0.083,0.119l-0.083,0.119l-0.083,0.12l-0.082,0.121l-0.082,0.121l-0.081,0.122l-0.081,0.122l-0.08,0.123l-0.08,0.124l-0.08,0.124l-0.079,0.124l-0.079,0.126l-0.078,0.125l-0.078,0.127l-0.078,0.127l-0.077,0.127l-0.076,0.128l-0.077,0.129l-0.075,0.129l-0.076,0.13l-0.075,0.13l-0.075,0.131l-0.074,0.131l-0.073,0.132l-0.074,0.133l-0.073,0.133l-0.072,0.133l-0.072,0.134l-0.072,0.135l-0.071,0.135l-0.071,0.135l-0.07,0.136l-0.07,0.137l-0.07,0.136l-0.069,0.138l-0.069,0.138l-0.063,0.129l-0.14,0.288l-0.134,0.28l-0.131,0.281l-0.131,0.284l-0.128,0.285l-0.127,0.287l-0.125,0.289l-0.123,0.29l-0.121,0.292l-0.12,0.293l-0.118,0.294l-0.117,0.296l-0.114,0.298l-0.113,0.298l-0.112,0.3l-0.109,0.302l-0.108,0.302l-0.106,0.303l-0.105,0.305l-0.102,0.305l-0.101,0.307l-0.1,0.307l-0.097,0.308l-0.097,0.309l-0.094,0.31l-0.093,0.311l-0.091,0.311l-0.089,0.312l-0.088,0.312l-0.086,0.313l-0.084,0.314l-0.083,0.313l-0.081,0.315l-0.08,0.314l-0.078,0.315l-0.076,0.315l-0.075,0.315l-0.074,0.315l-0.071,0.315l-0.071,0.316l-0.068,0.315l-0.067,0.315l-0.066,0.315l-0.064,0.315l-0.063,0.314l-0.061,0.314l-0.06,0.314l-0.058,0.314l-0.057,0.312l-0.055,0.313l-0.054,0.312l-0.052,0.311l-0.052,0.311l-0.049,0.31l-0.049,0.309l-0.047,0.308l-0.046,0.307l-0.044,0.307l-0.043,0.305l-0.042,0.305l-0.041,0.303l-0.039,0.303l-0.038,0.301l-0.037,0.3l-0.035,0.298l-0.035,0.297l-0.033,0.296l-0.032,0.295l-0.031,0.293l-0.03,0.291l-0.029,0.29l-0.027,0.288l-0.027,0.286l-0.025,0.285l-0.025,0.283l-0.023,0.281l-0.022,0.28l-0.022,0.277l-0.02,0.275l-0.019,0.273l-0.019,0.272l-0.017,0.269l-0.017,0.266l-0.016,0.265l-0.015,0.262l-0.014,0.26l-0.013,0.258l-0.012,0.255l-0.012,0.253l-0.01,0.243l-0.02,0.499l-0.016,0.482l-0.014,0.471l-0.011,0.459l-0.009,0.447l-0.006,0.435l-0.004,0.422l-0.002,0.409l-0.001,0.395l0.002,0.382l0.003,0.367l0.004,0.353l0.005,0.337l0.007,0.323l0.007,0.306l0.009,0.29l0.008,0.274l0.01,0.257l0.009,0.239l0.01,0.222l0.009,0.203l0.009,0.176l0.018,0.324l0.015,0.235l0.01,0.146l0.046,0.605l-0.026,2.908l-0.025,2.948l-0.032,4.007l-0.04,4.995l-0.045,5.914l-0.049,6.761l-0.053,7.54l-0.027,4.039l-0.027,4.208l-0.028,4.367l-0.027,4.518l-0.028,4.659l-0.027,4.793l-0.027,4.917l-0.027,5.032l-0.025,5.139l-0.025,5.237l-0.024,5.326l-0.023,5.406l-0.021,5.478l-0.021,5.541l-0.018,5.595l-0.017,5.641l-0.015,5.676l-0.013,5.705l-0.01,5.723l-0.009,5.734l-0.006,5.734l-0.003,5.728l-0.001,5.711l0.001,2.846l0.002,2.84l0.002,2.831l0.003,2.821l0.004,2.81l0.005,2.799l0.005,2.786l0.007,2.772l0.007,2.757l0.008,2.741l0.009,2.723l0.01,2.706l0.011,2.685l0.012,2.665l0.013,2.644l0.014,2.62l0.015,2.597l0.016,2.571l0.017,2.546l0.018,2.518l0.019,2.49l0.02,2.46l0.021,2.43l0.023,2.398l0.024,2.365l0.025,2.332l0.026,2.296l0.027,2.26l0.028,2.223l0.03,2.185l0.031,2.144l0.033,2.105l0.033,2.062l0.035,2.019l0.036,1.975l0.038,1.93l0.039,1.883l0.04,1.836l0.042,1.787l0.043,1.736l0.045,1.685l0.046,1.636l0.023,0.793l0.024,0.783l0.024,0.769l0.025,0.755l0.025,0.74l0.025,0.727l0.026,0.712l0.026,0.697l0.026,0.682l0.027,0.668l0.027,0.652l0.027,0.636l0.028,0.621l0.028,0.606l0.028,0.589l0.029,0.568l0.013,0.252l0.014,0.246l0.015,0.245l0.015,0.243l0.017,0.242l0.017,0.241l0.018,0.239l0.019,0.238l0.019,0.236l0.021,0.235l0.021,0.234l0.022,0.232l0.022,0.231l0.024,0.23l0.024,0.228l0.025,0.226l0.026,0.226l0.026,0.224l0.028,0.223l0.027,0.221l0.029,0.22l0.029,0.218l0.031,0.218l0.03,0.216l0.032,0.214l0.032,0.214l0.033,0.212l0.033,0.21l0.035,0.21l0.035,0.208l0.035,0.206l0.036,0.206l0.037,0.204l0.038,0.203l0.038,0.201l0.039,0.201l0.039,0.199l0.04,0.197l0.041,0.197l0.041,0.195l0.042,0.194l0.042,0.193l0.043,0.191l0.044,0.19l0.044,0.189l0.045,0.188l0.045,0.187l0.046,0.185l0.047,0.184l0.047,0.183l0.047,0.181l0.049,0.181l0.048,0.179l0.049,0.178l0.05,0.177l0.05,0.176l0.051,0.174l0.051,0.173l0.052,0.173l0.053,0.171l0.052,0.169l0.054,0.169l0.054,0.168l0.054,0.166l0.055,0.165l0.055,0.164l0.055,0.164l0.057,0.161l0.056,0.161l0.057,0.16l0.058,0.159l0.058,0.157l0.058,0.157l0.059,0.155l0.059,0.155l0.06,0.153l0.06,0.152l0.061,0.151l0.061,0.15l0.061,0.149l0.062,0.148l0.062,0.147l0.062,0.146l0.063,0.145l0.064,0.144l0.063,0.143l0.065,0.142l0.064,0.141l0.065,0.14l0.065,0.139l0.066,0.138l0.066,0.137l0.066,0.137l0.067,0.135l0.067,0.134l0.067,0.134l0.068,0.132l0.068,0.131l0.068,0.131l0.069,0.13l0.069,0.128l0.07,0.128l0.069,0.127l0.071,0.126l0.07,0.125l0.071,0.124l0.071,0.124l0.071,0.123l0.072,0.121l0.072,0.121l0.072,0.121l0.073,0.119l0.073,0.118l0.073,0.118l0.074,0.116l0.073,0.116l0.075,0.116l0.074,0.114l0.075,0.113l0.074,0.113l0.076,0.112l0.076,0.112l0.075,0.11l0.077,0.11l0.076,0.109l0.077,0.108l0.077,0.107l0.077,0.107l0.078,0.106l0.077,0.105l0.079,0.105l0.078,0.104l0.079,0.103l0.079,0.103l0.079,0.101l0.079,0.101l0.08,0.101l0.08,0.099l0.08,0.099l0.081,0.099l0.081,0.098l0.08,0.096l0.082,0.097l0.082,0.096l0.082,0.095l0.082,0.094l0.082,0.094l0.083,0.093l0.082,0.092l0.084,0.093l0.083,0.091l0.084,0.091l0.084,0.09l0.083,0.089l0.085,0.089l0.085,0.089l0.085,0.087l0.085,0.087l0.085,0.087l0.086,0.085l0.086,0.086l0.086,0.085l0.086,0.084l0.087,0.084l0.087,0.083l0.087,0.083l0.088,0.082l0.087,0.081l0.088,0.081l0.088,0.081l0.089,0.08l0.088,0.079l0.089,0.079l0.089,0.078l0.09,0.078l0.089,0.077l0.089,0.077l0.09,0.076l0.091,0.076l0.091,0.075l0.091,0.075l0.091,0.074l0.091,0.074l0.091,0.073l0.091,0.072l0.083,0.065l0.194,0.151l0.185,0.141l0.187,0.139l0.187,0.137l0.189,0.136l0.189,0.134l0.189,0.131l0.191,0.13l0.191,0.128l0.193,0.126l0.193,0.125l0.194,0.123l0.195,0.121l0.195,0.119l0.197,0.118l0.197,0.116l0.198,0.114l0.198,0.112l0.199,0.111l0.201,0.109l0.2,0.108l0.201,0.106l0.202,0.104l0.203,0.102l0.203,0.101l0.203,0.1l0.205,0.097l0.204,0.097l0.205,0.094l0.206,0.093l0.206,0.092l0.207,0.09l0.207,0.088l0.207,0.087l0.208,0.085l0.208,0.084l0.208,0.082l0.209,0.081l0.209,0.079l0.209,0.078l0.21,0.076l0.21,0.075l0.209,0.073l0.21,0.072l0.21,0.071l0.209,0.069l0.21,0.067l0.21,0.066l0.21,0.065l0.211,0.064l0.209,0.062l0.21,0.061l0.209,0.059l0.209,0.058l0.209,0.056l0.209,0.056l0.208,0.054l0.209,0.052l0.208,0.052l0.207,0.05l0.207,0.048l0.206,0.048l0.207,0.046l0.205,0.046l0.205,0.043l0.204,0.043l0.204,0.041l0.203,0.041l0.203,0.039l0.201,0.037l0.201,0.037l0.2,0.036l0.2,0.034l0.198,0.033l0.198,0.033l0.197,0.031l0.195,0.03l0.195,0.029l0.193,0.028l0.192,0.027l0.192,0.026l0.19,0.025l0.189,0.024l0.188,0.023l0.187,0.022l0.185,0.021l0.183,0.02l0.183,0.019l0.181,0.019l0.18,0.017l0.179,0.017l0.176,0.016l0.175,0.015l0.174,0.014l0.172,0.013l0.17,0.013l0.169,0.012l0.167,0.011l0.155,0.009l0.336,0.02l0.317,0.015l0.31,0.014l0.302,0.011l0.294,0.008l0.285,0.007l0.276,0.004l0.267,0.003l0.257,0.001l0.247,-0.001l0.239,-0.002l0.227,-0.004l0.216,-0.004l0.206,-0.005l0.195,-0.007l0.183,-0.006l0.172,-0.008l0.16,-0.008l0.147,-0.007l0.136,-0.008l0.121,-0.008l0.097,-0.007l0.193,-0.014l0.122,-0.011l0.065,-0.006l0.008,-0.001l0.596,-0.066l279.172,0l0.28,-0.001l0.27,-0.001l0.269,-0.002l0.267,-0.004l0.266,-0.004l0.264,-0.004l0.263,-0.006l0.26,-0.007l0.26,-0.007l0.258,-0.009l0.257,-0.009l0.254,-0.01l0.254,-0.011l0.252,-0.011l0.25,-0.013l0.248,-0.013l0.248,-0.015l0.246,-0.014l0.244,-0.016l0.243,-0.017l0.242,-0.017l0.24,-0.018l0.238,-0.019l0.237,-0.02l0.235,-0.02l0.234,-0.021l0.232,-0.022l0.231,-0.023l0.23,-0.023l0.227,-0.025l0.227,-0.024l0.225,-0.026l0.224,-0.026l0.222,-0.027l0.221,-0.028l0.219,-0.029l0.218,-0.029l0.216,-0.029l0.215,-0.031l0.214,-0.031l0.212,-0.032l0.211,-0.032l0.209,-0.033l0.208,-0.034l0.207,-0.035l0.205,-0.035l0.203,-0.035l0.203,-0.036l0.201,-0.037l0.199,-0.038l0.198,-0.038l0.198,-0.039l0.195,-0.039l0.194,-0.04l0.192,-0.04l0.192,-0.041l0.19,-0.042l0.189,-0.042l0.187,-0.043l0.186,-0.043l0.185,-0.044l0.183,-0.044l0.183,-0.045l0.18,-0.045l0.18,-0.046l0.177,-0.046l0.177,-0.047l0.176,-0.048l0.175,-0.048l0.173,-0.048l0.171,-0.049l0.171,-0.049l0.169,-0.05l0.168,-0.05l0.166,-0.051l0.166,-0.052l0.164,-0.051l0.163,-0.052l0.162,-0.053l0.16,-0.053l0.16,-0.053l0.159,-0.054l0.156,-0.054l0.156,-0.055l0.154,-0.055l0.153,-0.055l0.153,-0.056l0.151,-0.057l0.15,-0.056l0.148,-0.057l0.148,-0.057l0.146,-0.058l0.146,-0.059l0.144,-0.058l0.143,-0.059l0.142,-0.059l0.141,-0.06l0.139,-0.059l0.139,-0.061l0.137,-0.06l0.138,-0.061l0.135,-0.062l0.134,-0.061l0.134,-0.062l0.132,-0.062l0.13,-0.062l0.13,-0.063l0.13,-0.064l0.128,-0.063l0.127,-0.064l0.126,-0.064l0.125,-0.064l0.124,-0.065l0.123,-0.064l0.122,-0.066l0.122,-0.065l0.12,-0.066l0.119,-0.066l0.118,-0.066l0.118,-0.067l0.117,-0.067l0.114,-0.066l0.115,-0.067l0.114,-0.068l0.112,-0.068l0.112,-0.068l0.111,-0.068l0.11,-0.068l0.109,-0.069l0.109,-0.07l0.107,-0.068l0.106,-0.069l0.106,-0.071l0.105,-0.07l0.104,-0.07l0.104,-0.07l0.102,-0.071l0.101,-0.07l0.101,-0.071l0.1,-0.071l0.099,-0.072l0.098,-0.071l0.099,-0.073l0.097,-0.072l0.095,-0.072l0.096,-0.072l0.094,-0.073l0.094,-0.073l0.093,-0.073l0.093,-0.074l0.091,-0.073l0.091,-0.073l0.09,-0.074l0.09,-0.075l0.089,-0.074l0.088,-0.075l0.087,-0.074l0.087,-0.075l0.086,-0.075l0.085,-0.076l0.085,-0.075l0.085,-0.076l0.083,-0.077l0.083,-0.075l0.081,-0.076l0.082,-0.077l0.081,-0.077l0.081,-0.077l0.079,-0.077l0.079,-0.076l0.078,-0.078l0.079,-0.078l0.076,-0.078l0.077,-0.078l0.076,-0.079l0.076,-0.078l0.075,-0.079l0.074,-0.078l0.073,-0.079l0.073,-0.079l0.074,-0.08l0.072,-0.08l0.071,-0.079l0.071,-0.08l0.071,-0.081l0.069,-0.08l0.07,-0.081l0.068,-0.081l0.069,-0.08l0.068,-0.082l0.067,-0.081l0.067,-0.082l0.066,-0.081l0.065,-0.082l0.066,-0.082l0.065,-0.083l0.064,-0.082l0.064,-0.083l0.063,-0.083l0.062,-0.082l0.063,-0.084l0.054,-0.073l0.13,-0.178l0.12,-0.168l0.118,-0.169l0.117,-0.17l0.115,-0.171l0.113,-0.171l0.111,-0.171l0.11,-0.173l0.107,-0.174l0.106,-0.174l0.105,-0.174l0.102,-0.176l0.101,-0.176l0.099,-0.177l0.098,-0.177l0.096,-0.178l0.094,-0.18l0.093,-0.179l0.091,-0.179l0.09,-0.182l0.088,-0.18l0.086,-0.182l0.085,-0.183l0.083,-0.182l0.082,-0.183l0.081,-0.185l0.078,-0.184l0.078,-0.184l0.075,-0.185l0.075,-0.186l0.073,-0.186l0.071,-0.186l0.07,-0.187l0.068,-0.187l0.067,-0.187l0.066,-0.188l0.064,-0.188l0.063,-0.187l0.061,-0.189l0.06,-0.188l0.059,-0.189l0.057,-0.189l0.056,-0.188l0.055,-0.189l0.053,-0.189l0.051,-0.188l0.051,-0.189l0.049,-0.189l0.048,-0.188l0.047,-0.188l0.045,-0.189l0.044,-0.188l0.043,-0.188l0.041,-0.187l0.041,-0.187l0.039,-0.188l0.038,-0.186l0.036,-0.187l0.036,-0.185l0.034,-0.185l0.033,-0.185l0.032,-0.184l0.031,-0.184l0.03,-0.184l0.028,-0.182l0.028,-0.182l0.026,-0.181l0.026,-0.18l0.024,-0.18l0.023,-0.179l0.022,-0.177l0.022,-0.178l0.02,-0.177l0.019,-0.175l0.019,-0.173l0.017,-0.174l0.016,-0.173l0.016,-0.17l0.014,-0.17l0.014,-0.169l0.013,-0.167l0.012,-0.166l0.011,-0.166l0.011,-0.164l0.009,-0.161l0.009,-0.162l0.008,-0.159l0.007,-0.158l0.007,-0.158l0.005,-0.154l0.006,-0.153l0.004,-0.152l0.004,-0.15l0.003,-0.15l0.002,-0.136l0.004,-0.299l0.001,-0.281l-0.001,-0.273l-0.003,-0.266l-0.005,-0.258l-0.006,-0.248l-0.008,-0.24l-0.009,-0.232l-0.01,-0.222l-0.011,-0.211l-0.012,-0.203l-0.012,-0.192l-0.013,-0.181l-0.014,-0.17l-0.013,-0.16l-0.013,-0.148l-0.013,-0.138l-0.013,-0.124l-0.012,-0.112l-0.011,-0.1l-0.01,-0.087l-0.008,-0.062l-0.016,-0.122l-0.007,-0.053l-0.001,-0.005l-0.132,-0.841l0,-230.692l-78.268,-83.437l-241.551,-3.924l-0.237,-0.003l-0.221,-0.002l-0.22,-0.001l-0.218,0.001Z" style="fill:#424651;"/><rect x="87.879" y="22.556" width="191.462" height="107.075" style="fill:#f3f4f5;fill-rule:nonzero;"/><path d="M74.445,137.202l0,-114.646l15.142,0l0,99.503l182.183,0l0,-99.503l15.142,0l0,114.646l-212.467,0Z" style="fill:#424651;"/><path d="M336.504,194.359l0,192.284l-15.142,0l0,-177.141l-235.995,0l0,170.329l-15.143,0l0,-185.472l266.28,0Z" style="fill:#424651;"/><rect x="222.945" y="36.576" width="30.604" height="68.35" style="fill:#ca584a;fill-rule:nonzero;"/><rect x="106.875" y="225.985" width="193.104" height="22.158" style="fill:#ca584a;fill-rule:nonzero;"/><rect x="106.875" y="263.685" width="193.104" height="22.158" style="fill:#ca584a;fill-rule:nonzero;"/><rect x="106.875" y="301.389" width="193.104" height="22.154" style="fill:#ca584a;fill-rule:nonzero;"/><rect x="106.875" y="339.085" width="193.104" height="22.163" style="fill:#ca584a;fill-rule:nonzero;"/></svg>