<?xml version="1.0" encoding="UTF-8" standalone="no"?><!DOCTYPE svg PUBLIC "-//W3C//DTD SVG 1.1//EN" "http://www.w3.org/Graphics/SVG/1.1/DTD/svg11.dtd"><svg width="100%" height="100%" viewBox="0 0 400 400" version="1.1" xmlns="http://www.w3.org/2000/svg" xmlns:xlink="http://www.w3.org/1999/xlink" xml:space="preserve" style="fill-rule:evenodd;clip-rule:evenodd;stroke-linejoin:round;stroke-miterlimit:1.41421;"><path d="M176.613,191.201l131.602,-65.698c-0.679,-1.424 -0.932,-3.064 -1.653,-4.462c-25.915,-50.169 -78.264,-84.464 -138.624,-84.464c-86.114,0 -155.923,69.809 -155.923,155.923c0,86.111 69.809,155.92 155.923,155.92c65.6,0 121.721,-40.518 144.742,-97.886l-136.067,-59.333Z" style="fill:#e88a4a;fill-rule:nonzero;"/><path d="M168.315,25.789l0.376,0.001l0.376,0.002l0.376,0.003l0.375,0.004l0.376,0.004l0.375,0.006l0.375,0.006l0.375,0.007l0.374,0.008l0.375,0.008l0.374,0.01l0.374,0.01l0.374,0.012l0.374,0.012l0.373,0.012l0.373,0.014l0.374,0.015l0.372,0.015l0.373,0.016l0.372,0.017l0.373,0.018l0.372,0.018l0.372,0.02l0.371,0.02l0.372,0.021l0.371,0.022l0.371,0.023l0.371,0.023l0.37,0.024l0.371,0.025l0.37,0.026l0.37,0.027l0.37,0.028l0.369,0.028l0.369,0.029l0.369,0.03l0.369,0.031l0.369,0.031l0.368,0.033l0.368,0.033l0.368,0.034l0.368,0.034l0.368,0.036l0.367,0.036l0.367,0.037l0.367,0.038l0.366,0.039l0.367,0.04l0.366,0.04l0.366,0.041l0.365,0.042l0.366,0.043l0.365,0.043l0.365,0.045l0.365,0.045l0.364,0.046l0.364,0.046l0.364,0.048l0.364,0.048l0.364,0.049l0.363,0.05l0.363,0.05l0.363,0.052l0.362,0.052l0.363,0.053l0.362,0.053l0.361,0.055l0.362,0.055l0.361,0.056l0.361,0.057l0.361,0.057l0.361,0.059l0.36,0.059l0.36,0.06l0.36,0.06l0.359,0.062l0.359,0.062l0.359,0.063l0.359,0.064l0.358,0.064l0.359,0.066l0.358,0.066l0.363,0.068l0.709,0.134l0.713,0.139l0.712,0.142l0.712,0.145l0.71,0.148l0.709,0.152l0.708,0.154l0.707,0.157l0.706,0.16l0.704,0.163l0.704,0.166l0.702,0.169l0.701,0.172l0.7,0.175l0.699,0.178l0.698,0.181l0.696,0.184l0.695,0.186l0.694,0.19l0.693,0.193l0.692,0.195l0.69,0.199l0.689,0.201l0.688,0.204l0.687,0.207l0.686,0.21l0.684,0.213l0.683,0.216l0.681,0.219l0.681,0.221l0.679,0.224l0.678,0.227l0.676,0.23l0.675,0.233l0.674,0.236l0.673,0.238l0.671,0.241l0.67,0.244l0.668,0.247l0.667,0.249l0.666,0.253l0.664,0.255l0.663,0.257l0.662,0.261l0.66,0.263l0.659,0.266l0.658,0.269l0.656,0.272l0.654,0.274l0.654,0.277l0.651,0.279l0.651,0.283l0.649,0.285l0.647,0.287l0.646,0.291l0.644,0.293l0.644,0.295l0.641,0.298l0.64,0.301l0.639,0.304l0.637,0.306l0.635,0.309l0.634,0.311l0.633,0.314l0.631,0.317l0.629,0.319l0.628,0.322l0.626,0.325l0.625,0.327l0.623,0.329l0.622,0.332l0.62,0.335l0.618,0.337l0.617,0.34l0.615,0.342l0.614,0.345l0.612,0.347l0.61,0.35l0.609,0.352l0.607,0.355l0.605,0.357l0.604,0.36l0.602,0.362l0.601,0.365l0.599,0.367l0.597,0.369l0.595,0.372l0.594,0.375l0.592,0.377l0.59,0.379l0.589,0.382l0.587,0.384l0.585,0.386l0.584,0.389l0.581,0.392l0.58,0.393l0.578,0.396l0.577,0.399l0.574,0.401l0.573,0.403l0.571,0.405l0.57,0.408l0.567,0.41l0.566,0.413l0.564,0.415l0.562,0.417l0.56,0.419l0.558,0.422l0.557,0.424l0.555,0.426l0.553,0.429l0.551,0.431l0.549,0.433l0.547,0.435l0.545,0.438l0.544,0.439l0.542,0.443l0.539,0.444l0.538,0.446l0.536,0.449l0.534,0.451l0.532,0.453l0.53,0.455l0.528,0.458l0.526,0.46l0.525,0.462l0.522,0.463l0.52,0.467l0.519,0.468l0.516,0.47l0.514,0.473l0.513,0.475l0.51,0.477l0.508,0.479l0.507,0.481l0.504,0.483l0.502,0.485l0.501,0.488l0.498,0.489l0.496,0.492l0.494,0.493l0.492,0.496l0.49,0.498l0.488,0.499l0.486,0.502l0.483,0.504l0.482,0.506l0.479,0.508l0.478,0.51l0.475,0.511l0.473,0.514l0.471,0.516l0.469,0.518l0.467,0.52l0.464,0.522l0.463,0.523l0.46,0.526l0.458,0.528l0.456,0.53l0.453,0.531l0.452,0.534l0.449,0.535l0.447,0.538l0.445,0.539l0.443,0.541l0.44,0.543l0.438,0.545l0.436,0.547l0.434,0.548l0.431,0.551l0.429,0.553l0.427,0.554l0.425,0.556l0.422,0.558l0.42,0.56l0.418,0.561l0.415,0.564l0.413,0.565l0.411,0.567l0.408,0.569l0.406,0.571l0.404,0.572l0.401,0.574l0.399,0.576l0.397,0.578l0.394,0.58l0.392,0.581l0.39,0.583l0.387,0.585l0.384,0.586l0.383,0.588l0.38,0.59l0.377,0.592l0.375,0.593l0.373,0.595l0.37,0.597l0.368,0.599l0.365,0.6l0.363,0.601l0.36,0.604l0.358,0.605l0.355,0.607l0.353,0.608l0.351,0.61l0.347,0.612l0.346,0.613l0.343,0.615l0.34,0.616l0.338,0.618l0.335,0.62l0.333,0.621l0.33,0.623l0.327,0.624l0.325,0.626l0.275,0.535l0.271,0.532l0.269,0.533l0.268,0.534l0.265,0.535l0.264,0.537l0.262,0.538l0.26,0.539l0.259,0.54l0.256,0.542l0.255,0.542l0.253,0.544l0.251,0.545l0.249,0.546l0.247,0.547l0.238,0.531l-18.728,8.376l-0.222,-0.496l-0.216,-0.479l-0.218,-0.477l-0.22,-0.477l-0.221,-0.476l-0.223,-0.474l-0.224,-0.475l-0.227,-0.473l-0.228,-0.472l-0.23,-0.472l-0.231,-0.471l-0.233,-0.47l-0.235,-0.469l-0.237,-0.469l-0.238,-0.467l-0.238,-0.463l-0.285,-0.549l-0.287,-0.547l-0.289,-0.546l-0.292,-0.544l-0.294,-0.543l-0.296,-0.542l-0.298,-0.54l-0.3,-0.539l-0.303,-0.537l-0.305,-0.536l-0.307,-0.535l-0.309,-0.533l-0.312,-0.532l-0.313,-0.53l-0.316,-0.529l-0.318,-0.527l-0.32,-0.526l-0.323,-0.525l-0.324,-0.523l-0.327,-0.522l-0.329,-0.52l-0.33,-0.519l-0.333,-0.517l-0.336,-0.515l-0.337,-0.515l-0.339,-0.512l-0.342,-0.511l-0.343,-0.51l-0.346,-0.508l-0.348,-0.507l-0.35,-0.505l-0.352,-0.503l-0.354,-0.502l-0.356,-0.501l-0.358,-0.499l-0.36,-0.497l-0.362,-0.496l-0.365,-0.494l-0.366,-0.492l-0.368,-0.491l-0.371,-0.49l-0.372,-0.487l-0.374,-0.486l-0.377,-0.485l-0.378,-0.483l-0.38,-0.481l-0.383,-0.48l-0.384,-0.478l-0.386,-0.476l-0.388,-0.475l-0.391,-0.473l-0.392,-0.471l-0.394,-0.47l-0.396,-0.467l-0.398,-0.467l-0.4,-0.464l-0.401,-0.463l-0.404,-0.461l-0.406,-0.46l-0.407,-0.458l-0.41,-0.456l-0.411,-0.454l-0.413,-0.453l-0.415,-0.45l-0.417,-0.45l-0.419,-0.447l-0.42,-0.445l-0.423,-0.444l-0.424,-0.442l-0.426,-0.44l-0.428,-0.439l-0.43,-0.436l-0.432,-0.435l-0.433,-0.433l-0.435,-0.431l-0.437,-0.43l-0.439,-0.427l-0.441,-0.426l-0.442,-0.424l-0.445,-0.422l-0.446,-0.42l-0.447,-0.418l-0.45,-0.417l-0.451,-0.414l-0.453,-0.413l-0.455,-0.411l-0.456,-0.409l-0.458,-0.407l-0.46,-0.405l-0.462,-0.403l-0.463,-0.402l-0.465,-0.399l-0.467,-0.398l-0.468,-0.395l-0.47,-0.394l-0.472,-0.391l-0.473,-0.39l-0.475,-0.388l-0.477,-0.386l-0.478,-0.383l-0.48,-0.382l-0.482,-0.38l-0.483,-0.378l-0.485,-0.376l-0.487,-0.374l-0.488,-0.372l-0.489,-0.369l-0.492,-0.368l-0.493,-0.366l-0.494,-0.364l-0.496,-0.362l-0.498,-0.359l-0.499,-0.358l-0.501,-0.355l-0.502,-0.354l-0.504,-0.351l-0.506,-0.35l-0.507,-0.347l-0.508,-0.345l-0.51,-0.343l-0.511,-0.341l-0.514,-0.339l-0.514,-0.337l-0.516,-0.335l-0.518,-0.332l-0.519,-0.331l-0.52,-0.328l-0.522,-0.326l-0.523,-0.324l-0.525,-0.322l-0.527,-0.319l-0.527,-0.318l-0.53,-0.315l-0.53,-0.313l-0.532,-0.311l-0.534,-0.309l-0.535,-0.306l-0.536,-0.305l-0.538,-0.302l-0.539,-0.3l-0.541,-0.298l-0.542,-0.295l-0.543,-0.293l-0.545,-0.291l-0.546,-0.289l-0.547,-0.286l-0.549,-0.285l-0.55,-0.282l-0.551,-0.279l-0.553,-0.278l-0.554,-0.275l-0.556,-0.273l-0.556,-0.27l-0.558,-0.269l-0.56,-0.265l-0.561,-0.264l-0.562,-0.261l-0.563,-0.259l-0.564,-0.257l-0.566,-0.254l-0.567,-0.252l-0.569,-0.25l-0.569,-0.247l-0.571,-0.245l-0.572,-0.243l-0.573,-0.24l-0.575,-0.237l-0.576,-0.236l-0.577,-0.233l-0.578,-0.23l-0.579,-0.229l-0.581,-0.225l-0.582,-0.224l-0.583,-0.221l-0.584,-0.218l-0.586,-0.216l-0.586,-0.214l-0.588,-0.211l-0.589,-0.209l-0.59,-0.206l-0.591,-0.204l-0.592,-0.201l-0.594,-0.199l-0.595,-0.196l-0.595,-0.194l-0.597,-0.192l-0.598,-0.188l-0.599,-0.187l-0.6,-0.184l-0.602,-0.181l-0.602,-0.179l-0.604,-0.176l-0.604,-0.174l-0.606,-0.171l-0.607,-0.169l-0.607,-0.166l-0.609,-0.163l-0.61,-0.161l-0.611,-0.159l-0.612,-0.156l-0.613,-0.153l-0.614,-0.151l-0.615,-0.148l-0.616,-0.145l-0.617,-0.143l-0.618,-0.14l-0.619,-0.138l-0.62,-0.135l-0.621,-0.132l-0.622,-0.13l-0.623,-0.127l-0.624,-0.124l-0.625,-0.122l-0.632,-0.12l-0.308,-0.057l-0.313,-0.058l-0.314,-0.057l-0.314,-0.057l-0.314,-0.056l-0.315,-0.055l-0.314,-0.055l-0.315,-0.053l-0.316,-0.054l-0.315,-0.052l-0.316,-0.052l-0.316,-0.051l-0.316,-0.05l-0.316,-0.05l-0.317,-0.049l-0.317,-0.049l-0.317,-0.047l-0.317,-0.048l-0.317,-0.046l-0.318,-0.046l-0.318,-0.045l-0.318,-0.044l-0.319,-0.044l-0.318,-0.042l-0.319,-0.043l-0.319,-0.041l-0.32,-0.041l-0.319,-0.04l-0.32,-0.04l-0.32,-0.039l-0.32,-0.038l-0.32,-0.037l-0.321,-0.037l-0.321,-0.036l-0.321,-0.036l-0.321,-0.034l-0.322,-0.034l-0.321,-0.033l-0.322,-0.033l-0.322,-0.032l-0.323,-0.031l-0.322,-0.031l-0.323,-0.029l-0.323,-0.029l-0.323,-0.029l-0.323,-0.027l-0.324,-0.027l-0.324,-0.027l-0.324,-0.025l-0.324,-0.025l-0.324,-0.024l-0.325,-0.024l-0.325,-0.022l-0.325,-0.022l-0.325,-0.022l-0.325,-0.02l-0.326,-0.02l-0.326,-0.019l-0.326,-0.019l-0.326,-0.018l-0.327,-0.017l-0.326,-0.016l-0.327,-0.016l-0.327,-0.014l-0.327,-0.015l-0.328,-0.013l-0.327,-0.013l-0.328,-0.012l-0.328,-0.011l-0.328,-0.011l-0.329,-0.01l-0.328,-0.009l-0.329,-0.008l-0.329,-0.008l-0.329,-0.007l-0.329,-0.006l-0.33,-0.005l-0.33,-0.005l-0.329,-0.004l-0.331,-0.003l-0.33,-0.003l-0.33,-0.002l-0.331,-0.001l-0.328,0l-0.475,0l-0.471,0.003l-0.471,0.003l-0.471,0.006l-0.47,0.006l-0.47,0.009l-0.47,0.009l-0.469,0.011l-0.469,0.013l-0.469,0.014l-0.468,0.016l-0.467,0.017l-0.468,0.018l-0.467,0.02l-0.466,0.022l-0.466,0.022l-0.466,0.025l-0.465,0.026l-0.465,0.027l-0.465,0.029l-0.464,0.03l-0.463,0.031l-0.463,0.033l-0.463,0.035l-0.463,0.036l-0.462,0.037l-0.461,0.039l-0.461,0.04l-0.461,0.042l-0.46,0.043l-0.46,0.044l-0.46,0.046l-0.459,0.048l-0.458,0.048l-0.458,0.051l-0.458,0.051l-0.457,0.053l-0.457,0.055l-0.456,0.055l-0.456,0.058l-0.456,0.058l-0.455,0.06l-0.454,0.062l-0.454,0.062l-0.454,0.065l-0.453,0.065l-0.453,0.067l-0.452,0.069l-0.452,0.069l-0.451,0.072l-0.451,0.072l-0.45,0.074l-0.45,0.075l-0.45,0.077l-0.449,0.078l-0.448,0.079l-0.448,0.081l-0.448,0.082l-0.447,0.084l-0.446,0.084l-0.446,0.087l-0.446,0.087l-0.445,0.089l-0.444,0.09l-0.444,0.092l-0.444,0.093l-0.443,0.094l-0.443,0.096l-0.442,0.097l-0.441,0.098l-0.441,0.1l-0.441,0.101l-0.44,0.102l-0.439,0.104l-0.439,0.104l-0.439,0.107l-0.438,0.107l-0.437,0.109l-0.437,0.11l-0.436,0.112l-0.436,0.113l-0.436,0.114l-0.434,0.116l-0.435,0.116l-0.433,0.118l-0.434,0.12l-0.432,0.12l-0.432,0.122l-0.432,0.124l-0.431,0.124l-0.43,0.126l-0.43,0.127l-0.429,0.129l-0.429,0.13l-0.428,0.131l-0.428,0.132l-0.427,0.133l-0.427,0.135l-0.426,0.136l-0.425,0.138l-0.425,0.138l-0.424,0.14l-0.424,0.141l-0.423,0.143l-0.422,0.144l-0.422,0.145l-0.422,0.146l-0.42,0.147l-0.421,0.149l-0.419,0.15l-0.419,0.151l-0.419,0.153l-0.417,0.153l-0.418,0.155l-0.416,0.156l-0.416,0.158l-0.416,0.159l-0.414,0.159l-0.414,0.162l-0.414,0.162l-0.413,0.163l-0.412,0.165l-0.412,0.166l-0.411,0.167l-0.411,0.169l-0.409,0.17l-0.41,0.17l-0.408,0.173l-0.408,0.173l-0.407,0.174l-0.407,0.176l-0.406,0.177l-0.406,0.178l-0.404,0.179l-0.405,0.181l-0.403,0.181l-0.403,0.183l-0.402,0.184l-0.402,0.186l-0.4,0.186l-0.401,0.188l-0.399,0.188l-0.399,0.19l-0.398,0.191l-0.398,0.193l-0.397,0.193l-0.396,0.195l-0.395,0.196l-0.395,0.197l-0.394,0.198l-0.394,0.199l-0.393,0.201l-0.392,0.201l-0.391,0.203l-0.391,0.204l-0.39,0.205l-0.39,0.206l-0.388,0.207l-0.388,0.209l-0.388,0.21l-0.386,0.21l-0.386,0.212l-0.385,0.213l-0.385,0.214l-0.383,0.216l-0.383,0.216l-0.383,0.218l-0.381,0.218l-0.381,0.22l-0.38,0.221l-0.38,0.222l-0.379,0.223l-0.378,0.224l-0.377,0.226l-0.376,0.226l-0.376,0.228l-0.375,0.228l-0.374,0.23l-0.374,0.231l-0.373,0.232l-0.372,0.233l-0.371,0.234l-0.371,0.235l-0.37,0.237l-0.369,0.237l-0.368,0.238l-0.367,0.24l-0.367,0.241l-0.366,0.241l-0.365,0.243l-0.365,0.244l-0.364,0.245l-0.363,0.246l-0.362,0.247l-0.361,0.248l-0.361,0.249l-0.359,0.25l-0.359,0.252l-0.359,0.252l-0.357,0.253l-0.357,0.255l-0.356,0.255l-0.355,0.257l-0.354,0.257l-0.353,0.259l-0.353,0.259l-0.352,0.261l-0.351,0.262l-0.35,0.262l-0.349,0.264l-0.349,0.265l-0.348,0.266l-0.347,0.267l-0.346,0.267l-0.345,0.269l-0.345,0.27l-0.343,0.271l-0.343,0.272l-0.342,0.273l-0.341,0.274l-0.34,0.275l-0.34,0.276l-0.338,0.276l-0.338,0.278l-0.337,0.279l-0.336,0.28l-0.336,0.281l-0.334,0.282l-0.333,0.283l-0.333,0.284l-0.332,0.284l-0.331,0.286l-0.33,0.287l-0.329,0.288l-0.328,0.288l-0.328,0.29l-0.326,0.291l-0.326,0.291l-0.325,0.293l-0.324,0.293l-0.323,0.295l-0.322,0.295l-0.321,0.297l-0.321,0.297l-0.319,0.298l-0.319,0.3l-0.317,0.3l-0.317,0.301l-0.316,0.302l-0.315,0.303l-0.314,0.304l-0.313,0.305l-0.312,0.306l-0.312,0.306l-0.31,0.308l-0.31,0.309l-0.308,0.309l-0.308,0.31l-0.307,0.312l-0.306,0.312l-0.304,0.313l-0.304,0.314l-0.303,0.315l-0.302,0.316l-0.302,0.317l-0.3,0.318l-0.299,0.318l-0.298,0.32l-0.298,0.32l-0.296,0.321l-0.296,0.323l-0.294,0.323l-0.294,0.323l-0.292,0.325l-0.292,0.326l-0.29,0.327l-0.29,0.327l-0.289,0.328l-0.288,0.33l-0.286,0.33l-0.286,0.33l-0.285,0.332l-0.284,0.333l-0.283,0.333l-0.281,0.335l-0.281,0.335l-0.28,0.336l-0.279,0.337l-0.278,0.338l-0.277,0.338l-0.276,0.34l-0.275,0.34l-0.274,0.341l-0.273,0.342l-0.271,0.343l-0.271,0.344l-0.27,0.344l-0.269,0.345l-0.268,0.346l-0.267,0.347l-0.266,0.348l-0.264,0.349l-0.264,0.349l-0.263,0.35l-0.261,0.351l-0.261,0.352l-0.26,0.353l-0.258,0.353l-0.258,0.355l-0.256,0.355l-0.256,0.355l-0.254,0.357l-0.254,0.357l-0.252,0.359l-0.251,0.359l-0.251,0.359l-0.249,0.361l-0.248,0.361l-0.247,0.363l-0.246,0.362l-0.245,0.364l-0.244,0.365l-0.242,0.365l-0.242,0.366l-0.241,0.367l-0.239,0.367l-0.239,0.368l-0.237,0.369l-0.236,0.37l-0.236,0.371l-0.234,0.371l-0.233,0.372l-0.232,0.373l-0.231,0.373l-0.229,0.375l-0.229,0.375l-0.227,0.376l-0.227,0.376l-0.225,0.377l-0.225,0.378l-0.223,0.379l-0.222,0.379l-0.221,0.381l-0.219,0.38l-0.219,0.382l-0.218,0.382l-0.216,0.383l-0.215,0.384l-0.214,0.385l-0.213,0.385l-0.212,0.386l-0.211,0.386l-0.21,0.387l-0.208,0.388l-0.208,0.389l-0.206,0.389l-0.205,0.391l-0.204,0.39l-0.202,0.392l-0.202,0.392l-0.201,0.393l-0.199,0.393l-0.198,0.394l-0.197,0.395l-0.196,0.396l-0.194,0.396l-0.194,0.397l-0.192,0.397l-0.191,0.399l-0.19,0.398l-0.189,0.4l-0.188,0.4l-0.186,0.401l-0.185,0.402l-0.184,0.402l-0.183,0.402l-0.182,0.404l-0.18,0.404l-0.18,0.405l-0.178,0.405l-0.177,0.406l-0.175,0.407l-0.175,0.407l-0.173,0.408l-0.172,0.409l-0.171,0.409l-0.17,0.41l-0.168,0.41l-0.167,0.411l-0.166,0.412l-0.165,0.412l-0.164,0.413l-0.162,0.414l-0.161,0.414l-0.16,0.415l-0.159,0.415l-0.157,0.416l-0.156,0.417l-0.155,0.417l-0.154,0.418l-0.152,0.418l-0.152,0.419l-0.15,0.42l-0.148,0.42l-0.148,0.42l-0.146,0.422l-0.145,0.422l-0.144,0.422l-0.142,0.423l-0.141,0.424l-0.14,0.424l-0.139,0.425l-0.137,0.425l-0.136,0.426l-0.135,0.427l-0.134,0.427l-0.132,0.428l-0.131,0.428l-0.13,0.429l-0.128,0.429l-0.127,0.43l-0.126,0.43l-0.125,0.431l-0.123,0.432l-0.122,0.432l-0.121,0.432l-0.119,0.433l-0.118,0.434l-0.117,0.434l-0.116,0.435l-0.114,0.435l-0.113,0.436l-0.111,0.437l-0.11,0.437l-0.109,0.437l-0.108,0.438l-0.106,0.438l-0.105,0.439l-0.104,0.44l-0.102,0.44l-0.101,0.44l-0.1,0.441l-0.098,0.442l-0.097,0.442l-0.096,0.443l-0.094,0.443l-0.093,0.443l-0.091,0.444l-0.091,0.445l-0.089,0.445l-0.087,0.445l-0.086,0.446l-0.085,0.447l-0.084,0.447l-0.082,0.447l-0.08,0.448l-0.08,0.449l-0.078,0.449l-0.076,0.449l-0.076,0.45l-0.074,0.45l-0.072,0.451l-0.071,0.451l-0.07,0.452l-0.068,0.453l-0.067,0.452l-0.066,0.453l-0.064,0.454l-0.063,0.454l-0.061,0.455l-0.06,0.455l-0.059,0.455l-0.057,0.456l-0.056,0.456l-0.055,0.457l-0.053,0.457l-0.051,0.458l-0.05,0.458l-0.049,0.458l-0.047,0.459l-0.046,0.46l-0.045,0.46l-0.043,0.46l-0.042,0.461l-0.04,0.461l-0.039,0.461l-0.037,0.462l-0.036,0.463l-0.034,0.462l-0.033,0.464l-0.032,0.463l-0.03,0.464l-0.029,0.465l-0.027,0.464l-0.026,0.466l-0.024,0.465l-0.023,0.467l-0.022,0.466l-0.019,0.467l-0.019,0.467l-0.017,0.468l-0.016,0.468l-0.014,0.468l-0.012,0.469l-0.011,0.469l-0.01,0.47l-0.008,0.47l-0.007,0.47l-0.005,0.471l-0.004,0.471l-0.002,0.472l-0.001,0.472l0.001,0.472l0.002,0.471l0.004,0.471l0.005,0.471l0.007,0.47l0.008,0.471l0.01,0.469l0.011,0.469l0.012,0.469l0.014,0.469l0.016,0.468l0.017,0.468l0.019,0.467l0.02,0.467l0.021,0.466l0.023,0.466l0.024,0.466l0.026,0.465l0.027,0.465l0.029,0.465l0.03,0.464l0.032,0.464l0.033,0.463l0.034,0.463l0.036,0.462l0.037,0.462l0.039,0.462l0.04,0.461l0.042,0.461l0.043,0.46l0.045,0.46l0.046,0.459l0.047,0.459l0.049,0.459l0.05,0.458l0.051,0.457l0.053,0.458l0.055,0.457l0.056,0.456l0.057,0.456l0.059,0.455l0.06,0.455l0.061,0.455l0.063,0.454l0.064,0.454l0.066,0.453l0.067,0.452l0.068,0.453l0.07,0.451l0.071,0.452l0.072,0.451l0.074,0.45l0.076,0.45l0.076,0.449l0.078,0.449l0.08,0.449l0.08,0.448l0.082,0.447l0.084,0.447l0.085,0.447l0.086,0.446l0.087,0.446l0.089,0.445l0.091,0.444l0.091,0.444l0.093,0.444l0.094,0.443l0.096,0.443l0.097,0.442l0.098,0.441l0.1,0.441l0.101,0.441l0.102,0.44l0.104,0.439l0.105,0.439l0.106,0.439l0.108,0.438l0.109,0.437l0.11,0.437l0.111,0.437l0.113,0.435l0.114,0.436l0.116,0.434l0.117,0.435l0.118,0.433l0.119,0.434l0.121,0.432l0.122,0.432l0.123,0.432l0.125,0.431l0.126,0.43l0.127,0.43l0.128,0.43l0.13,0.428l0.131,0.429l0.132,0.427l0.134,0.427l0.135,0.427l0.136,0.426l0.137,0.425l0.139,0.425l0.14,0.424l0.141,0.424l0.142,0.423l0.144,0.423l0.145,0.422l0.146,0.421l0.148,0.421l0.148,0.42l0.15,0.419l0.152,0.419l0.152,0.419l0.154,0.418l0.155,0.417l0.156,0.416l0.157,0.416l0.159,0.416l0.16,0.415l0.161,0.414l0.162,0.413l0.164,0.413l0.165,0.413l0.166,0.411l0.167,0.411l0.168,0.411l0.17,0.41l0.171,0.409l0.172,0.408l0.173,0.409l0.175,0.407l0.175,0.406l0.177,0.407l0.178,0.405l0.18,0.405l0.18,0.404l0.182,0.403l0.183,0.403l0.184,0.402l0.185,0.402l0.186,0.401l0.188,0.4l0.189,0.399l0.19,0.399l0.191,0.399l0.192,0.397l0.194,0.397l0.194,0.396l0.196,0.396l0.197,0.395l0.198,0.394l0.2,0.393l0.2,0.393l0.202,0.392l0.202,0.392l0.204,0.39l0.205,0.391l0.207,0.389l0.207,0.389l0.208,0.388l0.21,0.387l0.211,0.386l0.212,0.386l0.213,0.386l0.214,0.384l0.215,0.384l0.217,0.383l0.217,0.382l0.219,0.382l0.219,0.381l0.221,0.38l0.222,0.379l0.223,0.379l0.225,0.378l0.225,0.377l0.227,0.377l0.227,0.375l0.229,0.376l0.23,0.374l0.23,0.373l0.232,0.373l0.233,0.372l0.234,0.371l0.236,0.371l0.236,0.37l0.237,0.369l0.239,0.368l0.239,0.368l0.241,0.367l0.242,0.365l0.242,0.366l0.244,0.364l0.245,0.364l0.246,0.363l0.247,0.362l0.248,0.361l0.249,0.361l0.251,0.36l0.251,0.359l0.252,0.358l0.254,0.357l0.254,0.357l0.256,0.356l0.256,0.355l0.258,0.354l0.258,0.354l0.26,0.352l0.261,0.352l0.261,0.351l0.263,0.35l0.264,0.35l0.264,0.348l0.266,0.348l0.267,0.347l0.268,0.346l0.269,0.345l0.27,0.345l0.271,0.343l0.271,0.343l0.273,0.342l0.274,0.341l0.275,0.341l0.276,0.339l0.277,0.339l0.278,0.338l0.279,0.336l0.28,0.336l0.281,0.336l0.281,0.334l0.283,0.334l0.284,0.332l0.285,0.332l0.286,0.331l0.286,0.33l0.288,0.329l0.289,0.328l0.29,0.328l0.29,0.326l0.292,0.326l0.292,0.325l0.294,0.324l0.294,0.323l0.296,0.322l0.296,0.321l0.298,0.321l0.298,0.319l0.299,0.319l0.3,0.317l0.302,0.317l0.302,0.316l0.303,0.315l0.304,0.314l0.304,0.313l0.306,0.313l0.307,0.311l0.308,0.31l0.308,0.31l0.31,0.308l0.31,0.308l0.312,0.307l0.312,0.306l0.313,0.304l0.314,0.304l0.315,0.303l0.316,0.302l0.317,0.302l0.317,0.3l0.319,0.299l0.319,0.298l0.321,0.298l0.321,0.296l0.322,0.295l0.323,0.295l0.324,0.294l0.325,0.292l0.326,0.292l0.326,0.29l0.328,0.29l0.328,0.289l0.329,0.287l0.33,0.287l0.331,0.286l0.332,0.285l0.333,0.284l0.333,0.282l0.334,0.282l0.336,0.281l0.336,0.28l0.337,0.279l0.338,0.278l0.338,0.277l0.339,0.276l0.341,0.275l0.341,0.274l0.342,0.272l0.343,0.272l0.343,0.271l0.345,0.27l0.345,0.269l0.346,0.268l0.347,0.267l0.348,0.265l0.349,0.265l0.349,0.264l0.35,0.263l0.351,0.261l0.352,0.261l0.353,0.26l0.353,0.258l0.354,0.258l0.355,0.256l0.356,0.256l0.357,0.254l0.357,0.253l0.359,0.253l0.359,0.251l0.359,0.25l0.361,0.249l0.361,0.248l0.362,0.248l0.363,0.245l0.364,0.245l0.365,0.244l0.365,0.243l0.366,0.242l0.367,0.24l0.367,0.24l0.368,0.238l0.37,0.238l0.369,0.236l0.371,0.235l0.371,0.234l0.372,0.233l0.373,0.232l0.374,0.231l0.374,0.23l0.375,0.228l0.376,0.228l0.376,0.227l0.377,0.225l0.378,0.224l0.379,0.223l0.379,0.222l0.381,0.221l0.381,0.22l0.381,0.218l0.382,0.218l0.384,0.217l0.383,0.215l0.385,0.214l0.385,0.213l0.386,0.212l0.386,0.211l0.388,0.209l0.388,0.209l0.388,0.207l0.39,0.206l0.39,0.205l0.391,0.204l0.391,0.203l0.392,0.201l0.393,0.201l0.393,0.199l0.395,0.198l0.395,0.197l0.395,0.196l0.396,0.195l0.397,0.193l0.398,0.193l0.398,0.191l0.399,0.19l0.399,0.188l0.401,0.188l0.4,0.186l0.402,0.186l0.402,0.184l0.403,0.183l0.404,0.181l0.404,0.181l0.404,0.179l0.406,0.178l0.406,0.177l0.406,0.176l0.408,0.174l0.407,0.173l0.409,0.172l0.41,0.171l0.409,0.17l0.411,0.168l0.411,0.168l0.412,0.166l0.412,0.164l0.413,0.164l0.414,0.162l0.414,0.162l0.414,0.159l0.416,0.159l0.416,0.157l0.417,0.157l0.417,0.155l0.417,0.153l0.419,0.153l0.419,0.151l0.419,0.15l0.42,0.149l0.421,0.147l0.422,0.146l0.421,0.145l0.423,0.144l0.423,0.142l0.424,0.142l0.424,0.139l0.425,0.139l0.425,0.137l0.426,0.137l0.427,0.134l0.427,0.134l0.427,0.132l0.429,0.131l0.428,0.13l0.43,0.128l0.43,0.128l0.43,0.125l0.431,0.125l0.432,0.123l0.432,0.122l0.433,0.121l0.433,0.119l0.433,0.118l0.435,0.117l0.434,0.116l0.436,0.114l0.436,0.113l0.436,0.111l0.437,0.11l0.437,0.109l0.438,0.108l0.438,0.106l0.439,0.105l0.44,0.104l0.44,0.102l0.441,0.101l0.441,0.1l0.441,0.098l0.442,0.097l0.443,0.096l0.443,0.094l0.444,0.093l0.444,0.091l0.444,0.091l0.445,0.089l0.446,0.087l0.446,0.086l0.446,0.085l0.448,0.084l0.447,0.082l0.448,0.08l0.448,0.08l0.449,0.078l0.45,0.076l0.45,0.076l0.45,0.074l0.451,0.072l0.451,0.071l0.452,0.07l0.452,0.068l0.453,0.067l0.453,0.066l0.454,0.064l0.454,0.063l0.455,0.061l0.454,0.06l0.456,0.059l0.456,0.057l0.456,0.056l0.457,0.055l0.457,0.052l0.458,0.052l0.458,0.05l0.458,0.049l0.459,0.047l0.46,0.046l0.46,0.045l0.46,0.043l0.461,0.041l0.461,0.041l0.462,0.039l0.461,0.037l0.463,0.036l0.463,0.034l0.463,0.033l0.463,0.032l0.465,0.03l0.464,0.029l0.465,0.027l0.465,0.026l0.466,0.024l0.466,0.023l0.466,0.021l0.467,0.02l0.467,0.019l0.468,0.017l0.469,0.016l0.468,0.014l0.468,0.012l0.47,0.011l0.47,0.01l0.469,0.008l0.471,0.007l0.471,0.005l0.471,0.004l0.471,0.002l0.474,0.001l0.367,-0.001l0.368,-0.001l0.368,-0.002l0.368,-0.003l0.367,-0.004l0.367,-0.005l0.367,-0.006l0.367,-0.007l0.366,-0.008l0.367,-0.008l0.366,-0.01l0.365,-0.01l0.366,-0.012l0.366,-0.012l0.365,-0.013l0.364,-0.014l0.365,-0.015l0.364,-0.016l0.365,-0.016l0.363,-0.018l0.364,-0.018l0.363,-0.02l0.363,-0.02l0.363,-0.021l0.363,-0.022l0.362,-0.023l0.363,-0.023l0.361,-0.025l0.362,-0.026l0.361,-0.026l0.361,-0.027l0.362,-0.028l0.36,-0.029l0.36,-0.03l0.361,-0.031l0.359,-0.031l0.36,-0.033l0.359,-0.033l0.359,-0.035l0.359,-0.035l0.359,-0.036l0.358,-0.036l0.358,-0.038l0.358,-0.039l0.357,-0.039l0.358,-0.04l0.357,-0.042l0.356,-0.042l0.357,-0.042l0.356,-0.044l0.356,-0.045l0.355,-0.045l0.355,-0.046l0.355,-0.047l0.355,-0.048l0.355,-0.049l0.354,-0.05l0.354,-0.05l0.353,-0.052l0.354,-0.052l0.353,-0.053l0.353,-0.054l0.352,-0.055l0.352,-0.055l0.352,-0.057l0.352,-0.057l0.352,-0.058l0.351,-0.059l0.35,-0.06l0.351,-0.061l0.35,-0.061l0.35,-0.062l0.35,-0.063l0.349,-0.064l0.349,-0.065l0.349,-0.066l0.348,-0.066l0.348,-0.067l0.348,-0.068l0.347,-0.069l0.348,-0.07l0.347,-0.071l0.346,-0.071l0.347,-0.072l0.346,-0.073l0.346,-0.074l0.345,-0.075l0.345,-0.075l0.345,-0.076l0.345,-0.077l0.344,-0.078l0.343,-0.079l0.344,-0.08l0.343,-0.08l0.343,-0.081l0.343,-0.082l0.342,-0.083l0.342,-0.083l0.342,-0.085l0.341,-0.085l0.341,-0.086l0.341,-0.086l0.34,-0.088l0.341,-0.089l0.339,-0.089l0.339,-0.09l0.339,-0.09l0.339,-0.092l0.339,-0.092l0.338,-0.093l0.338,-0.094l0.337,-0.095l0.337,-0.096l0.337,-0.096l0.336,-0.097l0.337,-0.098l0.336,-0.099l0.335,-0.099l0.335,-0.1l0.335,-0.101l0.334,-0.102l0.334,-0.103l0.334,-0.103l0.333,-0.104l0.333,-0.105l0.333,-0.106l0.333,-0.106l0.331,-0.107l0.332,-0.108l0.332,-0.109l0.33,-0.11l0.331,-0.11l0.33,-0.111l0.33,-0.112l0.33,-0.113l0.329,-0.113l0.329,-0.114l0.328,-0.115l0.328,-0.116l0.328,-0.116l0.327,-0.117l0.328,-0.118l0.326,-0.119l0.327,-0.12l0.326,-0.12l0.325,-0.121l0.325,-0.121l0.325,-0.123l0.325,-0.123l0.324,-0.124l0.324,-0.125l0.323,-0.126l0.323,-0.126l0.323,-0.127l0.322,-0.127l0.322,-0.129l0.321,-0.129l0.321,-0.13l0.321,-0.131l0.321,-0.131l0.32,-0.133l0.319,-0.132l0.319,-0.134l0.319,-0.134l0.319,-0.136l0.318,-0.136l0.317,-0.136l0.317,-0.137l0.318,-0.139l0.316,-0.138l0.316,-0.14l0.316,-0.14l0.315,-0.141l0.315,-0.142l0.315,-0.142l0.314,-0.143l0.314,-0.144l0.313,-0.145l0.313,-0.145l0.313,-0.146l0.312,-0.147l0.311,-0.147l0.312,-0.149l0.311,-0.149l0.31,-0.149l0.31,-0.151l0.31,-0.151l0.309,-0.151l0.31,-0.153l0.308,-0.153l0.308,-0.154l0.308,-0.155l0.307,-0.155l0.307,-0.156l0.306,-0.156l0.306,-0.158l0.306,-0.158l0.305,-0.159l0.305,-0.159l0.304,-0.161l0.304,-0.161l0.304,-0.161l0.303,-0.163l0.302,-0.162l0.302,-0.164l0.302,-0.165l0.302,-0.165l0.301,-0.166l0.3,-0.166l0.3,-0.167l0.3,-0.168l0.299,-0.168l0.299,-0.17l0.298,-0.17l0.298,-0.17l0.297,-0.171l0.297,-0.172l0.297,-0.173l0.296,-0.173l0.295,-0.174l0.296,-0.175l0.295,-0.175l0.294,-0.176l0.294,-0.177l0.294,-0.177l0.293,-0.178l0.292,-0.179l0.292,-0.179l0.292,-0.18l0.291,-0.181l0.291,-0.182l0.29,-0.181l0.29,-0.183l0.289,-0.184l0.289,-0.184l0.288,-0.184l0.288,-0.186l0.288,-0.186l0.287,-0.186l0.286,-0.187l0.287,-0.189l0.286,-0.188l0.284,-0.189l0.285,-0.19l0.285,-0.191l0.284,-0.191l0.283,-0.192l0.282,-0.193l0.283,-0.193l0.282,-0.194l0.281,-0.194l0.281,-0.195l0.281,-0.196l0.28,-0.196l0.279,-0.197l0.279,-0.198l0.279,-0.199l0.278,-0.198l0.277,-0.2l0.277,-0.2l0.277,-0.201l0.276,-0.202l0.276,-0.202l0.275,-0.202l0.275,-0.204l0.274,-0.204l0.273,-0.204l0.273,-0.206l0.273,-0.206l0.273,-0.206l0.271,-0.207l0.271,-0.208l0.271,-0.209l0.27,-0.208l0.27,-0.21l0.269,-0.21l0.268,-0.211l0.268,-0.212l0.268,-0.212l0.268,-0.213l0.266,-0.213l0.266,-0.214l0.266,-0.214l0.265,-0.216l0.265,-0.216l0.263,-0.215l0.264,-0.218l0.263,-0.217l0.263,-0.218l0.261,-0.219l0.262,-0.22l0.261,-0.22l0.26,-0.22l0.26,-0.221l0.26,-0.222l0.259,-0.223l0.258,-0.223l0.258,-0.223l0.257,-0.224l0.257,-0.225l0.256,-0.226l0.256,-0.225l0.255,-0.227l0.254,-0.227l0.254,-0.228l0.254,-0.228l0.253,-0.229l0.253,-0.229l0.251,-0.23l0.252,-0.231l0.251,-0.231l0.25,-0.232l0.25,-0.232l0.249,-0.233l0.249,-0.234l0.248,-0.234l0.247,-0.235l0.248,-0.235l0.246,-0.236l0.246,-0.236l0.245,-0.237l0.245,-0.238l0.244,-0.238l0.244,-0.238l0.243,-0.24l0.243,-0.239l0.242,-0.241l0.242,-0.241l0.24,-0.241l0.241,-0.242l0.24,-0.243l0.239,-0.243l0.238,-0.244l0.238,-0.244l0.238,-0.245l0.237,-0.245l0.236,-0.246l0.236,-0.247l0.235,-0.247l0.235,-0.247l0.234,-0.248l0.234,-0.249l0.232,-0.249l0.233,-0.25l0.232,-0.25l0.231,-0.251l0.231,-0.252l0.23,-0.252l0.229,-0.252l0.229,-0.253l0.229,-0.254l0.227,-0.253l0.227,-0.255l0.227,-0.255l0.226,-0.256l0.225,-0.257l0.225,-0.256l0.224,-0.257l0.224,-0.258l0.223,-0.258l0.222,-0.259l0.222,-0.26l0.221,-0.26l0.221,-0.26l0.22,-0.261l0.219,-0.261l0.219,-0.262l0.218,-0.263l0.218,-0.263l0.217,-0.264l0.216,-0.264l0.216,-0.264l0.215,-0.265l0.215,-0.266l0.213,-0.266l0.214,-0.267l0.212,-0.267l0.213,-0.267l0.211,-0.269l0.211,-0.268l0.21,-0.269l0.21,-0.27l0.209,-0.27l0.209,-0.271l0.207,-0.271l0.207,-0.272l0.207,-0.272l0.206,-0.272l0.205,-0.274l0.205,-0.273l0.204,-0.274l0.203,-0.275l0.203,-0.275l0.202,-0.276l0.201,-0.276l0.201,-0.277l0.201,-0.277l0.199,-0.277l0.199,-0.278l0.198,-0.279l0.198,-0.279l0.197,-0.279l0.197,-0.28l0.195,-0.281l0.195,-0.281l0.195,-0.281l0.194,-0.282l0.193,-0.283l0.192,-0.282l0.192,-0.283l0.192,-0.284l0.19,-0.285l0.19,-0.284l0.189,-0.285l0.189,-0.286l0.188,-0.287l0.187,-0.286l0.187,-0.287l0.186,-0.287l0.185,-0.289l0.185,-0.288l0.184,-0.289l0.184,-0.289l0.182,-0.29l0.182,-0.29l0.182,-0.291l0.18,-0.291l0.18,-0.292l0.18,-0.292l0.178,-0.292l0.178,-0.294l0.178,-0.293l0.177,-0.294l0.176,-0.294l0.175,-0.295l0.175,-0.295l0.173,-0.296l0.174,-0.296l0.173,-0.297l0.171,-0.296l0.171,-0.298l0.171,-0.298l0.17,-0.299l0.169,-0.298l0.169,-0.299l0.168,-0.3l0.167,-0.3l0.167,-0.301l0.165,-0.3l0.165,-0.302l0.165,-0.301l0.163,-0.303l0.163,-0.302l0.163,-0.303l0.161,-0.304l0.161,-0.304l0.16,-0.304l0.16,-0.305l0.159,-0.305l0.158,-0.305l0.157,-0.306l0.157,-0.307l0.156,-0.307l0.156,-0.307l0.154,-0.308l0.154,-0.308l0.153,-0.308l0.153,-0.309l0.151,-0.31l0.151,-0.309l0.151,-0.311l0.15,-0.31l0.148,-0.311l0.149,-0.311l0.147,-0.312l0.147,-0.312l0.146,-0.313l0.145,-0.313l0.145,-0.313l0.144,-0.314l0.143,-0.314l0.142,-0.315l0.142,-0.315l0.141,-0.315l0.141,-0.316l0.139,-0.316l0.139,-0.316l0.138,-0.317l0.137,-0.317l0.137,-0.318l0.136,-0.318l0.135,-0.319l0.134,-0.319l0.134,-0.319l0.133,-0.319l0.132,-0.32l0.132,-0.321l0.13,-0.321l0.13,-0.321l0.129,-0.321l0.129,-0.322l0.128,-0.322l0.127,-0.323l0.126,-0.323l0.126,-0.323l0.124,-0.324l0.124,-0.324l0.124,-0.325l0.122,-0.325l0.122,-0.325l0.121,-0.325l0.124,-0.337l19.248,7.099l-0.133,0.361l-0.138,0.372l-0.139,0.371l-0.14,0.371l-0.141,0.371l-0.141,0.37l-0.143,0.37l-0.143,0.369l-0.144,0.369l-0.145,0.368l-0.146,0.368l-0.147,0.368l-0.148,0.367l-0.148,0.367l-0.149,0.366l-0.15,0.365l-0.151,0.366l-0.152,0.365l-0.153,0.364l-0.153,0.364l-0.155,0.364l-0.155,0.363l-0.156,0.363l-0.157,0.362l-0.157,0.362l-0.159,0.361l-0.159,0.361l-0.16,0.361l-0.161,0.36l-0.162,0.359l-0.162,0.359l-0.164,0.359l-0.164,0.358l-0.165,0.358l-0.166,0.357l-0.167,0.357l-0.167,0.356l-0.169,0.356l-0.169,0.356l-0.17,0.355l-0.171,0.354l-0.171,0.354l-0.173,0.354l-0.173,0.353l-0.174,0.352l-0.175,0.353l-0.176,0.351l-0.176,0.352l-0.177,0.35l-0.178,0.35l-0.179,0.35l-0.18,0.349l-0.181,0.349l-0.181,0.348l-0.182,0.348l-0.183,0.348l-0.184,0.346l-0.184,0.346l-0.185,0.346l-0.186,0.346l-0.187,0.345l-0.188,0.344l-0.188,0.344l-0.189,0.344l-0.19,0.342l-0.191,0.343l-0.191,0.341l-0.193,0.342l-0.193,0.341l-0.194,0.341l-0.194,0.339l-0.196,0.339l-0.196,0.34l-0.197,0.338l-0.198,0.338l-0.198,0.337l-0.2,0.337l-0.2,0.336l-0.2,0.336l-0.202,0.335l-0.202,0.335l-0.203,0.334l-0.204,0.334l-0.205,0.333l-0.205,0.333l-0.206,0.332l-0.207,0.332l-0.208,0.331l-0.209,0.331l-0.209,0.33l-0.209,0.329l-0.211,0.33l-0.212,0.328l-0.212,0.328l-0.213,0.328l-0.214,0.326l-0.214,0.327l-0.215,0.325l-0.216,0.326l-0.217,0.325l-0.217,0.324l-0.218,0.323l-0.219,0.324l-0.22,0.322l-0.22,0.322l-0.221,0.322l-0.222,0.32l-0.222,0.321l-0.223,0.32l-0.224,0.319l-0.225,0.319l-0.226,0.318l-0.226,0.318l-0.227,0.317l-0.227,0.317l-0.229,0.315l-0.229,0.316l-0.229,0.315l-0.231,0.314l-0.231,0.314l-0.232,0.313l-0.233,0.312l-0.233,0.313l-0.234,0.311l-0.235,0.311l-0.235,0.31l-0.237,0.31l-0.237,0.309l-0.237,0.309l-0.238,0.308l-0.239,0.307l-0.24,0.307l-0.241,0.307l-0.241,0.305l-0.242,0.305l-0.242,0.305l-0.243,0.304l-0.244,0.303l-0.245,0.303l-0.245,0.302l-0.246,0.302l-0.247,0.301l-0.248,0.301l-0.247,0.299l-0.249,0.299l-0.25,0.299l-0.25,0.298l-0.25,0.298l-0.252,0.297l-0.252,0.296l-0.253,0.296l-0.254,0.295l-0.254,0.294l-0.255,0.294l-0.255,0.294l-0.257,0.292l-0.256,0.292l-0.258,0.292l-0.258,0.291l-0.259,0.29l-0.26,0.29l-0.26,0.289l-0.261,0.288l-0.262,0.288l-0.262,0.287l-0.263,0.287l-0.263,0.286l-0.264,0.285l-0.265,0.284l-0.266,0.285l-0.266,0.283l-0.267,0.283l-0.268,0.282l-0.268,0.282l-0.269,0.281l-0.269,0.28l-0.27,0.28l-0.271,0.279l-0.271,0.278l-0.272,0.278l-0.273,0.278l-0.273,0.276l-0.274,0.276l-0.275,0.275l-0.276,0.275l-0.275,0.274l-0.277,0.273l-0.277,0.273l-0.278,0.272l-0.278,0.271l-0.279,0.271l-0.28,0.27l-0.28,0.269l-0.281,0.27l-0.282,0.268l-0.282,0.267l-0.283,0.267l-0.283,0.266l-0.284,0.266l-0.285,0.264l-0.286,0.265l-0.286,0.263l-0.286,0.263l-0.287,0.262l-0.288,0.262l-0.288,0.261l-0.29,0.26l-0.289,0.26l-0.29,0.259l-0.291,0.258l-0.292,0.258l-0.292,0.257l-0.292,0.255l-0.294,0.256l-0.294,0.255l-0.294,0.254l-0.295,0.254l-0.296,0.253l-0.296,0.252l-0.298,0.252l-0.297,0.25l-0.298,0.25l-0.299,0.25l-0.299,0.249l-0.3,0.247l-0.3,0.248l-0.302,0.247l-0.301,0.246l-0.302,0.245l-0.303,0.244l-0.303,0.244l-0.305,0.244l-0.304,0.242l-0.305,0.242l-0.306,0.241l-0.306,0.241l-0.307,0.239l-0.308,0.239l-0.308,0.239l-0.308,0.237l-0.31,0.237l-0.309,0.236l-0.311,0.236l-0.31,0.235l-0.312,0.233l-0.312,0.234l-0.313,0.233l-0.313,0.232l-0.313,0.231l-0.315,0.23l-0.315,0.23l-0.315,0.229l-0.316,0.228l-0.316,0.228l-0.318,0.227l-0.317,0.226l-0.318,0.225l-0.319,0.225l-0.32,0.224l-0.319,0.223l-0.321,0.223l-0.321,0.222l-0.322,0.221l-0.321,0.22l-0.323,0.22l-0.323,0.219l-0.324,0.218l-0.324,0.217l-0.325,0.217l-0.325,0.216l-0.326,0.215l-0.326,0.214l-0.327,0.214l-0.328,0.213l-0.327,0.212l-0.329,0.211l-0.329,0.211l-0.33,0.21l-0.33,0.209l-0.33,0.208l-0.331,0.208l-0.332,0.207l-0.332,0.206l-0.333,0.206l-0.333,0.204l-0.334,0.204l-0.334,0.203l-0.335,0.203l-0.335,0.201l-0.336,0.201l-0.336,0.2l-0.337,0.199l-0.338,0.199l-0.338,0.197l-0.338,0.198l-0.339,0.196l-0.339,0.195l-0.34,0.195l-0.341,0.194l-0.34,0.193l-0.342,0.192l-0.342,0.191l-0.342,0.191l-0.343,0.19l-0.343,0.189l-0.345,0.189l-0.344,0.187l-0.344,0.187l-0.346,0.186l-0.346,0.185l-0.346,0.185l-0.347,0.184l-0.347,0.182l-0.348,0.182l-0.349,0.182l-0.348,0.18l-0.349,0.18l-0.35,0.179l-0.351,0.178l-0.35,0.177l-0.351,0.176l-0.352,0.176l-0.352,0.175l-0.353,0.174l-0.353,0.173l-0.353,0.173l-0.354,0.171l-0.355,0.171l-0.355,0.17l-0.355,0.169l-0.356,0.169l-0.357,0.167l-0.357,0.167l-0.357,0.166l-0.357,0.165l-0.359,0.164l-0.358,0.164l-0.36,0.162l-0.359,0.162l-0.36,0.161l-0.36,0.16l-0.362,0.159l-0.361,0.159l-0.361,0.157l-0.363,0.157l-0.363,0.156l-0.363,0.155l-0.363,0.155l-0.364,0.153l-0.365,0.153l-0.365,0.152l-0.365,0.151l-0.366,0.149l-0.366,0.15l-0.367,0.148l-0.367,0.148l-0.368,0.147l-0.368,0.145l-0.368,0.145l-0.369,0.145l-0.369,0.143l-0.37,0.142l-0.37,0.142l-0.37,0.141l-0.371,0.139l-0.372,0.139l-0.372,0.139l-0.372,0.137l-0.373,0.136l-0.373,0.136l-0.373,0.135l-0.374,0.134l-0.374,0.132l-0.375,0.133l-0.375,0.131l-0.375,0.13l-0.377,0.13l-0.376,0.128l-0.377,0.128l-0.377,0.127l-0.377,0.126l-0.379,0.125l-0.378,0.124l-0.378,0.124l-0.38,0.122l-0.379,0.122l-0.38,0.12l-0.38,0.12l-0.381,0.119l-0.382,0.118l-0.381,0.117l-0.382,0.117l-0.382,0.115l-0.383,0.114l-0.383,0.114l-0.384,0.113l-0.383,0.111l-0.384,0.111l-0.385,0.11l-0.385,0.109l-0.386,0.108l-0.385,0.108l-0.387,0.106l-0.386,0.106l-0.386,0.104l-0.388,0.104l-0.388,0.103l-0.388,0.101l-0.388,0.101l-0.388,0.1l-0.39,0.099l-0.389,0.098l-0.39,0.098l-0.39,0.096l-0.39,0.095l-0.392,0.095l-0.391,0.094l-0.391,0.092l-0.392,0.092l-0.392,0.091l-0.393,0.09l-0.393,0.089l-0.393,0.088l-0.394,0.087l-0.394,0.086l-0.394,0.085l-0.395,0.084l-0.395,0.084l-0.396,0.082l-0.396,0.082l-0.396,0.08l-0.396,0.08l-0.397,0.078l-0.397,0.078l-0.397,0.077l-0.398,0.076l-0.398,0.075l-0.399,0.074l-0.398,0.073l-0.399,0.072l-0.4,0.071l-0.4,0.07l-0.399,0.069l-0.401,0.068l-0.401,0.067l-0.401,0.067l-0.401,0.065l-0.401,0.065l-0.403,0.063l-0.402,0.062l-0.403,0.062l-0.402,0.06l-0.403,0.06l-0.404,0.059l-0.404,0.057l-0.404,0.057l-0.405,0.056l-0.404,0.054l-0.405,0.054l-0.405,0.053l-0.406,0.052l-0.406,0.051l-0.406,0.049l-0.407,0.049l-0.407,0.048l-0.407,0.047l-0.407,0.046l-0.408,0.045l-0.408,0.044l-0.408,0.043l-0.409,0.042l-0.408,0.041l-0.409,0.04l-0.41,0.039l-0.41,0.038l-0.41,0.037l-0.41,0.036l-0.41,0.035l-0.411,0.034l-0.411,0.033l-0.411,0.032l-0.412,0.031l-0.412,0.031l-0.412,0.029l-0.412,0.028l-0.413,0.027l-0.413,0.026l-0.413,0.025l-0.413,0.024l-0.414,0.023l-0.414,0.022l-0.414,0.021l-0.415,0.02l-0.415,0.019l-0.414,0.018l-0.416,0.017l-0.416,0.016l-0.415,0.014l-0.416,0.014l-0.416,0.013l-0.417,0.012l-0.417,0.011l-0.416,0.01l-0.418,0.008l-0.417,0.008l-0.417,0.007l-0.419,0.006l-0.418,0.004l-0.418,0.004l-0.419,0.002l-0.419,0.002l-0.421,0l-0.534,0l-0.537,-0.003l-0.536,-0.004l-0.536,-0.006l-0.535,-0.008l-0.535,-0.009l-0.535,-0.011l-0.534,-0.013l-0.534,-0.014l-0.533,-0.016l-0.533,-0.018l-0.533,-0.019l-0.532,-0.021l-0.531,-0.023l-0.532,-0.024l-0.531,-0.027l-0.53,-0.027l-0.53,-0.03l-0.53,-0.031l-0.529,-0.032l-0.529,-0.035l-0.528,-0.036l-0.528,-0.037l-0.528,-0.04l-0.527,-0.041l-0.527,-0.042l-0.525,-0.044l-0.526,-0.046l-0.525,-0.048l-0.525,-0.049l-0.525,-0.051l-0.523,-0.052l-0.524,-0.054l-0.522,-0.056l-0.523,-0.057l-0.522,-0.059l-0.522,-0.06l-0.521,-0.062l-0.52,-0.064l-0.52,-0.065l-0.52,-0.067l-0.519,-0.068l-0.518,-0.071l-0.518,-0.071l-0.518,-0.073l-0.517,-0.075l-0.517,-0.077l-0.515,-0.078l-0.516,-0.079l-0.515,-0.082l-0.515,-0.082l-0.514,-0.085l-0.513,-0.085l-0.513,-0.088l-0.513,-0.089l-0.511,-0.091l-0.512,-0.092l-0.511,-0.094l-0.51,-0.095l-0.509,-0.097l-0.51,-0.098l-0.509,-0.1l-0.507,-0.101l-0.508,-0.103l-0.507,-0.105l-0.506,-0.106l-0.506,-0.108l-0.506,-0.109l-0.504,-0.111l-0.505,-0.112l-0.503,-0.114l-0.503,-0.115l-0.503,-0.117l-0.501,-0.118l-0.502,-0.12l-0.5,-0.121l-0.501,-0.123l-0.499,-0.124l-0.499,-0.126l-0.499,-0.128l-0.497,-0.129l-0.497,-0.13l-0.497,-0.132l-0.495,-0.133l-0.496,-0.135l-0.495,-0.136l-0.494,-0.138l-0.493,-0.139l-0.493,-0.141l-0.492,-0.143l-0.492,-0.143l-0.491,-0.146l-0.49,-0.146l-0.49,-0.148l-0.489,-0.15l-0.488,-0.151l-0.488,-0.153l-0.487,-0.154l-0.486,-0.155l-0.486,-0.157l-0.485,-0.158l-0.485,-0.16l-0.484,-0.161l-0.483,-0.163l-0.482,-0.164l-0.482,-0.166l-0.482,-0.167l-0.48,-0.168l-0.48,-0.17l-0.479,-0.171l-0.478,-0.173l-0.478,-0.174l-0.477,-0.175l-0.477,-0.177l-0.475,-0.179l-0.475,-0.179l-0.475,-0.182l-0.474,-0.182l-0.473,-0.184l-0.472,-0.185l-0.471,-0.187l-0.471,-0.188l-0.47,-0.19l-0.47,-0.191l-0.468,-0.192l-0.468,-0.194l-0.467,-0.195l-0.467,-0.196l-0.466,-0.198l-0.465,-0.2l-0.464,-0.2l-0.464,-0.202l-0.463,-0.203l-0.462,-0.205l-0.461,-0.206l-0.461,-0.208l-0.46,-0.208l-0.459,-0.21l-0.458,-0.212l-0.458,-0.213l-0.457,-0.214l-0.456,-0.215l-0.455,-0.217l-0.455,-0.218l-0.453,-0.22l-0.453,-0.221l-0.453,-0.222l-0.451,-0.223l-0.451,-0.225l-0.45,-0.226l-0.449,-0.228l-0.448,-0.229l-0.448,-0.23l-0.447,-0.231l-0.446,-0.233l-0.445,-0.234l-0.444,-0.235l-0.444,-0.237l-0.443,-0.238l-0.441,-0.239l-0.442,-0.24l-0.44,-0.242l-0.439,-0.243l-0.439,-0.245l-0.438,-0.245l-0.437,-0.247l-0.436,-0.248l-0.436,-0.25l-0.435,-0.251l-0.433,-0.252l-0.433,-0.253l-0.432,-0.255l-0.431,-0.255l-0.431,-0.258l-0.429,-0.258l-0.429,-0.259l-0.428,-0.261l-0.427,-0.263l-0.426,-0.263l-0.425,-0.264l-0.425,-0.266l-0.423,-0.267l-0.423,-0.269l-0.422,-0.269l-0.421,-0.271l-0.42,-0.272l-0.419,-0.273l-0.418,-0.275l-0.418,-0.275l-0.417,-0.277l-0.415,-0.278l-0.415,-0.28l-0.414,-0.28l-0.413,-0.282l-0.412,-0.283l-0.412,-0.284l-0.41,-0.285l-0.409,-0.287l-0.409,-0.288l-0.407,-0.289l-0.407,-0.29l-0.406,-0.291l-0.405,-0.293l-0.404,-0.293l-0.403,-0.295l-0.402,-0.296l-0.401,-0.297l-0.4,-0.299l-0.4,-0.299l-0.398,-0.301l-0.398,-0.302l-0.396,-0.303l-0.396,-0.304l-0.394,-0.306l-0.394,-0.306l-0.393,-0.308l-0.392,-0.309l-0.39,-0.31l-0.39,-0.311l-0.389,-0.312l-0.388,-0.314l-0.387,-0.314l-0.387,-0.316l-0.384,-0.317l-0.385,-0.318l-0.383,-0.319l-0.382,-0.32l-0.381,-0.321l-0.38,-0.323l-0.38,-0.323l-0.378,-0.325l-0.377,-0.326l-0.376,-0.327l-0.376,-0.328l-0.374,-0.329l-0.373,-0.33l-0.372,-0.331l-0.372,-0.333l-0.37,-0.334l-0.369,-0.334l-0.368,-0.336l-0.368,-0.337l-0.366,-0.337l-0.365,-0.339l-0.364,-0.34l-0.363,-0.341l-0.363,-0.343l-0.361,-0.343l-0.36,-0.344l-0.359,-0.346l-0.358,-0.346l-0.357,-0.348l-0.356,-0.348l-0.355,-0.35l-0.354,-0.351l-0.352,-0.351l-0.352,-0.353l-0.351,-0.354l-0.349,-0.355l-0.349,-0.356l-0.348,-0.357l-0.346,-0.358l-0.345,-0.359l-0.345,-0.36l-0.343,-0.361l-0.342,-0.362l-0.341,-0.363l-0.34,-0.365l-0.34,-0.365l-0.337,-0.366l-0.337,-0.367l-0.336,-0.368l-0.334,-0.37l-0.334,-0.37l-0.332,-0.371l-0.332,-0.372l-0.33,-0.374l-0.329,-0.374l-0.328,-0.375l-0.327,-0.377l-0.326,-0.377l-0.324,-0.378l-0.324,-0.379l-0.323,-0.381l-0.321,-0.381l-0.32,-0.382l-0.319,-0.383l-0.318,-0.384l-0.317,-0.385l-0.316,-0.386l-0.314,-0.387l-0.314,-0.388l-0.312,-0.389l-0.311,-0.39l-0.31,-0.391l-0.309,-0.392l-0.308,-0.392l-0.306,-0.394l-0.306,-0.395l-0.304,-0.395l-0.303,-0.397l-0.302,-0.397l-0.301,-0.399l-0.299,-0.399l-0.299,-0.4l-0.297,-0.402l-0.296,-0.402l-0.295,-0.403l-0.293,-0.404l-0.293,-0.405l-0.291,-0.405l-0.29,-0.407l-0.289,-0.408l-0.288,-0.408l-0.287,-0.41l-0.285,-0.41l-0.284,-0.411l-0.283,-0.412l-0.282,-0.413l-0.281,-0.414l-0.279,-0.415l-0.278,-0.416l-0.277,-0.416l-0.276,-0.418l-0.274,-0.418l-0.273,-0.419l-0.272,-0.42l-0.271,-0.422l-0.27,-0.421l-0.268,-0.423l-0.267,-0.424l-0.266,-0.424l-0.264,-0.425l-0.264,-0.427l-0.262,-0.427l-0.261,-0.427l-0.259,-0.429l-0.259,-0.43l-0.257,-0.43l-0.256,-0.431l-0.254,-0.432l-0.253,-0.433l-0.253,-0.434l-0.25,-0.435l-0.25,-0.435l-0.248,-0.436l-0.247,-0.437l-0.246,-0.438l-0.244,-0.439l-0.243,-0.44l-0.242,-0.44l-0.24,-0.441l-0.24,-0.442l-0.238,-0.443l-0.236,-0.443l-0.236,-0.445l-0.234,-0.445l-0.232,-0.446l-0.232,-0.447l-0.23,-0.447l-0.229,-0.449l-0.227,-0.449l-0.226,-0.45l-0.225,-0.45l-0.224,-0.452l-0.222,-0.452l-0.221,-0.453l-0.219,-0.454l-0.218,-0.454l-0.217,-0.456l-0.216,-0.456l-0.214,-0.457l-0.213,-0.457l-0.211,-0.459l-0.21,-0.459l-0.209,-0.46l-0.207,-0.461l-0.206,-0.461l-0.205,-0.462l-0.203,-0.463l-0.202,-0.463l-0.201,-0.465l-0.199,-0.465l-0.198,-0.466l-0.197,-0.466l-0.195,-0.467l-0.193,-0.468l-0.193,-0.469l-0.191,-0.469l-0.189,-0.471l-0.188,-0.47l-0.187,-0.472l-0.186,-0.472l-0.184,-0.473l-0.182,-0.474l-0.181,-0.474l-0.18,-0.475l-0.178,-0.476l-0.177,-0.476l-0.176,-0.477l-0.174,-0.478l-0.173,-0.479l-0.171,-0.479l-0.17,-0.48l-0.168,-0.48l-0.167,-0.482l-0.166,-0.481l-0.164,-0.483l-0.162,-0.483l-0.162,-0.484l-0.16,-0.484l-0.158,-0.486l-0.157,-0.485l-0.155,-0.487l-0.154,-0.487l-0.153,-0.488l-0.151,-0.488l-0.149,-0.489l-0.149,-0.49l-0.146,-0.49l-0.145,-0.491l-0.144,-0.492l-0.143,-0.492l-0.14,-0.493l-0.14,-0.493l-0.137,-0.494l-0.137,-0.495l-0.135,-0.495l-0.133,-0.496l-0.132,-0.497l-0.13,-0.497l-0.129,-0.498l-0.128,-0.498l-0.125,-0.499l-0.125,-0.499l-0.123,-0.501l-0.121,-0.5l-0.12,-0.502l-0.118,-0.501l-0.117,-0.503l-0.115,-0.503l-0.114,-0.503l-0.112,-0.505l-0.111,-0.504l-0.109,-0.506l-0.108,-0.506l-0.106,-0.506l-0.105,-0.507l-0.103,-0.508l-0.101,-0.508l-0.1,-0.508l-0.098,-0.51l-0.097,-0.509l-0.095,-0.511l-0.094,-0.51l-0.092,-0.512l-0.091,-0.512l-0.089,-0.512l-0.088,-0.513l-0.085,-0.514l-0.085,-0.514l-0.082,-0.514l-0.082,-0.515l-0.079,-0.516l-0.078,-0.516l-0.077,-0.516l-0.075,-0.517l-0.073,-0.518l-0.072,-0.518l-0.07,-0.519l-0.068,-0.519l-0.067,-0.519l-0.065,-0.52l-0.064,-0.521l-0.062,-0.521l-0.06,-0.521l-0.059,-0.522l-0.057,-0.523l-0.056,-0.523l-0.054,-0.523l-0.052,-0.524l-0.051,-0.524l-0.049,-0.525l-0.048,-0.525l-0.046,-0.526l-0.044,-0.526l-0.042,-0.527l-0.041,-0.527l-0.04,-0.527l-0.037,-0.528l-0.036,-0.529l-0.035,-0.528l-0.032,-0.53l-0.031,-0.529l-0.03,-0.53l-0.027,-0.531l-0.027,-0.531l-0.024,-0.531l-0.023,-0.532l-0.021,-0.532l-0.019,-0.533l-0.018,-0.533l-0.016,-0.533l-0.014,-0.534l-0.013,-0.534l-0.011,-0.535l-0.009,-0.535l-0.008,-0.535l-0.006,-0.536l-0.004,-0.536l-0.003,-0.536l-0.001,-0.537l0.001,-0.537l0.003,-0.537l0.004,-0.536l0.006,-0.535l0.008,-0.536l0.009,-0.535l0.011,-0.534l0.013,-0.534l0.014,-0.534l0.016,-0.534l0.018,-0.533l0.019,-0.532l0.021,-0.532l0.023,-0.532l0.024,-0.531l0.027,-0.531l0.027,-0.531l0.03,-0.53l0.031,-0.529l0.032,-0.53l0.035,-0.528l0.036,-0.529l0.037,-0.528l0.04,-0.527l0.041,-0.527l0.042,-0.527l0.044,-0.526l0.046,-0.525l0.048,-0.526l0.049,-0.524l0.051,-0.525l0.052,-0.523l0.054,-0.524l0.056,-0.523l0.057,-0.522l0.059,-0.522l0.06,-0.522l0.062,-0.521l0.064,-0.52l0.065,-0.52l0.067,-0.52l0.068,-0.519l0.071,-0.518l0.071,-0.518l0.073,-0.518l0.075,-0.517l0.077,-0.517l0.078,-0.516l0.079,-0.515l0.082,-0.515l0.082,-0.515l0.085,-0.514l0.086,-0.513l0.087,-0.513l0.089,-0.512l0.091,-0.512l0.092,-0.512l0.094,-0.51l0.095,-0.511l0.097,-0.509l0.098,-0.51l0.1,-0.508l0.101,-0.508l0.104,-0.508l0.104,-0.507l0.106,-0.506l0.108,-0.506l0.109,-0.505l0.111,-0.505l0.112,-0.504l0.114,-0.504l0.115,-0.503l0.117,-0.502l0.118,-0.502l0.12,-0.501l0.121,-0.501l0.123,-0.5l0.125,-0.5l0.125,-0.498l0.128,-0.499l0.129,-0.497l0.13,-0.498l0.132,-0.496l0.133,-0.496l0.135,-0.495l0.137,-0.495l0.137,-0.494l0.14,-0.493l0.141,-0.493l0.142,-0.492l0.144,-0.492l0.145,-0.491l0.146,-0.49l0.149,-0.49l0.149,-0.489l0.151,-0.488l0.153,-0.488l0.154,-0.487l0.155,-0.487l0.157,-0.485l0.159,-0.486l0.159,-0.484l0.162,-0.484l0.162,-0.483l0.164,-0.483l0.166,-0.481l0.167,-0.482l0.168,-0.48l0.17,-0.48l0.171,-0.479l0.173,-0.479l0.174,-0.477l0.176,-0.477l0.177,-0.477l0.178,-0.476l0.18,-0.475l0.181,-0.474l0.183,-0.474l0.184,-0.472l0.185,-0.473l0.187,-0.471l0.188,-0.471l0.189,-0.47l0.191,-0.47l0.193,-0.468l0.193,-0.468l0.195,-0.467l0.197,-0.467l0.198,-0.466l0.199,-0.465l0.201,-0.464l0.202,-0.464l0.203,-0.462l0.205,-0.463l0.206,-0.461l0.207,-0.46l0.209,-0.46l0.21,-0.46l0.211,-0.458l0.213,-0.457l0.214,-0.457l0.216,-0.456l0.217,-0.456l0.218,-0.454l0.219,-0.454l0.221,-0.453l0.223,-0.452l0.223,-0.452l0.225,-0.451l0.226,-0.449l0.227,-0.45l0.229,-0.448l0.23,-0.447l0.232,-0.447l0.232,-0.446l0.235,-0.445l0.235,-0.445l0.236,-0.443l0.238,-0.443l0.24,-0.442l0.24,-0.441l0.242,-0.441l0.243,-0.439l0.244,-0.439l0.246,-0.438l0.247,-0.437l0.248,-0.436l0.25,-0.435l0.251,-0.435l0.252,-0.434l0.253,-0.433l0.254,-0.432l0.256,-0.431l0.257,-0.43l0.259,-0.43l0.259,-0.429l0.261,-0.427l0.262,-0.427l0.264,-0.427l0.264,-0.425l0.266,-0.424l0.267,-0.424l0.268,-0.423l0.27,-0.421l0.271,-0.421l0.272,-0.42l0.273,-0.42l0.275,-0.418l0.275,-0.417l0.277,-0.417l0.278,-0.416l0.28,-0.415l0.28,-0.413l0.282,-0.413l0.283,-0.413l0.284,-0.411l0.285,-0.41l0.287,-0.409l0.288,-0.409l0.289,-0.408l0.29,-0.406l0.291,-0.406l0.293,-0.405l0.293,-0.404l0.295,-0.403l0.296,-0.402l0.297,-0.401l0.299,-0.401l0.299,-0.399l0.301,-0.398l0.302,-0.398l0.303,-0.396l0.304,-0.396l0.306,-0.395l0.306,-0.393l0.308,-0.393l0.309,-0.392l0.31,-0.391l0.311,-0.389l0.312,-0.389l0.314,-0.388l0.314,-0.387l0.316,-0.386l0.317,-0.386l0.318,-0.384l0.319,-0.383l0.32,-0.382l0.322,-0.381l0.322,-0.38l0.324,-0.38l0.324,-0.378l0.326,-0.377l0.327,-0.376l0.328,-0.376l0.329,-0.374l0.33,-0.373l0.332,-0.372l0.332,-0.372l0.334,-0.37l0.334,-0.369l0.336,-0.368l0.337,-0.368l0.338,-0.366l0.339,-0.365l0.34,-0.364l0.341,-0.363l0.342,-0.363l0.343,-0.361l0.345,-0.36l0.345,-0.359l0.346,-0.358l0.348,-0.357l0.349,-0.356l0.349,-0.355l0.351,-0.353l0.352,-0.353l0.352,-0.352l0.354,-0.351l0.355,-0.349l0.356,-0.349l0.357,-0.347l0.358,-0.347l0.359,-0.345l0.36,-0.345l0.361,-0.343l0.362,-0.342l0.364,-0.341l0.364,-0.34l0.365,-0.339l0.366,-0.338l0.368,-0.337l0.368,-0.336l0.369,-0.334l0.37,-0.334l0.372,-0.332l0.372,-0.331l0.373,-0.331l0.374,-0.329l0.376,-0.328l0.376,-0.327l0.377,-0.326l0.378,-0.324l0.38,-0.324l0.38,-0.322l0.381,-0.322l0.382,-0.32l0.383,-0.319l0.384,-0.318l0.386,-0.317l0.386,-0.315l0.387,-0.315l0.388,-0.313l0.389,-0.313l0.389,-0.311l0.391,-0.31l0.392,-0.309l0.393,-0.307l0.394,-0.307l0.394,-0.305l0.396,-0.304l0.396,-0.304l0.398,-0.301l0.398,-0.301l0.4,-0.3l0.4,-0.298l0.401,-0.297l0.402,-0.296l0.403,-0.295l0.404,-0.294l0.405,-0.293l0.406,-0.291l0.407,-0.29l0.407,-0.289l0.409,-0.288l0.409,-0.286l0.41,-0.286l0.412,-0.284l0.412,-0.283l0.413,-0.282l0.414,-0.28l0.415,-0.279l0.415,-0.278l0.417,-0.277l0.417,-0.276l0.419,-0.275l0.419,-0.273l0.42,-0.272l0.421,-0.271l0.422,-0.269l0.422,-0.268l0.424,-0.267l0.424,-0.266l0.426,-0.265l0.426,-0.263l0.427,-0.262l0.428,-0.261l0.429,-0.26l0.429,-0.258l0.43,-0.257l0.432,-0.256l0.432,-0.255l0.433,-0.253l0.434,-0.252l0.434,-0.251l0.435,-0.249l0.437,-0.249l0.437,-0.246l0.438,-0.246l0.438,-0.244l0.44,-0.244l0.44,-0.241l0.442,-0.241l0.441,-0.239l0.443,-0.238l0.444,-0.237l0.444,-0.235l0.445,-0.234l0.446,-0.233l0.447,-0.231l0.448,-0.23l0.448,-0.229l0.449,-0.227l0.45,-0.227l0.451,-0.224l0.451,-0.224l0.453,-0.222l0.453,-0.221l0.453,-0.22l0.455,-0.218l0.455,-0.217l0.456,-0.215l0.457,-0.214l0.458,-0.213l0.458,-0.211l0.459,-0.211l0.46,-0.208l0.461,-0.208l0.461,-0.206l0.462,-0.205l0.463,-0.203l0.464,-0.202l0.464,-0.2l0.465,-0.2l0.466,-0.197l0.466,-0.197l0.468,-0.195l0.468,-0.194l0.468,-0.192l0.47,-0.191l0.47,-0.19l0.471,-0.188l0.471,-0.187l0.472,-0.185l0.473,-0.184l0.474,-0.182l0.474,-0.182l0.475,-0.179l0.476,-0.179l0.477,-0.177l0.477,-0.175l0.478,-0.174l0.478,-0.173l0.479,-0.171l0.48,-0.17l0.48,-0.169l0.482,-0.167l0.482,-0.165l0.482,-0.164l0.483,-0.163l0.484,-0.161l0.485,-0.16l0.485,-0.158l0.486,-0.157l0.486,-0.156l0.487,-0.154l0.488,-0.152l0.488,-0.151l0.489,-0.15l0.49,-0.148l0.49,-0.147l0.491,-0.145l0.492,-0.144l0.492,-0.142l0.493,-0.141l0.493,-0.139l0.494,-0.138l0.495,-0.136l0.495,-0.135l0.496,-0.133l0.497,-0.132l0.497,-0.131l0.498,-0.129l0.498,-0.127l0.499,-0.126l0.499,-0.124l0.5,-0.123l0.501,-0.121l0.501,-0.12l0.502,-0.119l0.503,-0.116l0.503,-0.116l0.503,-0.113l0.505,-0.113l0.504,-0.11l0.506,-0.11l0.505,-0.107l0.507,-0.106l0.507,-0.105l0.507,-0.103l0.509,-0.101l0.508,-0.1l0.509,-0.099l0.51,-0.097l0.51,-0.095l0.511,-0.094l0.512,-0.092l0.511,-0.09l0.513,-0.089l0.513,-0.088l0.513,-0.086l0.514,-0.084l0.515,-0.083l0.515,-0.081l0.515,-0.08l0.516,-0.078l0.517,-0.076l0.517,-0.075l0.518,-0.073l0.518,-0.072l0.518,-0.07l0.519,-0.068l0.52,-0.067l0.52,-0.066l0.52,-0.063l0.521,-0.062l0.522,-0.061l0.522,-0.059l0.522,-0.057l0.523,-0.055l0.524,-0.054l0.523,-0.053l0.525,-0.05l0.525,-0.05l0.525,-0.047l0.525,-0.046l0.527,-0.044l0.526,-0.043l0.527,-0.041l0.528,-0.039l0.528,-0.038l0.528,-0.036l0.529,-0.034l0.529,-0.033l0.53,-0.031l0.53,-0.029l0.53,-0.028l0.531,-0.026l0.531,-0.024l0.532,-0.023l0.532,-0.021l0.533,-0.02l0.533,-0.017l0.533,-0.016l0.534,-0.015l0.534,-0.012l0.535,-0.011l0.535,-0.01l0.535,-0.007l0.536,-0.006l0.536,-0.004l0.536,-0.003l0.535,-0.001l0.379,0.001Z" style="fill:#424651;"/><path d="M307.7,132.131l-114.151,57.93l120.821,53.759l-8.34,18.744l-150.735,-67.069l-0.227,-8.911l143.348,-72.748l9.284,18.295Z" style="fill:#424651;"/><path d="M173.581,108.84c0,11.466 -9.294,20.764 -20.764,20.764c-11.47,0 -20.767,-9.298 -20.767,-20.764c0,-11.469 9.297,-20.767 20.767,-20.767c11.47,0 20.764,9.298 20.764,20.767Z" style="fill:#424651;fill-rule:nonzero;"/><path d="M276.746,187.927c0,8.235 -6.673,14.908 -14.908,14.908c-8.235,0 -14.908,-6.673 -14.908,-14.908c0,-8.235 6.673,-14.908 14.908,-14.908c8.235,0 14.908,6.673 14.908,14.908Z" style="fill:#e88a4a;fill-rule:nonzero;"/><path d="M333.507,187.927c0,10.587 -8.586,19.17 -19.17,19.17c-10.587,0 -19.169,-8.583 -19.169,-19.17c0,-10.587 8.582,-19.17 19.169,-19.17c10.584,0 19.17,8.583 19.17,19.17Z" style="fill:#e88a4a;fill-rule:nonzero;"/><path d="M397.4,187.927c0,13.822 -11.204,25.026 -25.026,25.026c-13.822,0 -25.025,-11.204 -25.025,-25.026c0,-13.822 11.203,-25.026 25.025,-25.026c13.822,0 25.026,11.204 25.026,25.026Z" style="fill:#e88a4a;fill-rule:nonzero;"/></svg>